<svg width="286" height="72" viewBox="0 0 286 72" fill="none" xmlns="http://www.w3.org/2000/svg">
<g opacity="0.2">
<path d="M0.0875588 0.775002C0.112263 0.828129 0.144836 0.877251 0.184371 0.920936L4.05859 5.20125L7.27029 8.69289C7.34083 8.76762 7.43111 8.82409 7.53264 8.85895C7.70857 8.91933 8.00054 8.97656 8.2677 8.89534C8.69005 8.767 8.85025 8.48172 8.85025 8.48172C8.85025 8.48172 9.06872 8.21074 9.1124 7.96828C9.12838 7.87971 9.13267 7.80069 9.13172 7.73602C9.1301 7.62791 9.09776 7.52299 9.03777 7.43223C9.00734 7.38626 8.97038 7.33494 8.93242 7.29278C8.8492 7.2004 8.41158 6.77157 8.28439 6.67118C8.22888 6.62735 7.90682 6.33982 7.8919 6.32666L5.48813 4.12195L1.04529 0.273054C1.03461 0.263803 1.02411 0.255313 1.01276 0.246824C0.963021 0.209578 0.816753 0.101032 0.759715 0.0694609C0.707541 0.0406075 0.576296 0.010993 0.478481 0.00064373C0.448198 -0.00255203 0.387487 0.00860786 0.359683 0.0145216C0.313375 0.0243464 0.264874 0.0474758 0.217564 0.0665045C0.144454 0.0958824 0.0639517 0.219879 0.0639517 0.219879C0.0639517 0.219879 0.00371807 0.355559 0.000713536 0.408639C-0.00229099 0.461719 0.00371807 0.5974 0.0278497 0.647523C0.040297 0.673514 0.0658594 0.728265 0.0875588 0.775002Z" fill="white"/>
<path d="M30.4759 0.775002C30.4512 0.828129 30.4186 0.877251 30.3791 0.920936L26.5049 5.20125L23.2932 8.69289C23.2227 8.76762 23.1324 8.82409 23.0308 8.85895C22.8549 8.91933 22.5629 8.97656 22.2958 8.89534C21.8734 8.767 21.7132 8.48172 21.7132 8.48172C21.7132 8.48172 21.4948 8.21074 21.4511 7.96828C21.4351 7.87971 21.4308 7.80069 21.4318 7.73602C21.4334 7.62791 21.4657 7.52299 21.5257 7.43223C21.5562 7.38626 21.5931 7.33494 21.6311 7.29278C21.7143 7.2004 22.1519 6.77157 22.2791 6.67118C22.3346 6.62735 22.6567 6.33982 22.6716 6.32666L25.0754 4.12195L29.5182 0.273054C29.5289 0.263802 29.5394 0.255313 29.5507 0.246824C29.6005 0.209578 29.7467 0.101032 29.8038 0.0694609C29.8559 0.0406084 29.9872 0.0109921 30.085 0.00064373C30.1153 -0.00255203 30.176 0.00860786 30.2038 0.0145216C30.2501 0.0243454 30.2986 0.0474758 30.3459 0.0665045C30.419 0.0958824 30.4995 0.219879 30.4995 0.219879C30.4995 0.219879 30.5598 0.355559 30.5628 0.408639C30.5658 0.46172 30.5598 0.5974 30.5357 0.647523C30.5232 0.673515 30.4976 0.728264 30.4759 0.775002Z" fill="white"/>
<path d="M16.5528 7.87725C16.5528 8.50501 16.0332 9.01392 15.3921 9.01392C14.7511 9.01392 14.2314 8.50501 14.2314 7.87725C14.2314 7.24949 14.7511 6.74058 15.3921 6.74058C16.0332 6.74058 16.5528 7.24949 16.5528 7.87725Z" fill="white"/>
<path d="M23.8138 14.9944C23.8138 15.6222 23.2941 16.1311 22.6531 16.1311C22.0121 16.1311 21.4924 15.6222 21.4924 14.9944C21.4924 14.3667 22.0121 13.8578 22.6531 13.8578C23.2941 13.8578 23.8138 14.3667 23.8138 14.9944Z" fill="white"/>
<path d="M9.20368 14.9944C9.20368 15.6222 8.68404 16.1311 8.04298 16.1311C7.40196 16.1311 6.88232 15.6222 6.88232 14.9944C6.88232 14.3667 7.40196 13.8578 8.04298 13.8578C8.68404 13.8578 9.20368 14.3667 9.20368 14.9944Z" fill="white"/>
<path d="M17.4932 14.9943C17.4932 16.1547 16.5328 17.0952 15.348 17.0952C14.1631 17.0952 13.2026 16.1547 13.2026 14.9943C13.2026 13.8341 14.1631 12.8935 15.348 12.8935C16.5328 12.8935 17.4932 13.8341 17.4932 14.9943Z" fill="#FFB801"/>
<path d="M41.0876 0.775002C41.1123 0.828129 41.1448 0.877251 41.1844 0.920936L45.0586 5.20125L48.2703 8.69289C48.3408 8.76762 48.4311 8.82409 48.5326 8.85895C48.7086 8.91933 49.0005 8.97656 49.2677 8.89534C49.6901 8.767 49.8502 8.48172 49.8502 8.48172C49.8502 8.48172 50.0687 8.21074 50.1124 7.96828C50.1284 7.87971 50.1327 7.80069 50.1317 7.73602C50.1301 7.62791 50.0978 7.52299 50.0378 7.43223C50.0073 7.38626 49.9704 7.33494 49.9324 7.29278C49.8492 7.2004 49.4116 6.77157 49.2844 6.67118C49.2289 6.62735 48.9068 6.33982 48.8919 6.32666L46.4881 4.12195L42.0453 0.273054C42.0346 0.263803 42.0241 0.255313 42.0128 0.246824C41.963 0.209578 41.8168 0.101032 41.7597 0.0694609C41.7075 0.0406075 41.5763 0.010993 41.4785 0.00064373C41.4482 -0.00255203 41.3875 0.00860786 41.3597 0.0145216C41.3134 0.0243464 41.2649 0.0474758 41.2176 0.0665045C41.1445 0.0958824 41.064 0.219879 41.064 0.219879C41.064 0.219879 41.0037 0.355559 41.0007 0.408639C40.9977 0.461719 41.0037 0.5974 41.0278 0.647523C41.0403 0.673514 41.0659 0.728265 41.0876 0.775002Z" fill="white"/>
<path d="M71.4759 0.775002C71.4512 0.828129 71.4186 0.877251 71.3791 0.920936L67.5049 5.20125L64.2932 8.69289C64.2227 8.76762 64.1324 8.82409 64.0308 8.85895C63.8549 8.91933 63.5629 8.97656 63.2958 8.89534C62.8734 8.767 62.7132 8.48172 62.7132 8.48172C62.7132 8.48172 62.4948 8.21074 62.4511 7.96828C62.4351 7.87971 62.4308 7.80069 62.4318 7.73602C62.4334 7.62791 62.4657 7.52299 62.5257 7.43223C62.5562 7.38626 62.5931 7.33494 62.6311 7.29278C62.7143 7.2004 63.1519 6.77157 63.2791 6.67118C63.3346 6.62735 63.6567 6.33982 63.6716 6.32666L66.0754 4.12195L70.5182 0.273054C70.5289 0.263802 70.5394 0.255313 70.5507 0.246824C70.6005 0.209578 70.7467 0.101032 70.8038 0.0694609C70.8559 0.0406084 70.9872 0.0109921 71.085 0.00064373C71.1153 -0.00255203 71.176 0.00860786 71.2038 0.0145216C71.2501 0.0243454 71.2986 0.0474758 71.3459 0.0665045C71.419 0.0958824 71.4995 0.219879 71.4995 0.219879C71.4995 0.219879 71.5598 0.355559 71.5628 0.408639C71.5658 0.46172 71.5598 0.5974 71.5357 0.647523C71.5232 0.673515 71.4976 0.728264 71.4759 0.775002Z" fill="white"/>
<path d="M57.5528 7.87725C57.5528 8.50501 57.0332 9.01392 56.3921 9.01392C55.7511 9.01392 55.2314 8.50501 55.2314 7.87725C55.2314 7.24949 55.7511 6.74058 56.3921 6.74058C57.0332 6.74058 57.5528 7.24949 57.5528 7.87725Z" fill="white"/>
<path d="M64.8138 14.9944C64.8138 15.6222 64.2941 16.1311 63.6531 16.1311C63.0121 16.1311 62.4924 15.6222 62.4924 14.9944C62.4924 14.3667 63.0121 13.8578 63.6531 13.8578C64.2941 13.8578 64.8138 14.3667 64.8138 14.9944Z" fill="white"/>
<path d="M50.2037 14.9944C50.2037 15.6222 49.684 16.1311 49.043 16.1311C48.402 16.1311 47.8823 15.6222 47.8823 14.9944C47.8823 14.3667 48.402 13.8578 49.043 13.8578C49.684 13.8578 50.2037 14.3667 50.2037 14.9944Z" fill="white"/>
<path d="M58.4932 14.9943C58.4932 16.1547 57.5328 17.0952 56.348 17.0952C55.1631 17.0952 54.2026 16.1547 54.2026 14.9943C54.2026 13.8341 55.1631 12.8935 56.348 12.8935C57.5328 12.8935 58.4932 13.8341 58.4932 14.9943Z" fill="#FFB801"/>
<path d="M82.0876 0.775002C82.1123 0.828129 82.1448 0.877251 82.1844 0.920936L86.0586 5.20125L89.2703 8.69289C89.3408 8.76762 89.4311 8.82409 89.5326 8.85895C89.7086 8.91933 90.0005 8.97656 90.2677 8.89534C90.6901 8.767 90.8502 8.48172 90.8502 8.48172C90.8502 8.48172 91.0687 8.21074 91.1124 7.96828C91.1284 7.87971 91.1327 7.80069 91.1317 7.73602C91.1301 7.62791 91.0978 7.52299 91.0378 7.43223C91.0073 7.38626 90.9704 7.33494 90.9324 7.29278C90.8492 7.2004 90.4116 6.77157 90.2844 6.67118C90.2289 6.62735 89.9068 6.33982 89.8919 6.32666L87.4881 4.12195L83.0453 0.273054C83.0346 0.263803 83.0241 0.255313 83.0128 0.246824C82.963 0.209578 82.8168 0.101032 82.7597 0.0694609C82.7075 0.0406075 82.5763 0.010993 82.4785 0.00064373C82.4482 -0.00255203 82.3875 0.00860786 82.3597 0.0145216C82.3134 0.0243464 82.2649 0.0474758 82.2176 0.0665045C82.1445 0.0958824 82.064 0.219879 82.064 0.219879C82.064 0.219879 82.0037 0.355559 82.0007 0.408639C81.9977 0.461719 82.0037 0.5974 82.0278 0.647523C82.0403 0.673514 82.0659 0.728265 82.0876 0.775002Z" fill="white"/>
<path d="M112.476 0.775002C112.451 0.828129 112.419 0.877251 112.379 0.920936L108.505 5.20125L105.293 8.69289C105.223 8.76762 105.132 8.82409 105.031 8.85895C104.855 8.91933 104.563 8.97656 104.296 8.89534C103.873 8.767 103.713 8.48172 103.713 8.48172C103.713 8.48172 103.495 8.21074 103.451 7.96828C103.435 7.87971 103.431 7.80069 103.432 7.73602C103.433 7.62791 103.466 7.52299 103.526 7.43223C103.556 7.38626 103.593 7.33494 103.631 7.29278C103.714 7.2004 104.152 6.77157 104.279 6.67118C104.335 6.62735 104.657 6.33982 104.672 6.32666L107.075 4.12195L111.518 0.273054C111.529 0.263802 111.539 0.255313 111.551 0.246824C111.6 0.209578 111.747 0.101032 111.804 0.0694609C111.856 0.0406084 111.987 0.0109921 112.085 0.00064373C112.115 -0.00255203 112.176 0.00860786 112.204 0.0145216C112.25 0.0243454 112.299 0.0474758 112.346 0.0665045C112.419 0.0958824 112.5 0.219879 112.5 0.219879C112.5 0.219879 112.56 0.355559 112.563 0.408639C112.566 0.46172 112.56 0.5974 112.536 0.647523C112.523 0.673515 112.498 0.728264 112.476 0.775002Z" fill="white"/>
<path d="M98.5528 7.87725C98.5528 8.50501 98.0332 9.01392 97.3921 9.01392C96.7511 9.01392 96.2314 8.50501 96.2314 7.87725C96.2314 7.24949 96.7511 6.74058 97.3921 6.74058C98.0332 6.74058 98.5528 7.24949 98.5528 7.87725Z" fill="white"/>
<path d="M105.814 14.9944C105.814 15.6222 105.294 16.1311 104.653 16.1311C104.012 16.1311 103.492 15.6222 103.492 14.9944C103.492 14.3667 104.012 13.8578 104.653 13.8578C105.294 13.8578 105.814 14.3667 105.814 14.9944Z" fill="white"/>
<path d="M91.2037 14.9944C91.2037 15.6222 90.684 16.1311 90.043 16.1311C89.402 16.1311 88.8823 15.6222 88.8823 14.9944C88.8823 14.3667 89.402 13.8578 90.043 13.8578C90.684 13.8578 91.2037 14.3667 91.2037 14.9944Z" fill="white"/>
<path d="M99.4932 14.9943C99.4932 16.1547 98.5328 17.0952 97.348 17.0952C96.1631 17.0952 95.2026 16.1547 95.2026 14.9943C95.2026 13.8341 96.1631 12.8935 97.348 12.8935C98.5328 12.8935 99.4932 13.8341 99.4932 14.9943Z" fill="#FFB801"/>
<path d="M123.088 0.775002C123.112 0.828129 123.145 0.877251 123.184 0.920936L127.059 5.20125L130.27 8.69289C130.341 8.76762 130.431 8.82409 130.533 8.85895C130.709 8.91933 131.001 8.97656 131.268 8.89534C131.69 8.767 131.85 8.48172 131.85 8.48172C131.85 8.48172 132.069 8.21074 132.112 7.96828C132.128 7.87971 132.133 7.80069 132.132 7.73602C132.13 7.62791 132.098 7.52299 132.038 7.43223C132.007 7.38626 131.97 7.33494 131.932 7.29278C131.849 7.2004 131.412 6.77157 131.284 6.67118C131.229 6.62735 130.907 6.33982 130.892 6.32666L128.488 4.12195L124.045 0.273054C124.035 0.263803 124.024 0.255313 124.013 0.246824C123.963 0.209578 123.817 0.101032 123.76 0.0694609C123.708 0.0406075 123.576 0.010993 123.478 0.00064373C123.448 -0.00255203 123.387 0.00860786 123.36 0.0145216C123.313 0.0243464 123.265 0.0474758 123.218 0.0665045C123.144 0.0958824 123.064 0.219879 123.064 0.219879C123.064 0.219879 123.004 0.355559 123.001 0.408639C122.998 0.461719 123.004 0.5974 123.028 0.647523C123.04 0.673514 123.066 0.728265 123.088 0.775002Z" fill="white"/>
<path d="M153.476 0.775002C153.451 0.828129 153.419 0.877251 153.379 0.920936L149.505 5.20125L146.293 8.69289C146.223 8.76762 146.132 8.82409 146.031 8.85895C145.855 8.91933 145.563 8.97656 145.296 8.89534C144.873 8.767 144.713 8.48172 144.713 8.48172C144.713 8.48172 144.495 8.21074 144.451 7.96828C144.435 7.87971 144.431 7.80069 144.432 7.73602C144.433 7.62791 144.466 7.52299 144.526 7.43223C144.556 7.38626 144.593 7.33494 144.631 7.29278C144.714 7.2004 145.152 6.77157 145.279 6.67118C145.335 6.62735 145.657 6.33982 145.672 6.32666L148.075 4.12195L152.518 0.273054C152.529 0.263802 152.539 0.255313 152.551 0.246824C152.6 0.209578 152.747 0.101032 152.804 0.0694609C152.856 0.0406084 152.987 0.0109921 153.085 0.00064373C153.115 -0.00255203 153.176 0.00860786 153.204 0.0145216C153.25 0.0243454 153.299 0.0474758 153.346 0.0665045C153.419 0.0958824 153.5 0.219879 153.5 0.219879C153.5 0.219879 153.56 0.355559 153.563 0.408639C153.566 0.46172 153.56 0.5974 153.536 0.647523C153.523 0.673515 153.498 0.728264 153.476 0.775002Z" fill="white"/>
<path d="M139.553 7.87725C139.553 8.50501 139.033 9.01392 138.392 9.01392C137.751 9.01392 137.231 8.50501 137.231 7.87725C137.231 7.24949 137.751 6.74058 138.392 6.74058C139.033 6.74058 139.553 7.24949 139.553 7.87725Z" fill="white"/>
<path d="M146.814 14.9944C146.814 15.6222 146.294 16.1311 145.653 16.1311C145.012 16.1311 144.492 15.6222 144.492 14.9944C144.492 14.3667 145.012 13.8578 145.653 13.8578C146.294 13.8578 146.814 14.3667 146.814 14.9944Z" fill="white"/>
<path d="M132.204 14.9944C132.204 15.6222 131.684 16.1311 131.043 16.1311C130.402 16.1311 129.882 15.6222 129.882 14.9944C129.882 14.3667 130.402 13.8578 131.043 13.8578C131.684 13.8578 132.204 14.3667 132.204 14.9944Z" fill="white"/>
<path d="M140.493 14.9943C140.493 16.1547 139.533 17.0952 138.348 17.0952C137.163 17.0952 136.203 16.1547 136.203 14.9943C136.203 13.8341 137.163 12.8935 138.348 12.8935C139.533 12.8935 140.493 13.8341 140.493 14.9943Z" fill="#FFB801"/>
<path d="M164.088 0.775002C164.112 0.828129 164.145 0.877251 164.184 0.920936L168.059 5.20125L171.27 8.69289C171.341 8.76762 171.431 8.82409 171.533 8.85895C171.709 8.91933 172.001 8.97656 172.268 8.89534C172.69 8.767 172.85 8.48172 172.85 8.48172C172.85 8.48172 173.069 8.21074 173.112 7.96828C173.128 7.87971 173.133 7.80069 173.132 7.73602C173.13 7.62791 173.098 7.52299 173.038 7.43223C173.007 7.38626 172.97 7.33494 172.932 7.29278C172.849 7.2004 172.412 6.77157 172.284 6.67118C172.229 6.62735 171.907 6.33982 171.892 6.32666L169.488 4.12195L165.045 0.273054C165.035 0.263803 165.024 0.255313 165.013 0.246824C164.963 0.209578 164.817 0.101032 164.76 0.0694609C164.708 0.0406075 164.576 0.010993 164.478 0.00064373C164.448 -0.00255203 164.387 0.00860786 164.36 0.0145216C164.313 0.0243464 164.265 0.0474758 164.218 0.0665045C164.144 0.0958824 164.064 0.219879 164.064 0.219879C164.064 0.219879 164.004 0.355559 164.001 0.408639C163.998 0.461719 164.004 0.5974 164.028 0.647523C164.04 0.673514 164.066 0.728265 164.088 0.775002Z" fill="white"/>
<path d="M194.476 0.775002C194.451 0.828129 194.419 0.877251 194.379 0.920936L190.505 5.20125L187.293 8.69289C187.223 8.76762 187.132 8.82409 187.031 8.85895C186.855 8.91933 186.563 8.97656 186.296 8.89534C185.873 8.767 185.713 8.48172 185.713 8.48172C185.713 8.48172 185.495 8.21074 185.451 7.96828C185.435 7.87971 185.431 7.80069 185.432 7.73602C185.433 7.62791 185.466 7.52299 185.526 7.43223C185.556 7.38626 185.593 7.33494 185.631 7.29278C185.714 7.2004 186.152 6.77157 186.279 6.67118C186.335 6.62735 186.657 6.33982 186.672 6.32666L189.075 4.12195L193.518 0.273054C193.529 0.263802 193.539 0.255313 193.551 0.246824C193.6 0.209578 193.747 0.101032 193.804 0.0694609C193.856 0.0406084 193.987 0.0109921 194.085 0.00064373C194.115 -0.00255203 194.176 0.00860786 194.204 0.0145216C194.25 0.0243454 194.299 0.0474758 194.346 0.0665045C194.419 0.0958824 194.5 0.219879 194.5 0.219879C194.5 0.219879 194.56 0.355559 194.563 0.408639C194.566 0.46172 194.56 0.5974 194.536 0.647523C194.523 0.673515 194.498 0.728264 194.476 0.775002Z" fill="white"/>
<path d="M180.553 7.87725C180.553 8.50501 180.033 9.01392 179.392 9.01392C178.751 9.01392 178.231 8.50501 178.231 7.87725C178.231 7.24949 178.751 6.74058 179.392 6.74058C180.033 6.74058 180.553 7.24949 180.553 7.87725Z" fill="white"/>
<path d="M187.814 14.9944C187.814 15.6222 187.294 16.1311 186.653 16.1311C186.012 16.1311 185.492 15.6222 185.492 14.9944C185.492 14.3667 186.012 13.8578 186.653 13.8578C187.294 13.8578 187.814 14.3667 187.814 14.9944Z" fill="white"/>
<path d="M173.204 14.9944C173.204 15.6222 172.684 16.1311 172.043 16.1311C171.402 16.1311 170.882 15.6222 170.882 14.9944C170.882 14.3667 171.402 13.8578 172.043 13.8578C172.684 13.8578 173.204 14.3667 173.204 14.9944Z" fill="white"/>
<path d="M181.493 14.9943C181.493 16.1547 180.533 17.0952 179.348 17.0952C178.163 17.0952 177.203 16.1547 177.203 14.9943C177.203 13.8341 178.163 12.8935 179.348 12.8935C180.533 12.8935 181.493 13.8341 181.493 14.9943Z" fill="#FFB801"/>
<path d="M205.088 0.775002C205.112 0.828129 205.145 0.877251 205.184 0.920936L209.059 5.20125L212.27 8.69289C212.341 8.76762 212.431 8.82409 212.533 8.85895C212.709 8.91933 213.001 8.97656 213.268 8.89534C213.69 8.767 213.85 8.48172 213.85 8.48172C213.85 8.48172 214.069 8.21074 214.112 7.96828C214.128 7.87971 214.133 7.80069 214.132 7.73602C214.13 7.62791 214.098 7.52299 214.038 7.43223C214.007 7.38626 213.97 7.33494 213.932 7.29278C213.849 7.2004 213.412 6.77157 213.284 6.67118C213.229 6.62735 212.907 6.33982 212.892 6.32666L210.488 4.12195L206.045 0.273054C206.035 0.263803 206.024 0.255313 206.013 0.246824C205.963 0.209578 205.817 0.101032 205.76 0.0694609C205.708 0.0406075 205.576 0.010993 205.478 0.00064373C205.448 -0.00255203 205.387 0.00860786 205.36 0.0145216C205.313 0.0243464 205.265 0.0474758 205.218 0.0665045C205.144 0.0958824 205.064 0.219879 205.064 0.219879C205.064 0.219879 205.004 0.355559 205.001 0.408639C204.998 0.461719 205.004 0.5974 205.028 0.647523C205.04 0.673514 205.066 0.728265 205.088 0.775002Z" fill="white"/>
<path d="M235.476 0.775002C235.451 0.828129 235.419 0.877251 235.379 0.920936L231.505 5.20125L228.293 8.69289C228.223 8.76762 228.132 8.82409 228.031 8.85895C227.855 8.91933 227.563 8.97656 227.296 8.89534C226.873 8.767 226.713 8.48172 226.713 8.48172C226.713 8.48172 226.495 8.21074 226.451 7.96828C226.435 7.87971 226.431 7.80069 226.432 7.73602C226.433 7.62791 226.466 7.52299 226.526 7.43223C226.556 7.38626 226.593 7.33494 226.631 7.29278C226.714 7.2004 227.152 6.77157 227.279 6.67118C227.335 6.62735 227.657 6.33982 227.672 6.32666L230.075 4.12195L234.518 0.273054C234.529 0.263802 234.539 0.255313 234.551 0.246824C234.6 0.209578 234.747 0.101032 234.804 0.0694609C234.856 0.0406084 234.987 0.0109921 235.085 0.00064373C235.115 -0.00255203 235.176 0.00860786 235.204 0.0145216C235.25 0.0243454 235.299 0.0474758 235.346 0.0665045C235.419 0.0958824 235.5 0.219879 235.5 0.219879C235.5 0.219879 235.56 0.355559 235.563 0.408639C235.566 0.46172 235.56 0.5974 235.536 0.647523C235.523 0.673515 235.498 0.728264 235.476 0.775002Z" fill="white"/>
<path d="M221.553 7.87725C221.553 8.50501 221.033 9.01392 220.392 9.01392C219.751 9.01392 219.231 8.50501 219.231 7.87725C219.231 7.24949 219.751 6.74058 220.392 6.74058C221.033 6.74058 221.553 7.24949 221.553 7.87725Z" fill="white"/>
<path d="M228.814 14.9944C228.814 15.6222 228.294 16.1311 227.653 16.1311C227.012 16.1311 226.492 15.6222 226.492 14.9944C226.492 14.3667 227.012 13.8578 227.653 13.8578C228.294 13.8578 228.814 14.3667 228.814 14.9944Z" fill="white"/>
<path d="M214.204 14.9944C214.204 15.6222 213.684 16.1311 213.043 16.1311C212.402 16.1311 211.882 15.6222 211.882 14.9944C211.882 14.3667 212.402 13.8578 213.043 13.8578C213.684 13.8578 214.204 14.3667 214.204 14.9944Z" fill="white"/>
<path d="M222.493 14.9943C222.493 16.1547 221.533 17.0952 220.348 17.0952C219.163 17.0952 218.203 16.1547 218.203 14.9943C218.203 13.8341 219.163 12.8935 220.348 12.8935C221.533 12.8935 222.493 13.8341 222.493 14.9943Z" fill="#FFB801"/>
<path d="M246.088 0.775002C246.112 0.828129 246.145 0.877251 246.184 0.920936L250.059 5.20125L253.27 8.69289C253.341 8.76762 253.431 8.82409 253.533 8.85895C253.709 8.91933 254.001 8.97656 254.268 8.89534C254.69 8.767 254.85 8.48172 254.85 8.48172C254.85 8.48172 255.069 8.21074 255.112 7.96828C255.128 7.87971 255.133 7.80069 255.132 7.73602C255.13 7.62791 255.098 7.52299 255.038 7.43223C255.007 7.38626 254.97 7.33494 254.932 7.29278C254.849 7.2004 254.412 6.77157 254.284 6.67118C254.229 6.62735 253.907 6.33982 253.892 6.32666L251.488 4.12195L247.045 0.273054C247.035 0.263803 247.024 0.255313 247.013 0.246824C246.963 0.209578 246.817 0.101032 246.76 0.0694609C246.708 0.0406075 246.576 0.010993 246.478 0.00064373C246.448 -0.00255203 246.387 0.00860786 246.36 0.0145216C246.313 0.0243464 246.265 0.0474758 246.218 0.0665045C246.144 0.0958824 246.064 0.219879 246.064 0.219879C246.064 0.219879 246.004 0.355559 246.001 0.408639C245.998 0.461719 246.004 0.5974 246.028 0.647523C246.04 0.673514 246.066 0.728265 246.088 0.775002Z" fill="white"/>
<path d="M276.476 0.775002C276.451 0.828129 276.419 0.877251 276.379 0.920936L272.505 5.20125L269.293 8.69289C269.223 8.76762 269.132 8.82409 269.031 8.85895C268.855 8.91933 268.563 8.97656 268.296 8.89534C267.873 8.767 267.713 8.48172 267.713 8.48172C267.713 8.48172 267.495 8.21074 267.451 7.96828C267.435 7.87971 267.431 7.80069 267.432 7.73602C267.433 7.62791 267.466 7.52299 267.526 7.43223C267.556 7.38626 267.593 7.33494 267.631 7.29278C267.714 7.2004 268.152 6.77157 268.279 6.67118C268.335 6.62735 268.657 6.33982 268.672 6.32666L271.075 4.12195L275.518 0.273054C275.529 0.263802 275.539 0.255313 275.551 0.246824C275.6 0.209578 275.747 0.101032 275.804 0.0694609C275.856 0.0406084 275.987 0.0109921 276.085 0.00064373C276.115 -0.00255203 276.176 0.00860786 276.204 0.0145216C276.25 0.0243454 276.299 0.0474758 276.346 0.0665045C276.419 0.0958824 276.5 0.219879 276.5 0.219879C276.5 0.219879 276.56 0.355559 276.563 0.408639C276.566 0.46172 276.56 0.5974 276.536 0.647523C276.523 0.673515 276.498 0.728264 276.476 0.775002Z" fill="white"/>
<path d="M262.553 7.87725C262.553 8.50501 262.033 9.01392 261.392 9.01392C260.751 9.01392 260.231 8.50501 260.231 7.87725C260.231 7.24949 260.751 6.74058 261.392 6.74058C262.033 6.74058 262.553 7.24949 262.553 7.87725Z" fill="white"/>
<path d="M269.814 14.9944C269.814 15.6222 269.294 16.1311 268.653 16.1311C268.012 16.1311 267.492 15.6222 267.492 14.9944C267.492 14.3667 268.012 13.8578 268.653 13.8578C269.294 13.8578 269.814 14.3667 269.814 14.9944Z" fill="white"/>
<path d="M255.204 14.9944C255.204 15.6222 254.684 16.1311 254.043 16.1311C253.402 16.1311 252.882 15.6222 252.882 14.9944C252.882 14.3667 253.402 13.8578 254.043 13.8578C254.684 13.8578 255.204 14.3667 255.204 14.9944Z" fill="white"/>
<path d="M263.493 14.9943C263.493 16.1547 262.533 17.0952 261.348 17.0952C260.163 17.0952 259.203 16.1547 259.203 14.9943C259.203 13.8341 260.163 12.8935 261.348 12.8935C262.533 12.8935 263.493 13.8341 263.493 14.9943Z" fill="#FFB801"/>
<path d="M0.0875588 27.775C0.112263 27.8281 0.144836 27.8773 0.184371 27.9209L4.05859 32.2012L7.27029 35.6929C7.34083 35.7676 7.43111 35.8241 7.53264 35.859C7.70857 35.9193 8.00054 35.9766 8.2677 35.8953C8.69005 35.767 8.85025 35.4817 8.85025 35.4817C8.85025 35.4817 9.06872 35.2107 9.1124 34.9683C9.12838 34.8797 9.13267 34.8007 9.13172 34.736C9.1301 34.6279 9.09776 34.523 9.03777 34.4322C9.00734 34.3863 8.97038 34.3349 8.93242 34.2928C8.8492 34.2004 8.41158 33.7716 8.28439 33.6712C8.22888 33.6273 7.90682 33.3398 7.8919 33.3267L5.48813 31.122L1.04529 27.2731C1.03461 27.2638 1.02411 27.2553 1.01276 27.2468C0.963021 27.2096 0.816753 27.101 0.759715 27.0695C0.707541 27.0406 0.576296 27.011 0.478481 27.0006C0.448198 26.9974 0.387487 27.0086 0.359683 27.0145C0.313375 27.0243 0.264874 27.0475 0.217564 27.0665C0.144454 27.0959 0.0639517 27.2199 0.0639517 27.2199C0.0639517 27.2199 0.00371807 27.3556 0.000713536 27.4086C-0.00229099 27.4617 0.00371807 27.5974 0.0278497 27.6475C0.040297 27.6735 0.0658594 27.7283 0.0875588 27.775Z" fill="white"/>
<path d="M30.4759 27.775C30.4512 27.8281 30.4186 27.8773 30.3791 27.9209L26.5049 32.2012L23.2932 35.6929C23.2227 35.7676 23.1324 35.8241 23.0308 35.859C22.8549 35.9193 22.5629 35.9766 22.2958 35.8953C21.8734 35.767 21.7132 35.4817 21.7132 35.4817C21.7132 35.4817 21.4948 35.2107 21.4511 34.9683C21.4351 34.8797 21.4308 34.8007 21.4318 34.736C21.4334 34.6279 21.4657 34.523 21.5257 34.4322C21.5562 34.3863 21.5931 34.3349 21.6311 34.2928C21.7143 34.2004 22.1519 33.7716 22.2791 33.6712C22.3346 33.6273 22.6567 33.3398 22.6716 33.3267L25.0754 31.122L29.5182 27.2731C29.5289 27.2638 29.5394 27.2553 29.5507 27.2468C29.6005 27.2096 29.7467 27.101 29.8038 27.0695C29.8559 27.0406 29.9872 27.011 30.085 27.0006C30.1153 26.9974 30.176 27.0086 30.2038 27.0145C30.2501 27.0243 30.2986 27.0475 30.3459 27.0665C30.419 27.0959 30.4995 27.2199 30.4995 27.2199C30.4995 27.2199 30.5598 27.3556 30.5628 27.4086C30.5658 27.4617 30.5598 27.5974 30.5357 27.6475C30.5232 27.6735 30.4976 27.7283 30.4759 27.775Z" fill="white"/>
<path d="M16.5528 34.8772C16.5528 35.505 16.0332 36.0139 15.3921 36.0139C14.7511 36.0139 14.2314 35.505 14.2314 34.8772C14.2314 34.2495 14.7511 33.7406 15.3921 33.7406C16.0332 33.7406 16.5528 34.2495 16.5528 34.8772Z" fill="white"/>
<path d="M23.8138 41.9944C23.8138 42.6222 23.2941 43.1311 22.6531 43.1311C22.0121 43.1311 21.4924 42.6222 21.4924 41.9944C21.4924 41.3667 22.0121 40.8578 22.6531 40.8578C23.2941 40.8578 23.8138 41.3667 23.8138 41.9944Z" fill="white"/>
<path d="M9.20368 41.9944C9.20368 42.6222 8.68404 43.1311 8.04298 43.1311C7.40196 43.1311 6.88232 42.6222 6.88232 41.9944C6.88232 41.3667 7.40196 40.8578 8.04298 40.8578C8.68404 40.8578 9.20368 41.3667 9.20368 41.9944Z" fill="white"/>
<path d="M17.4932 41.9943C17.4932 43.1547 16.5328 44.0952 15.348 44.0952C14.1631 44.0952 13.2026 43.1547 13.2026 41.9943C13.2026 40.8341 14.1631 39.8935 15.348 39.8935C16.5328 39.8935 17.4932 40.8341 17.4932 41.9943Z" fill="#FFB801"/>
<path d="M41.0876 27.775C41.1123 27.8281 41.1448 27.8773 41.1844 27.9209L45.0586 32.2012L48.2703 35.6929C48.3408 35.7676 48.4311 35.8241 48.5326 35.859C48.7086 35.9193 49.0005 35.9766 49.2677 35.8953C49.6901 35.767 49.8502 35.4817 49.8502 35.4817C49.8502 35.4817 50.0687 35.2107 50.1124 34.9683C50.1284 34.8797 50.1327 34.8007 50.1317 34.736C50.1301 34.6279 50.0978 34.523 50.0378 34.4322C50.0073 34.3863 49.9704 34.3349 49.9324 34.2928C49.8492 34.2004 49.4116 33.7716 49.2844 33.6712C49.2289 33.6273 48.9068 33.3398 48.8919 33.3267L46.4881 31.122L42.0453 27.2731C42.0346 27.2638 42.0241 27.2553 42.0128 27.2468C41.963 27.2096 41.8168 27.101 41.7597 27.0695C41.7075 27.0406 41.5763 27.011 41.4785 27.0006C41.4482 26.9974 41.3875 27.0086 41.3597 27.0145C41.3134 27.0243 41.2649 27.0475 41.2176 27.0665C41.1445 27.0959 41.064 27.2199 41.064 27.2199C41.064 27.2199 41.0037 27.3556 41.0007 27.4086C40.9977 27.4617 41.0037 27.5974 41.0278 27.6475C41.0403 27.6735 41.0659 27.7283 41.0876 27.775Z" fill="white"/>
<path d="M71.4759 27.775C71.4512 27.8281 71.4186 27.8773 71.3791 27.9209L67.5049 32.2012L64.2932 35.6929C64.2227 35.7676 64.1324 35.8241 64.0308 35.859C63.8549 35.9193 63.5629 35.9766 63.2958 35.8953C62.8734 35.767 62.7132 35.4817 62.7132 35.4817C62.7132 35.4817 62.4948 35.2107 62.4511 34.9683C62.4351 34.8797 62.4308 34.8007 62.4318 34.736C62.4334 34.6279 62.4657 34.523 62.5257 34.4322C62.5562 34.3863 62.5931 34.3349 62.6311 34.2928C62.7143 34.2004 63.1519 33.7716 63.2791 33.6712C63.3346 33.6273 63.6567 33.3398 63.6716 33.3267L66.0754 31.122L70.5182 27.2731C70.5289 27.2638 70.5394 27.2553 70.5507 27.2468C70.6005 27.2096 70.7467 27.101 70.8038 27.0695C70.8559 27.0406 70.9872 27.011 71.085 27.0006C71.1153 26.9974 71.176 27.0086 71.2038 27.0145C71.2501 27.0243 71.2986 27.0475 71.3459 27.0665C71.419 27.0959 71.4995 27.2199 71.4995 27.2199C71.4995 27.2199 71.5598 27.3556 71.5628 27.4086C71.5658 27.4617 71.5598 27.5974 71.5357 27.6475C71.5232 27.6735 71.4976 27.7283 71.4759 27.775Z" fill="white"/>
<path d="M57.5528 34.8772C57.5528 35.505 57.0332 36.0139 56.3921 36.0139C55.7511 36.0139 55.2314 35.505 55.2314 34.8772C55.2314 34.2495 55.7511 33.7406 56.3921 33.7406C57.0332 33.7406 57.5528 34.2495 57.5528 34.8772Z" fill="white"/>
<path d="M64.8138 41.9944C64.8138 42.6222 64.2941 43.1311 63.6531 43.1311C63.0121 43.1311 62.4924 42.6222 62.4924 41.9944C62.4924 41.3667 63.0121 40.8578 63.6531 40.8578C64.2941 40.8578 64.8138 41.3667 64.8138 41.9944Z" fill="white"/>
<path d="M50.2037 41.9944C50.2037 42.6222 49.684 43.1311 49.043 43.1311C48.402 43.1311 47.8823 42.6222 47.8823 41.9944C47.8823 41.3667 48.402 40.8578 49.043 40.8578C49.684 40.8578 50.2037 41.3667 50.2037 41.9944Z" fill="white"/>
<path d="M58.4932 41.9943C58.4932 43.1547 57.5328 44.0952 56.348 44.0952C55.1631 44.0952 54.2026 43.1547 54.2026 41.9943C54.2026 40.8341 55.1631 39.8935 56.348 39.8935C57.5328 39.8935 58.4932 40.8341 58.4932 41.9943Z" fill="#FFB801"/>
<path d="M82.0876 27.775C82.1123 27.8281 82.1448 27.8773 82.1844 27.9209L86.0586 32.2012L89.2703 35.6929C89.3408 35.7676 89.4311 35.8241 89.5326 35.859C89.7086 35.9193 90.0005 35.9766 90.2677 35.8953C90.6901 35.767 90.8502 35.4817 90.8502 35.4817C90.8502 35.4817 91.0687 35.2107 91.1124 34.9683C91.1284 34.8797 91.1327 34.8007 91.1317 34.736C91.1301 34.6279 91.0978 34.523 91.0378 34.4322C91.0073 34.3863 90.9704 34.3349 90.9324 34.2928C90.8492 34.2004 90.4116 33.7716 90.2844 33.6712C90.2289 33.6273 89.9068 33.3398 89.8919 33.3267L87.4881 31.122L83.0453 27.2731C83.0346 27.2638 83.0241 27.2553 83.0128 27.2468C82.963 27.2096 82.8168 27.101 82.7597 27.0695C82.7075 27.0406 82.5763 27.011 82.4785 27.0006C82.4482 26.9974 82.3875 27.0086 82.3597 27.0145C82.3134 27.0243 82.2649 27.0475 82.2176 27.0665C82.1445 27.0959 82.064 27.2199 82.064 27.2199C82.064 27.2199 82.0037 27.3556 82.0007 27.4086C81.9977 27.4617 82.0037 27.5974 82.0278 27.6475C82.0403 27.6735 82.0659 27.7283 82.0876 27.775Z" fill="white"/>
<path d="M112.476 27.775C112.451 27.8281 112.419 27.8773 112.379 27.9209L108.505 32.2012L105.293 35.6929C105.223 35.7676 105.132 35.8241 105.031 35.859C104.855 35.9193 104.563 35.9766 104.296 35.8953C103.873 35.767 103.713 35.4817 103.713 35.4817C103.713 35.4817 103.495 35.2107 103.451 34.9683C103.435 34.8797 103.431 34.8007 103.432 34.736C103.433 34.6279 103.466 34.523 103.526 34.4322C103.556 34.3863 103.593 34.3349 103.631 34.2928C103.714 34.2004 104.152 33.7716 104.279 33.6712C104.335 33.6273 104.657 33.3398 104.672 33.3267L107.075 31.122L111.518 27.2731C111.529 27.2638 111.539 27.2553 111.551 27.2468C111.6 27.2096 111.747 27.101 111.804 27.0695C111.856 27.0406 111.987 27.011 112.085 27.0006C112.115 26.9974 112.176 27.0086 112.204 27.0145C112.25 27.0243 112.299 27.0475 112.346 27.0665C112.419 27.0959 112.5 27.2199 112.5 27.2199C112.5 27.2199 112.56 27.3556 112.563 27.4086C112.566 27.4617 112.56 27.5974 112.536 27.6475C112.523 27.6735 112.498 27.7283 112.476 27.775Z" fill="white"/>
<path d="M98.5528 34.8772C98.5528 35.505 98.0332 36.0139 97.3921 36.0139C96.7511 36.0139 96.2314 35.505 96.2314 34.8772C96.2314 34.2495 96.7511 33.7406 97.3921 33.7406C98.0332 33.7406 98.5528 34.2495 98.5528 34.8772Z" fill="white"/>
<path d="M105.814 41.9944C105.814 42.6222 105.294 43.1311 104.653 43.1311C104.012 43.1311 103.492 42.6222 103.492 41.9944C103.492 41.3667 104.012 40.8578 104.653 40.8578C105.294 40.8578 105.814 41.3667 105.814 41.9944Z" fill="white"/>
<path d="M91.2037 41.9944C91.2037 42.6222 90.684 43.1311 90.043 43.1311C89.402 43.1311 88.8823 42.6222 88.8823 41.9944C88.8823 41.3667 89.402 40.8578 90.043 40.8578C90.684 40.8578 91.2037 41.3667 91.2037 41.9944Z" fill="white"/>
<path d="M99.4932 41.9943C99.4932 43.1547 98.5328 44.0952 97.348 44.0952C96.1631 44.0952 95.2026 43.1547 95.2026 41.9943C95.2026 40.8341 96.1631 39.8935 97.348 39.8935C98.5328 39.8935 99.4932 40.8341 99.4932 41.9943Z" fill="#FFB801"/>
<path d="M123.088 27.775C123.112 27.8281 123.145 27.8773 123.184 27.9209L127.059 32.2012L130.27 35.6929C130.341 35.7676 130.431 35.8241 130.533 35.859C130.709 35.9193 131.001 35.9766 131.268 35.8953C131.69 35.767 131.85 35.4817 131.85 35.4817C131.85 35.4817 132.069 35.2107 132.112 34.9683C132.128 34.8797 132.133 34.8007 132.132 34.736C132.13 34.6279 132.098 34.523 132.038 34.4322C132.007 34.3863 131.97 34.3349 131.932 34.2928C131.849 34.2004 131.412 33.7716 131.284 33.6712C131.229 33.6273 130.907 33.3398 130.892 33.3267L128.488 31.122L124.045 27.2731C124.035 27.2638 124.024 27.2553 124.013 27.2468C123.963 27.2096 123.817 27.101 123.76 27.0695C123.708 27.0406 123.576 27.011 123.478 27.0006C123.448 26.9974 123.387 27.0086 123.36 27.0145C123.313 27.0243 123.265 27.0475 123.218 27.0665C123.144 27.0959 123.064 27.2199 123.064 27.2199C123.064 27.2199 123.004 27.3556 123.001 27.4086C122.998 27.4617 123.004 27.5974 123.028 27.6475C123.04 27.6735 123.066 27.7283 123.088 27.775Z" fill="white"/>
<path d="M153.476 27.775C153.451 27.8281 153.419 27.8773 153.379 27.9209L149.505 32.2012L146.293 35.6929C146.223 35.7676 146.132 35.8241 146.031 35.859C145.855 35.9193 145.563 35.9766 145.296 35.8953C144.873 35.767 144.713 35.4817 144.713 35.4817C144.713 35.4817 144.495 35.2107 144.451 34.9683C144.435 34.8797 144.431 34.8007 144.432 34.736C144.433 34.6279 144.466 34.523 144.526 34.4322C144.556 34.3863 144.593 34.3349 144.631 34.2928C144.714 34.2004 145.152 33.7716 145.279 33.6712C145.335 33.6273 145.657 33.3398 145.672 33.3267L148.075 31.122L152.518 27.2731C152.529 27.2638 152.539 27.2553 152.551 27.2468C152.6 27.2096 152.747 27.101 152.804 27.0695C152.856 27.0406 152.987 27.011 153.085 27.0006C153.115 26.9974 153.176 27.0086 153.204 27.0145C153.25 27.0243 153.299 27.0475 153.346 27.0665C153.419 27.0959 153.5 27.2199 153.5 27.2199C153.5 27.2199 153.56 27.3556 153.563 27.4086C153.566 27.4617 153.56 27.5974 153.536 27.6475C153.523 27.6735 153.498 27.7283 153.476 27.775Z" fill="white"/>
<path d="M139.553 34.8772C139.553 35.505 139.033 36.0139 138.392 36.0139C137.751 36.0139 137.231 35.505 137.231 34.8772C137.231 34.2495 137.751 33.7406 138.392 33.7406C139.033 33.7406 139.553 34.2495 139.553 34.8772Z" fill="white"/>
<path d="M146.814 41.9944C146.814 42.6222 146.294 43.1311 145.653 43.1311C145.012 43.1311 144.492 42.6222 144.492 41.9944C144.492 41.3667 145.012 40.8578 145.653 40.8578C146.294 40.8578 146.814 41.3667 146.814 41.9944Z" fill="white"/>
<path d="M132.204 41.9944C132.204 42.6222 131.684 43.1311 131.043 43.1311C130.402 43.1311 129.882 42.6222 129.882 41.9944C129.882 41.3667 130.402 40.8578 131.043 40.8578C131.684 40.8578 132.204 41.3667 132.204 41.9944Z" fill="white"/>
<path d="M140.493 41.9943C140.493 43.1547 139.533 44.0952 138.348 44.0952C137.163 44.0952 136.203 43.1547 136.203 41.9943C136.203 40.8341 137.163 39.8935 138.348 39.8935C139.533 39.8935 140.493 40.8341 140.493 41.9943Z" fill="#FFB801"/>
<path d="M164.088 27.775C164.112 27.8281 164.145 27.8773 164.184 27.9209L168.059 32.2012L171.27 35.6929C171.341 35.7676 171.431 35.8241 171.533 35.859C171.709 35.9193 172.001 35.9766 172.268 35.8953C172.69 35.767 172.85 35.4817 172.85 35.4817C172.85 35.4817 173.069 35.2107 173.112 34.9683C173.128 34.8797 173.133 34.8007 173.132 34.736C173.13 34.6279 173.098 34.523 173.038 34.4322C173.007 34.3863 172.97 34.3349 172.932 34.2928C172.849 34.2004 172.412 33.7716 172.284 33.6712C172.229 33.6273 171.907 33.3398 171.892 33.3267L169.488 31.122L165.045 27.2731C165.035 27.2638 165.024 27.2553 165.013 27.2468C164.963 27.2096 164.817 27.101 164.76 27.0695C164.708 27.0406 164.576 27.011 164.478 27.0006C164.448 26.9974 164.387 27.0086 164.36 27.0145C164.313 27.0243 164.265 27.0475 164.218 27.0665C164.144 27.0959 164.064 27.2199 164.064 27.2199C164.064 27.2199 164.004 27.3556 164.001 27.4086C163.998 27.4617 164.004 27.5974 164.028 27.6475C164.04 27.6735 164.066 27.7283 164.088 27.775Z" fill="white"/>
<path d="M194.476 27.775C194.451 27.8281 194.419 27.8773 194.379 27.9209L190.505 32.2012L187.293 35.6929C187.223 35.7676 187.132 35.8241 187.031 35.859C186.855 35.9193 186.563 35.9766 186.296 35.8953C185.873 35.767 185.713 35.4817 185.713 35.4817C185.713 35.4817 185.495 35.2107 185.451 34.9683C185.435 34.8797 185.431 34.8007 185.432 34.736C185.433 34.6279 185.466 34.523 185.526 34.4322C185.556 34.3863 185.593 34.3349 185.631 34.2928C185.714 34.2004 186.152 33.7716 186.279 33.6712C186.335 33.6273 186.657 33.3398 186.672 33.3267L189.075 31.122L193.518 27.2731C193.529 27.2638 193.539 27.2553 193.551 27.2468C193.6 27.2096 193.747 27.101 193.804 27.0695C193.856 27.0406 193.987 27.011 194.085 27.0006C194.115 26.9974 194.176 27.0086 194.204 27.0145C194.25 27.0243 194.299 27.0475 194.346 27.0665C194.419 27.0959 194.5 27.2199 194.5 27.2199C194.5 27.2199 194.56 27.3556 194.563 27.4086C194.566 27.4617 194.56 27.5974 194.536 27.6475C194.523 27.6735 194.498 27.7283 194.476 27.775Z" fill="white"/>
<path d="M180.553 34.8772C180.553 35.505 180.033 36.0139 179.392 36.0139C178.751 36.0139 178.231 35.505 178.231 34.8772C178.231 34.2495 178.751 33.7406 179.392 33.7406C180.033 33.7406 180.553 34.2495 180.553 34.8772Z" fill="white"/>
<path d="M187.814 41.9944C187.814 42.6222 187.294 43.1311 186.653 43.1311C186.012 43.1311 185.492 42.6222 185.492 41.9944C185.492 41.3667 186.012 40.8578 186.653 40.8578C187.294 40.8578 187.814 41.3667 187.814 41.9944Z" fill="white"/>
<path d="M173.204 41.9944C173.204 42.6222 172.684 43.1311 172.043 43.1311C171.402 43.1311 170.882 42.6222 170.882 41.9944C170.882 41.3667 171.402 40.8578 172.043 40.8578C172.684 40.8578 173.204 41.3667 173.204 41.9944Z" fill="white"/>
<path d="M181.493 41.9943C181.493 43.1547 180.533 44.0952 179.348 44.0952C178.163 44.0952 177.203 43.1547 177.203 41.9943C177.203 40.8341 178.163 39.8935 179.348 39.8935C180.533 39.8935 181.493 40.8341 181.493 41.9943Z" fill="#FFB801"/>
<path d="M205.088 27.775C205.112 27.8281 205.145 27.8773 205.184 27.9209L209.059 32.2012L212.27 35.6929C212.341 35.7676 212.431 35.8241 212.533 35.859C212.709 35.9193 213.001 35.9766 213.268 35.8953C213.69 35.767 213.85 35.4817 213.85 35.4817C213.85 35.4817 214.069 35.2107 214.112 34.9683C214.128 34.8797 214.133 34.8007 214.132 34.736C214.13 34.6279 214.098 34.523 214.038 34.4322C214.007 34.3863 213.97 34.3349 213.932 34.2928C213.849 34.2004 213.412 33.7716 213.284 33.6712C213.229 33.6273 212.907 33.3398 212.892 33.3267L210.488 31.122L206.045 27.2731C206.035 27.2638 206.024 27.2553 206.013 27.2468C205.963 27.2096 205.817 27.101 205.76 27.0695C205.708 27.0406 205.576 27.011 205.478 27.0006C205.448 26.9974 205.387 27.0086 205.36 27.0145C205.313 27.0243 205.265 27.0475 205.218 27.0665C205.144 27.0959 205.064 27.2199 205.064 27.2199C205.064 27.2199 205.004 27.3556 205.001 27.4086C204.998 27.4617 205.004 27.5974 205.028 27.6475C205.04 27.6735 205.066 27.7283 205.088 27.775Z" fill="white"/>
<path d="M235.476 27.775C235.451 27.8281 235.419 27.8773 235.379 27.9209L231.505 32.2012L228.293 35.6929C228.223 35.7676 228.132 35.8241 228.031 35.859C227.855 35.9193 227.563 35.9766 227.296 35.8953C226.873 35.767 226.713 35.4817 226.713 35.4817C226.713 35.4817 226.495 35.2107 226.451 34.9683C226.435 34.8797 226.431 34.8007 226.432 34.736C226.433 34.6279 226.466 34.523 226.526 34.4322C226.556 34.3863 226.593 34.3349 226.631 34.2928C226.714 34.2004 227.152 33.7716 227.279 33.6712C227.335 33.6273 227.657 33.3398 227.672 33.3267L230.075 31.122L234.518 27.2731C234.529 27.2638 234.539 27.2553 234.551 27.2468C234.6 27.2096 234.747 27.101 234.804 27.0695C234.856 27.0406 234.987 27.011 235.085 27.0006C235.115 26.9974 235.176 27.0086 235.204 27.0145C235.25 27.0243 235.299 27.0475 235.346 27.0665C235.419 27.0959 235.5 27.2199 235.5 27.2199C235.5 27.2199 235.56 27.3556 235.563 27.4086C235.566 27.4617 235.56 27.5974 235.536 27.6475C235.523 27.6735 235.498 27.7283 235.476 27.775Z" fill="white"/>
<path d="M221.553 34.8772C221.553 35.505 221.033 36.0139 220.392 36.0139C219.751 36.0139 219.231 35.505 219.231 34.8772C219.231 34.2495 219.751 33.7406 220.392 33.7406C221.033 33.7406 221.553 34.2495 221.553 34.8772Z" fill="white"/>
<path d="M228.814 41.9944C228.814 42.6222 228.294 43.1311 227.653 43.1311C227.012 43.1311 226.492 42.6222 226.492 41.9944C226.492 41.3667 227.012 40.8578 227.653 40.8578C228.294 40.8578 228.814 41.3667 228.814 41.9944Z" fill="white"/>
<path d="M214.204 41.9944C214.204 42.6222 213.684 43.1311 213.043 43.1311C212.402 43.1311 211.882 42.6222 211.882 41.9944C211.882 41.3667 212.402 40.8578 213.043 40.8578C213.684 40.8578 214.204 41.3667 214.204 41.9944Z" fill="white"/>
<path d="M222.493 41.9943C222.493 43.1547 221.533 44.0952 220.348 44.0952C219.163 44.0952 218.203 43.1547 218.203 41.9943C218.203 40.8341 219.163 39.8935 220.348 39.8935C221.533 39.8935 222.493 40.8341 222.493 41.9943Z" fill="#FFB801"/>
<path d="M246.088 27.775C246.112 27.8281 246.145 27.8773 246.184 27.9209L250.059 32.2012L253.27 35.6929C253.341 35.7676 253.431 35.8241 253.533 35.859C253.709 35.9193 254.001 35.9766 254.268 35.8953C254.69 35.767 254.85 35.4817 254.85 35.4817C254.85 35.4817 255.069 35.2107 255.112 34.9683C255.128 34.8797 255.133 34.8007 255.132 34.736C255.13 34.6279 255.098 34.523 255.038 34.4322C255.007 34.3863 254.97 34.3349 254.932 34.2928C254.849 34.2004 254.412 33.7716 254.284 33.6712C254.229 33.6273 253.907 33.3398 253.892 33.3267L251.488 31.122L247.045 27.2731C247.035 27.2638 247.024 27.2553 247.013 27.2468C246.963 27.2096 246.817 27.101 246.76 27.0695C246.708 27.0406 246.576 27.011 246.478 27.0006C246.448 26.9974 246.387 27.0086 246.36 27.0145C246.313 27.0243 246.265 27.0475 246.218 27.0665C246.144 27.0959 246.064 27.2199 246.064 27.2199C246.064 27.2199 246.004 27.3556 246.001 27.4086C245.998 27.4617 246.004 27.5974 246.028 27.6475C246.04 27.6735 246.066 27.7283 246.088 27.775Z" fill="white"/>
<path d="M276.476 27.775C276.451 27.8281 276.419 27.8773 276.379 27.9209L272.505 32.2012L269.293 35.6929C269.223 35.7676 269.132 35.8241 269.031 35.859C268.855 35.9193 268.563 35.9766 268.296 35.8953C267.873 35.767 267.713 35.4817 267.713 35.4817C267.713 35.4817 267.495 35.2107 267.451 34.9683C267.435 34.8797 267.431 34.8007 267.432 34.736C267.433 34.6279 267.466 34.523 267.526 34.4322C267.556 34.3863 267.593 34.3349 267.631 34.2928C267.714 34.2004 268.152 33.7716 268.279 33.6712C268.335 33.6273 268.657 33.3398 268.672 33.3267L271.075 31.122L275.518 27.2731C275.529 27.2638 275.539 27.2553 275.551 27.2468C275.6 27.2096 275.747 27.101 275.804 27.0695C275.856 27.0406 275.987 27.011 276.085 27.0006C276.115 26.9974 276.176 27.0086 276.204 27.0145C276.25 27.0243 276.299 27.0475 276.346 27.0665C276.419 27.0959 276.5 27.2199 276.5 27.2199C276.5 27.2199 276.56 27.3556 276.563 27.4086C276.566 27.4617 276.56 27.5974 276.536 27.6475C276.523 27.6735 276.498 27.7283 276.476 27.775Z" fill="white"/>
<path d="M262.553 34.8772C262.553 35.505 262.033 36.0139 261.392 36.0139C260.751 36.0139 260.231 35.505 260.231 34.8772C260.231 34.2495 260.751 33.7406 261.392 33.7406C262.033 33.7406 262.553 34.2495 262.553 34.8772Z" fill="white"/>
<path d="M269.814 41.9944C269.814 42.6222 269.294 43.1311 268.653 43.1311C268.012 43.1311 267.492 42.6222 267.492 41.9944C267.492 41.3667 268.012 40.8578 268.653 40.8578C269.294 40.8578 269.814 41.3667 269.814 41.9944Z" fill="white"/>
<path d="M255.204 41.9944C255.204 42.6222 254.684 43.1311 254.043 43.1311C253.402 43.1311 252.882 42.6222 252.882 41.9944C252.882 41.3667 253.402 40.8578 254.043 40.8578C254.684 40.8578 255.204 41.3667 255.204 41.9944Z" fill="white"/>
<path d="M263.493 41.9943C263.493 43.1547 262.533 44.0952 261.348 44.0952C260.163 44.0952 259.203 43.1547 259.203 41.9943C259.203 40.8341 260.163 39.8935 261.348 39.8935C262.533 39.8935 263.493 40.8341 263.493 41.9943Z" fill="#FFB801"/>
<path d="M0.0875588 54.775C0.112263 54.8281 0.144836 54.8773 0.184371 54.9209L4.05859 59.2012L7.27029 62.6929C7.34083 62.7676 7.43111 62.8241 7.53264 62.859C7.70857 62.9193 8.00054 62.9766 8.2677 62.8953C8.69005 62.767 8.85025 62.4817 8.85025 62.4817C8.85025 62.4817 9.06872 62.2107 9.1124 61.9683C9.12838 61.8797 9.13267 61.8007 9.13172 61.736C9.1301 61.6279 9.09776 61.523 9.03777 61.4322C9.00734 61.3863 8.97038 61.3349 8.93242 61.2928C8.8492 61.2004 8.41158 60.7716 8.28439 60.6712C8.22888 60.6273 7.90682 60.3398 7.8919 60.3267L5.48813 58.122L1.04529 54.2731C1.03461 54.2638 1.02411 54.2553 1.01276 54.2468C0.963021 54.2096 0.816753 54.101 0.759715 54.0695C0.707541 54.0406 0.576296 54.011 0.478481 54.0006C0.448198 53.9974 0.387487 54.0086 0.359683 54.0145C0.313375 54.0243 0.264874 54.0475 0.217564 54.0665C0.144454 54.0959 0.0639517 54.2199 0.0639517 54.2199C0.0639517 54.2199 0.00371807 54.3556 0.000713536 54.4086C-0.00229099 54.4617 0.00371807 54.5974 0.0278497 54.6475C0.040297 54.6735 0.0658594 54.7283 0.0875588 54.775Z" fill="white"/>
<path d="M30.4759 54.775C30.4512 54.8281 30.4186 54.8773 30.3791 54.9209L26.5049 59.2012L23.2932 62.6929C23.2227 62.7676 23.1324 62.8241 23.0308 62.859C22.8549 62.9193 22.5629 62.9766 22.2958 62.8953C21.8734 62.767 21.7132 62.4817 21.7132 62.4817C21.7132 62.4817 21.4948 62.2107 21.4511 61.9683C21.4351 61.8797 21.4308 61.8007 21.4318 61.736C21.4334 61.6279 21.4657 61.523 21.5257 61.4322C21.5562 61.3863 21.5931 61.3349 21.6311 61.2928C21.7143 61.2004 22.1519 60.7716 22.2791 60.6712C22.3346 60.6273 22.6567 60.3398 22.6716 60.3267L25.0754 58.122L29.5182 54.2731C29.5289 54.2638 29.5394 54.2553 29.5507 54.2468C29.6005 54.2096 29.7467 54.101 29.8038 54.0695C29.8559 54.0406 29.9872 54.011 30.085 54.0006C30.1153 53.9974 30.176 54.0086 30.2038 54.0145C30.2501 54.0243 30.2986 54.0475 30.3459 54.0665C30.419 54.0959 30.4995 54.2199 30.4995 54.2199C30.4995 54.2199 30.5598 54.3556 30.5628 54.4086C30.5658 54.4617 30.5598 54.5974 30.5357 54.6475C30.5232 54.6735 30.4976 54.7283 30.4759 54.775Z" fill="white"/>
<path d="M16.5528 61.8772C16.5528 62.505 16.0332 63.0139 15.3921 63.0139C14.7511 63.0139 14.2314 62.505 14.2314 61.8772C14.2314 61.2495 14.7511 60.7406 15.3921 60.7406C16.0332 60.7406 16.5528 61.2495 16.5528 61.8772Z" fill="white"/>
<path d="M23.8138 68.9944C23.8138 69.6222 23.2941 70.1311 22.6531 70.1311C22.0121 70.1311 21.4924 69.6222 21.4924 68.9944C21.4924 68.3667 22.0121 67.8578 22.6531 67.8578C23.2941 67.8578 23.8138 68.3667 23.8138 68.9944Z" fill="white"/>
<path d="M9.20368 68.9944C9.20368 69.6222 8.68404 70.1311 8.04298 70.1311C7.40196 70.1311 6.88232 69.6222 6.88232 68.9944C6.88232 68.3667 7.40196 67.8578 8.04298 67.8578C8.68404 67.8578 9.20368 68.3667 9.20368 68.9944Z" fill="white"/>
<path d="M17.4932 68.9943C17.4932 70.1547 16.5328 71.0952 15.348 71.0952C14.1631 71.0952 13.2026 70.1547 13.2026 68.9943C13.2026 67.8341 14.1631 66.8935 15.348 66.8935C16.5328 66.8935 17.4932 67.8341 17.4932 68.9943Z" fill="#FFB801"/>
<path d="M41.0876 54.775C41.1123 54.8281 41.1448 54.8773 41.1844 54.9209L45.0586 59.2012L48.2703 62.6929C48.3408 62.7676 48.4311 62.8241 48.5326 62.859C48.7086 62.9193 49.0005 62.9766 49.2677 62.8953C49.6901 62.767 49.8502 62.4817 49.8502 62.4817C49.8502 62.4817 50.0687 62.2107 50.1124 61.9683C50.1284 61.8797 50.1327 61.8007 50.1317 61.736C50.1301 61.6279 50.0978 61.523 50.0378 61.4322C50.0073 61.3863 49.9704 61.3349 49.9324 61.2928C49.8492 61.2004 49.4116 60.7716 49.2844 60.6712C49.2289 60.6273 48.9068 60.3398 48.8919 60.3267L46.4881 58.122L42.0453 54.2731C42.0346 54.2638 42.0241 54.2553 42.0128 54.2468C41.963 54.2096 41.8168 54.101 41.7597 54.0695C41.7075 54.0406 41.5763 54.011 41.4785 54.0006C41.4482 53.9974 41.3875 54.0086 41.3597 54.0145C41.3134 54.0243 41.2649 54.0475 41.2176 54.0665C41.1445 54.0959 41.064 54.2199 41.064 54.2199C41.064 54.2199 41.0037 54.3556 41.0007 54.4086C40.9977 54.4617 41.0037 54.5974 41.0278 54.6475C41.0403 54.6735 41.0659 54.7283 41.0876 54.775Z" fill="white"/>
<path d="M71.4759 54.775C71.4512 54.8281 71.4186 54.8773 71.3791 54.9209L67.5049 59.2012L64.2932 62.6929C64.2227 62.7676 64.1324 62.8241 64.0308 62.859C63.8549 62.9193 63.5629 62.9766 63.2958 62.8953C62.8734 62.767 62.7132 62.4817 62.7132 62.4817C62.7132 62.4817 62.4948 62.2107 62.4511 61.9683C62.4351 61.8797 62.4308 61.8007 62.4318 61.736C62.4334 61.6279 62.4657 61.523 62.5257 61.4322C62.5562 61.3863 62.5931 61.3349 62.6311 61.2928C62.7143 61.2004 63.1519 60.7716 63.2791 60.6712C63.3346 60.6273 63.6567 60.3398 63.6716 60.3267L66.0754 58.122L70.5182 54.2731C70.5289 54.2638 70.5394 54.2553 70.5507 54.2468C70.6005 54.2096 70.7467 54.101 70.8038 54.0695C70.8559 54.0406 70.9872 54.011 71.085 54.0006C71.1153 53.9974 71.176 54.0086 71.2038 54.0145C71.2501 54.0243 71.2986 54.0475 71.3459 54.0665C71.419 54.0959 71.4995 54.2199 71.4995 54.2199C71.4995 54.2199 71.5598 54.3556 71.5628 54.4086C71.5658 54.4617 71.5598 54.5974 71.5357 54.6475C71.5232 54.6735 71.4976 54.7283 71.4759 54.775Z" fill="white"/>
<path d="M57.5528 61.8772C57.5528 62.505 57.0332 63.0139 56.3921 63.0139C55.7511 63.0139 55.2314 62.505 55.2314 61.8772C55.2314 61.2495 55.7511 60.7406 56.3921 60.7406C57.0332 60.7406 57.5528 61.2495 57.5528 61.8772Z" fill="white"/>
<path d="M64.8138 68.9944C64.8138 69.6222 64.2941 70.1311 63.6531 70.1311C63.0121 70.1311 62.4924 69.6222 62.4924 68.9944C62.4924 68.3667 63.0121 67.8578 63.6531 67.8578C64.2941 67.8578 64.8138 68.3667 64.8138 68.9944Z" fill="white"/>
<path d="M50.2037 68.9944C50.2037 69.6222 49.684 70.1311 49.043 70.1311C48.402 70.1311 47.8823 69.6222 47.8823 68.9944C47.8823 68.3667 48.402 67.8578 49.043 67.8578C49.684 67.8578 50.2037 68.3667 50.2037 68.9944Z" fill="white"/>
<path d="M58.4932 68.9943C58.4932 70.1547 57.5328 71.0952 56.348 71.0952C55.1631 71.0952 54.2026 70.1547 54.2026 68.9943C54.2026 67.8341 55.1631 66.8935 56.348 66.8935C57.5328 66.8935 58.4932 67.8341 58.4932 68.9943Z" fill="#FFB801"/>
<path d="M82.0876 54.775C82.1123 54.8281 82.1448 54.8773 82.1844 54.9209L86.0586 59.2012L89.2703 62.6929C89.3408 62.7676 89.4311 62.8241 89.5326 62.859C89.7086 62.9193 90.0005 62.9766 90.2677 62.8953C90.6901 62.767 90.8502 62.4817 90.8502 62.4817C90.8502 62.4817 91.0687 62.2107 91.1124 61.9683C91.1284 61.8797 91.1327 61.8007 91.1317 61.736C91.1301 61.6279 91.0978 61.523 91.0378 61.4322C91.0073 61.3863 90.9704 61.3349 90.9324 61.2928C90.8492 61.2004 90.4116 60.7716 90.2844 60.6712C90.2289 60.6273 89.9068 60.3398 89.8919 60.3267L87.4881 58.122L83.0453 54.2731C83.0346 54.2638 83.0241 54.2553 83.0128 54.2468C82.963 54.2096 82.8168 54.101 82.7597 54.0695C82.7075 54.0406 82.5763 54.011 82.4785 54.0006C82.4482 53.9974 82.3875 54.0086 82.3597 54.0145C82.3134 54.0243 82.2649 54.0475 82.2176 54.0665C82.1445 54.0959 82.064 54.2199 82.064 54.2199C82.064 54.2199 82.0037 54.3556 82.0007 54.4086C81.9977 54.4617 82.0037 54.5974 82.0278 54.6475C82.0403 54.6735 82.0659 54.7283 82.0876 54.775Z" fill="white"/>
<path d="M112.476 54.775C112.451 54.8281 112.419 54.8773 112.379 54.9209L108.505 59.2012L105.293 62.6929C105.223 62.7676 105.132 62.8241 105.031 62.859C104.855 62.9193 104.563 62.9766 104.296 62.8953C103.873 62.767 103.713 62.4817 103.713 62.4817C103.713 62.4817 103.495 62.2107 103.451 61.9683C103.435 61.8797 103.431 61.8007 103.432 61.736C103.433 61.6279 103.466 61.523 103.526 61.4322C103.556 61.3863 103.593 61.3349 103.631 61.2928C103.714 61.2004 104.152 60.7716 104.279 60.6712C104.335 60.6273 104.657 60.3398 104.672 60.3267L107.075 58.122L111.518 54.2731C111.529 54.2638 111.539 54.2553 111.551 54.2468C111.6 54.2096 111.747 54.101 111.804 54.0695C111.856 54.0406 111.987 54.011 112.085 54.0006C112.115 53.9974 112.176 54.0086 112.204 54.0145C112.25 54.0243 112.299 54.0475 112.346 54.0665C112.419 54.0959 112.5 54.2199 112.5 54.2199C112.5 54.2199 112.56 54.3556 112.563 54.4086C112.566 54.4617 112.56 54.5974 112.536 54.6475C112.523 54.6735 112.498 54.7283 112.476 54.775Z" fill="white"/>
<path d="M98.5528 61.8772C98.5528 62.505 98.0332 63.0139 97.3921 63.0139C96.7511 63.0139 96.2314 62.505 96.2314 61.8772C96.2314 61.2495 96.7511 60.7406 97.3921 60.7406C98.0332 60.7406 98.5528 61.2495 98.5528 61.8772Z" fill="white"/>
<path d="M105.814 68.9944C105.814 69.6222 105.294 70.1311 104.653 70.1311C104.012 70.1311 103.492 69.6222 103.492 68.9944C103.492 68.3667 104.012 67.8578 104.653 67.8578C105.294 67.8578 105.814 68.3667 105.814 68.9944Z" fill="white"/>
<path d="M91.2037 68.9944C91.2037 69.6222 90.684 70.1311 90.043 70.1311C89.402 70.1311 88.8823 69.6222 88.8823 68.9944C88.8823 68.3667 89.402 67.8578 90.043 67.8578C90.684 67.8578 91.2037 68.3667 91.2037 68.9944Z" fill="white"/>
<path d="M99.4932 68.9943C99.4932 70.1547 98.5328 71.0952 97.348 71.0952C96.1631 71.0952 95.2026 70.1547 95.2026 68.9943C95.2026 67.8341 96.1631 66.8935 97.348 66.8935C98.5328 66.8935 99.4932 67.8341 99.4932 68.9943Z" fill="#FFB801"/>
<path d="M123.088 54.775C123.112 54.8281 123.145 54.8773 123.184 54.9209L127.059 59.2012L130.27 62.6929C130.341 62.7676 130.431 62.8241 130.533 62.859C130.709 62.9193 131.001 62.9766 131.268 62.8953C131.69 62.767 131.85 62.4817 131.85 62.4817C131.85 62.4817 132.069 62.2107 132.112 61.9683C132.128 61.8797 132.133 61.8007 132.132 61.736C132.13 61.6279 132.098 61.523 132.038 61.4322C132.007 61.3863 131.97 61.3349 131.932 61.2928C131.849 61.2004 131.412 60.7716 131.284 60.6712C131.229 60.6273 130.907 60.3398 130.892 60.3267L128.488 58.122L124.045 54.2731C124.035 54.2638 124.024 54.2553 124.013 54.2468C123.963 54.2096 123.817 54.101 123.76 54.0695C123.708 54.0406 123.576 54.011 123.478 54.0006C123.448 53.9974 123.387 54.0086 123.36 54.0145C123.313 54.0243 123.265 54.0475 123.218 54.0665C123.144 54.0959 123.064 54.2199 123.064 54.2199C123.064 54.2199 123.004 54.3556 123.001 54.4086C122.998 54.4617 123.004 54.5974 123.028 54.6475C123.04 54.6735 123.066 54.7283 123.088 54.775Z" fill="white"/>
<path d="M153.476 54.775C153.451 54.8281 153.419 54.8773 153.379 54.9209L149.505 59.2012L146.293 62.6929C146.223 62.7676 146.132 62.8241 146.031 62.859C145.855 62.9193 145.563 62.9766 145.296 62.8953C144.873 62.767 144.713 62.4817 144.713 62.4817C144.713 62.4817 144.495 62.2107 144.451 61.9683C144.435 61.8797 144.431 61.8007 144.432 61.736C144.433 61.6279 144.466 61.523 144.526 61.4322C144.556 61.3863 144.593 61.3349 144.631 61.2928C144.714 61.2004 145.152 60.7716 145.279 60.6712C145.335 60.6273 145.657 60.3398 145.672 60.3267L148.075 58.122L152.518 54.2731C152.529 54.2638 152.539 54.2553 152.551 54.2468C152.6 54.2096 152.747 54.101 152.804 54.0695C152.856 54.0406 152.987 54.011 153.085 54.0006C153.115 53.9974 153.176 54.0086 153.204 54.0145C153.25 54.0243 153.299 54.0475 153.346 54.0665C153.419 54.0959 153.5 54.2199 153.5 54.2199C153.5 54.2199 153.56 54.3556 153.563 54.4086C153.566 54.4617 153.56 54.5974 153.536 54.6475C153.523 54.6735 153.498 54.7283 153.476 54.775Z" fill="white"/>
<path d="M139.553 61.8772C139.553 62.505 139.033 63.0139 138.392 63.0139C137.751 63.0139 137.231 62.505 137.231 61.8772C137.231 61.2495 137.751 60.7406 138.392 60.7406C139.033 60.7406 139.553 61.2495 139.553 61.8772Z" fill="white"/>
<path d="M146.814 68.9944C146.814 69.6222 146.294 70.1311 145.653 70.1311C145.012 70.1311 144.492 69.6222 144.492 68.9944C144.492 68.3667 145.012 67.8578 145.653 67.8578C146.294 67.8578 146.814 68.3667 146.814 68.9944Z" fill="white"/>
<path d="M132.204 68.9944C132.204 69.6222 131.684 70.1311 131.043 70.1311C130.402 70.1311 129.882 69.6222 129.882 68.9944C129.882 68.3667 130.402 67.8578 131.043 67.8578C131.684 67.8578 132.204 68.3667 132.204 68.9944Z" fill="white"/>
<path d="M140.493 68.9943C140.493 70.1547 139.533 71.0952 138.348 71.0952C137.163 71.0952 136.203 70.1547 136.203 68.9943C136.203 67.8341 137.163 66.8935 138.348 66.8935C139.533 66.8935 140.493 67.8341 140.493 68.9943Z" fill="#FFB801"/>
<path d="M164.088 54.775C164.112 54.8281 164.145 54.8773 164.184 54.9209L168.059 59.2012L171.27 62.6929C171.341 62.7676 171.431 62.8241 171.533 62.859C171.709 62.9193 172.001 62.9766 172.268 62.8953C172.69 62.767 172.85 62.4817 172.85 62.4817C172.85 62.4817 173.069 62.2107 173.112 61.9683C173.128 61.8797 173.133 61.8007 173.132 61.736C173.13 61.6279 173.098 61.523 173.038 61.4322C173.007 61.3863 172.97 61.3349 172.932 61.2928C172.849 61.2004 172.412 60.7716 172.284 60.6712C172.229 60.6273 171.907 60.3398 171.892 60.3267L169.488 58.122L165.045 54.2731C165.035 54.2638 165.024 54.2553 165.013 54.2468C164.963 54.2096 164.817 54.101 164.76 54.0695C164.708 54.0406 164.576 54.011 164.478 54.0006C164.448 53.9974 164.387 54.0086 164.36 54.0145C164.313 54.0243 164.265 54.0475 164.218 54.0665C164.144 54.0959 164.064 54.2199 164.064 54.2199C164.064 54.2199 164.004 54.3556 164.001 54.4086C163.998 54.4617 164.004 54.5974 164.028 54.6475C164.04 54.6735 164.066 54.7283 164.088 54.775Z" fill="white"/>
<path d="M194.476 54.775C194.451 54.8281 194.419 54.8773 194.379 54.9209L190.505 59.2012L187.293 62.6929C187.223 62.7676 187.132 62.8241 187.031 62.859C186.855 62.9193 186.563 62.9766 186.296 62.8953C185.873 62.767 185.713 62.4817 185.713 62.4817C185.713 62.4817 185.495 62.2107 185.451 61.9683C185.435 61.8797 185.431 61.8007 185.432 61.736C185.433 61.6279 185.466 61.523 185.526 61.4322C185.556 61.3863 185.593 61.3349 185.631 61.2928C185.714 61.2004 186.152 60.7716 186.279 60.6712C186.335 60.6273 186.657 60.3398 186.672 60.3267L189.075 58.122L193.518 54.2731C193.529 54.2638 193.539 54.2553 193.551 54.2468C193.6 54.2096 193.747 54.101 193.804 54.0695C193.856 54.0406 193.987 54.011 194.085 54.0006C194.115 53.9974 194.176 54.0086 194.204 54.0145C194.25 54.0243 194.299 54.0475 194.346 54.0665C194.419 54.0959 194.5 54.2199 194.5 54.2199C194.5 54.2199 194.56 54.3556 194.563 54.4086C194.566 54.4617 194.56 54.5974 194.536 54.6475C194.523 54.6735 194.498 54.7283 194.476 54.775Z" fill="white"/>
<path d="M180.553 61.8772C180.553 62.505 180.033 63.0139 179.392 63.0139C178.751 63.0139 178.231 62.505 178.231 61.8772C178.231 61.2495 178.751 60.7406 179.392 60.7406C180.033 60.7406 180.553 61.2495 180.553 61.8772Z" fill="white"/>
<path d="M187.814 68.9944C187.814 69.6222 187.294 70.1311 186.653 70.1311C186.012 70.1311 185.492 69.6222 185.492 68.9944C185.492 68.3667 186.012 67.8578 186.653 67.8578C187.294 67.8578 187.814 68.3667 187.814 68.9944Z" fill="white"/>
<path d="M173.204 68.9944C173.204 69.6222 172.684 70.1311 172.043 70.1311C171.402 70.1311 170.882 69.6222 170.882 68.9944C170.882 68.3667 171.402 67.8578 172.043 67.8578C172.684 67.8578 173.204 68.3667 173.204 68.9944Z" fill="white"/>
<path d="M181.493 68.9943C181.493 70.1547 180.533 71.0952 179.348 71.0952C178.163 71.0952 177.203 70.1547 177.203 68.9943C177.203 67.8341 178.163 66.8935 179.348 66.8935C180.533 66.8935 181.493 67.8341 181.493 68.9943Z" fill="#FFB801"/>
<path d="M205.088 54.775C205.112 54.8281 205.145 54.8773 205.184 54.9209L209.059 59.2012L212.27 62.6929C212.341 62.7676 212.431 62.8241 212.533 62.859C212.709 62.9193 213.001 62.9766 213.268 62.8953C213.69 62.767 213.85 62.4817 213.85 62.4817C213.85 62.4817 214.069 62.2107 214.112 61.9683C214.128 61.8797 214.133 61.8007 214.132 61.736C214.13 61.6279 214.098 61.523 214.038 61.4322C214.007 61.3863 213.97 61.3349 213.932 61.2928C213.849 61.2004 213.412 60.7716 213.284 60.6712C213.229 60.6273 212.907 60.3398 212.892 60.3267L210.488 58.122L206.045 54.2731C206.035 54.2638 206.024 54.2553 206.013 54.2468C205.963 54.2096 205.817 54.101 205.76 54.0695C205.708 54.0406 205.576 54.011 205.478 54.0006C205.448 53.9974 205.387 54.0086 205.36 54.0145C205.313 54.0243 205.265 54.0475 205.218 54.0665C205.144 54.0959 205.064 54.2199 205.064 54.2199C205.064 54.2199 205.004 54.3556 205.001 54.4086C204.998 54.4617 205.004 54.5974 205.028 54.6475C205.04 54.6735 205.066 54.7283 205.088 54.775Z" fill="white"/>
<path d="M235.476 54.775C235.451 54.8281 235.419 54.8773 235.379 54.9209L231.505 59.2012L228.293 62.6929C228.223 62.7676 228.132 62.8241 228.031 62.859C227.855 62.9193 227.563 62.9766 227.296 62.8953C226.873 62.767 226.713 62.4817 226.713 62.4817C226.713 62.4817 226.495 62.2107 226.451 61.9683C226.435 61.8797 226.431 61.8007 226.432 61.736C226.433 61.6279 226.466 61.523 226.526 61.4322C226.556 61.3863 226.593 61.3349 226.631 61.2928C226.714 61.2004 227.152 60.7716 227.279 60.6712C227.335 60.6273 227.657 60.3398 227.672 60.3267L230.075 58.122L234.518 54.2731C234.529 54.2638 234.539 54.2553 234.551 54.2468C234.6 54.2096 234.747 54.101 234.804 54.0695C234.856 54.0406 234.987 54.011 235.085 54.0006C235.115 53.9974 235.176 54.0086 235.204 54.0145C235.25 54.0243 235.299 54.0475 235.346 54.0665C235.419 54.0959 235.5 54.2199 235.5 54.2199C235.5 54.2199 235.56 54.3556 235.563 54.4086C235.566 54.4617 235.56 54.5974 235.536 54.6475C235.523 54.6735 235.498 54.7283 235.476 54.775Z" fill="white"/>
<path d="M221.553 61.8772C221.553 62.505 221.033 63.0139 220.392 63.0139C219.751 63.0139 219.231 62.505 219.231 61.8772C219.231 61.2495 219.751 60.7406 220.392 60.7406C221.033 60.7406 221.553 61.2495 221.553 61.8772Z" fill="white"/>
<path d="M228.814 68.9944C228.814 69.6222 228.294 70.1311 227.653 70.1311C227.012 70.1311 226.492 69.6222 226.492 68.9944C226.492 68.3667 227.012 67.8578 227.653 67.8578C228.294 67.8578 228.814 68.3667 228.814 68.9944Z" fill="white"/>
<path d="M214.204 68.9944C214.204 69.6222 213.684 70.1311 213.043 70.1311C212.402 70.1311 211.882 69.6222 211.882 68.9944C211.882 68.3667 212.402 67.8578 213.043 67.8578C213.684 67.8578 214.204 68.3667 214.204 68.9944Z" fill="white"/>
<path d="M222.493 68.9943C222.493 70.1547 221.533 71.0952 220.348 71.0952C219.163 71.0952 218.203 70.1547 218.203 68.9943C218.203 67.8341 219.163 66.8935 220.348 66.8935C221.533 66.8935 222.493 67.8341 222.493 68.9943Z" fill="#FFB801"/>
<path d="M246.088 54.775C246.112 54.8281 246.145 54.8773 246.184 54.9209L250.059 59.2012L253.27 62.6929C253.341 62.7676 253.431 62.8241 253.533 62.859C253.709 62.9193 254.001 62.9766 254.268 62.8953C254.69 62.767 254.85 62.4817 254.85 62.4817C254.85 62.4817 255.069 62.2107 255.112 61.9683C255.128 61.8797 255.133 61.8007 255.132 61.736C255.13 61.6279 255.098 61.523 255.038 61.4322C255.007 61.3863 254.97 61.3349 254.932 61.2928C254.849 61.2004 254.412 60.7716 254.284 60.6712C254.229 60.6273 253.907 60.3398 253.892 60.3267L251.488 58.122L247.045 54.2731C247.035 54.2638 247.024 54.2553 247.013 54.2468C246.963 54.2096 246.817 54.101 246.76 54.0695C246.708 54.0406 246.576 54.011 246.478 54.0006C246.448 53.9974 246.387 54.0086 246.36 54.0145C246.313 54.0243 246.265 54.0475 246.218 54.0665C246.144 54.0959 246.064 54.2199 246.064 54.2199C246.064 54.2199 246.004 54.3556 246.001 54.4086C245.998 54.4617 246.004 54.5974 246.028 54.6475C246.04 54.6735 246.066 54.7283 246.088 54.775Z" fill="white"/>
<path d="M276.476 54.775C276.451 54.8281 276.419 54.8773 276.379 54.9209L272.505 59.2012L269.293 62.6929C269.223 62.7676 269.132 62.8241 269.031 62.859C268.855 62.9193 268.563 62.9766 268.296 62.8953C267.873 62.767 267.713 62.4817 267.713 62.4817C267.713 62.4817 267.495 62.2107 267.451 61.9683C267.435 61.8797 267.431 61.8007 267.432 61.736C267.433 61.6279 267.466 61.523 267.526 61.4322C267.556 61.3863 267.593 61.3349 267.631 61.2928C267.714 61.2004 268.152 60.7716 268.279 60.6712C268.335 60.6273 268.657 60.3398 268.672 60.3267L271.075 58.122L275.518 54.2731C275.529 54.2638 275.539 54.2553 275.551 54.2468C275.6 54.2096 275.747 54.101 275.804 54.0695C275.856 54.0406 275.987 54.011 276.085 54.0006C276.115 53.9974 276.176 54.0086 276.204 54.0145C276.25 54.0243 276.299 54.0475 276.346 54.0665C276.419 54.0959 276.5 54.2199 276.5 54.2199C276.5 54.2199 276.56 54.3556 276.563 54.4086C276.566 54.4617 276.56 54.5974 276.536 54.6475C276.523 54.6735 276.498 54.7283 276.476 54.775Z" fill="white"/>
<path d="M262.553 61.8772C262.553 62.505 262.033 63.0139 261.392 63.0139C260.751 63.0139 260.231 62.505 260.231 61.8772C260.231 61.2495 260.751 60.7406 261.392 60.7406C262.033 60.7406 262.553 61.2495 262.553 61.8772Z" fill="white"/>
<path d="M269.814 68.9944C269.814 69.6222 269.294 70.1311 268.653 70.1311C268.012 70.1311 267.492 69.6222 267.492 68.9944C267.492 68.3667 268.012 67.8578 268.653 67.8578C269.294 67.8578 269.814 68.3667 269.814 68.9944Z" fill="white"/>
<path d="M255.204 68.9944C255.204 69.6222 254.684 70.1311 254.043 70.1311C253.402 70.1311 252.882 69.6222 252.882 68.9944C252.882 68.3667 253.402 67.8578 254.043 67.8578C254.684 67.8578 255.204 68.3667 255.204 68.9944Z" fill="white"/>
<path d="M263.493 68.9943C263.493 70.1547 262.533 71.0952 261.348 71.0952C260.163 71.0952 259.203 70.1547 259.203 68.9943C259.203 67.8341 260.163 66.8935 261.348 66.8935C262.533 66.8935 263.493 67.8341 263.493 68.9943Z" fill="#FFB801"/>
</g>
</svg>
