<svg width="311" height="60" viewBox="0 0 311 60" fill="none" xmlns="http://www.w3.org/2000/svg">
<path d="M0.175123 1.54985C0.224531 1.65611 0.289677 1.75435 0.368749 1.84172L8.11719 10.4023L14.5406 17.3856C14.6817 17.5351 14.8622 17.648 15.0653 17.7178C15.4172 17.8385 16.0011 17.953 16.5354 17.7905C17.3801 17.5339 17.7005 16.9633 17.7005 16.9633C17.7005 16.9633 18.1374 16.4213 18.2248 15.9364C18.2568 15.7593 18.2654 15.6012 18.2634 15.4719C18.2602 15.2557 18.1955 15.0458 18.0755 14.8643C18.0147 14.7724 17.9408 14.6697 17.8648 14.5854C17.6984 14.4007 16.8232 13.543 16.5688 13.3422C16.4578 13.2545 15.8137 12.6795 15.7838 12.6532L10.9763 8.24375L2.09058 0.545956C2.06922 0.527451 2.04823 0.510473 2.02553 0.493496C1.92605 0.419003 1.63351 0.201912 1.51944 0.138769C1.41509 0.0810642 1.1526 0.0218315 0.956969 0.00113487C0.896401 -0.00525665 0.77498 0.0170631 0.719372 0.0288906C0.626757 0.0485382 0.529753 0.094799 0.435134 0.132856C0.288914 0.191612 0.127909 0.439606 0.127909 0.439606C0.127909 0.439606 0.00744186 0.710966 0.0014328 0.817125C-0.00457627 0.923286 0.00744186 1.19465 0.0557051 1.29489C0.0805998 1.34688 0.131724 1.45638 0.175123 1.54985Z" fill="white"/>
<path d="M60.9517 1.54985C60.9023 1.65611 60.8371 1.75435 60.758 1.84172L53.0096 10.4023L46.5862 17.3856C46.4451 17.5351 46.2646 17.648 46.0615 17.7178C45.7096 17.8385 45.1257 17.953 44.5914 17.7905C43.7467 17.5339 43.4263 16.9633 43.4263 16.9633C43.4263 16.9633 42.9893 16.4213 42.902 15.9364C42.87 15.7593 42.8614 15.6012 42.8633 15.4719C42.8666 15.2557 42.9313 15.0458 43.0512 14.8643C43.1122 14.7724 43.186 14.6697 43.2619 14.5854C43.4284 14.4007 44.3036 13.543 44.558 13.3422C44.669 13.2545 45.3131 12.6795 45.3431 12.6532L50.1505 8.24375L59.0362 0.545956C59.0576 0.527451 59.0786 0.510473 59.1013 0.493496C59.2007 0.419003 59.4933 0.201912 59.6074 0.138769C59.7117 0.0810642 59.9742 0.0218315 60.1698 0.00113487C60.2304 -0.00525665 60.3518 0.0170631 60.4074 0.0288906C60.5 0.0485382 60.597 0.094799 60.6917 0.132856C60.8379 0.191612 60.9989 0.439606 60.9989 0.439606C60.9989 0.439606 61.1193 0.710966 61.1254 0.817125C61.1314 0.923286 61.1193 1.19465 61.0712 1.29489C61.0462 1.34688 60.9951 1.45638 60.9517 1.54985Z" fill="white"/>
<path d="M61.1511 58.4502C61.1017 58.3439 61.0365 58.2457 60.9574 58.1583L53.209 49.5977L46.7856 42.6144C46.6445 42.4649 46.464 42.352 46.2609 42.2823C45.909 42.1615 45.3251 42.047 44.7908 42.2095C43.9461 42.4662 43.6257 43.0367 43.6257 43.0367C43.6257 43.0367 43.1887 43.5787 43.1014 44.0636C43.0694 44.2407 43.0608 44.3988 43.0627 44.5281C43.066 44.7443 43.1307 44.9542 43.2506 45.1357C43.3116 45.2276 43.3854 45.3303 43.4613 45.4146C43.6278 45.5994 44.503 46.457 44.7574 46.6578C44.8684 46.7455 45.5125 47.3205 45.5425 47.3467L50.3499 51.7563L59.2356 59.4541C59.257 59.4726 59.278 59.4895 59.3007 59.5065C59.4001 59.581 59.6927 59.7981 59.8068 59.8612C59.9111 59.9189 60.1736 59.9782 60.3692 59.9989C60.4298 60.0053 60.5512 59.9829 60.6068 59.9711C60.6994 59.9515 60.7964 59.9052 60.8911 59.8671C61.0373 59.8084 61.1983 59.5604 61.1983 59.5604C61.1983 59.5604 61.3187 59.289 61.3248 59.1829C61.3308 59.0767 61.3187 58.8054 61.2705 58.7051C61.2456 58.6531 61.1945 58.5436 61.1511 58.4502Z" fill="white"/>
<path d="M0.175123 58.4502C0.224531 58.3439 0.289677 58.2457 0.368749 58.1583L8.11719 49.5977L14.5406 42.6144C14.6817 42.4649 14.8622 42.352 15.0653 42.2823C15.4172 42.1615 16.0011 42.047 16.5354 42.2095C17.3801 42.4662 17.7005 43.0367 17.7005 43.0367C17.7005 43.0367 18.1374 43.5787 18.2248 44.0636C18.2568 44.2407 18.2654 44.3988 18.2634 44.5281C18.2602 44.7443 18.1955 44.9542 18.0755 45.1357C18.0147 45.2276 17.9408 45.3303 17.8648 45.4146C17.6984 45.5994 16.8232 46.457 16.5688 46.6578C16.4578 46.7455 15.8137 47.3205 15.7838 47.3467L10.9763 51.7563L2.09058 59.4541C2.06922 59.4726 2.04823 59.4895 2.02553 59.5065C1.92605 59.581 1.63351 59.7981 1.51944 59.8612C1.41509 59.9189 1.1526 59.9782 0.956969 59.9989C0.896401 60.0053 0.77498 59.9829 0.719372 59.9711C0.626757 59.9515 0.529753 59.9052 0.435134 59.8671C0.288914 59.8084 0.127909 59.5604 0.127909 59.5604C0.127909 59.5604 0.00744186 59.289 0.0014328 59.1829C-0.00457627 59.0767 0.00744186 58.8054 0.0557051 58.7051C0.0805998 58.6531 0.131724 58.5436 0.175123 58.4502Z" fill="white"/>
<path d="M33.1058 15.7542C33.1058 17.0097 32.0665 18.0275 30.7844 18.0275C29.5024 18.0275 28.4631 17.0097 28.4631 15.7542C28.4631 14.4987 29.5024 13.4809 30.7844 13.4809C32.0665 13.4809 33.1058 14.4987 33.1058 15.7542Z" fill="white"/>
<path d="M47.6277 29.9887C47.6277 31.2442 46.5884 32.262 45.3063 32.262C44.0243 32.262 42.985 31.2442 42.985 29.9887C42.985 28.7332 44.0243 27.7154 45.3063 27.7154C46.5884 27.7154 47.6277 28.7332 47.6277 29.9887Z" fill="white"/>
<path d="M18.4073 29.9887C18.4073 31.2442 17.368 32.262 16.0859 32.262C14.8038 32.262 13.7646 31.2442 13.7646 29.9887C13.7646 28.7332 14.8038 27.7154 16.0859 27.7154C17.368 27.7154 18.4073 28.7332 18.4073 29.9887Z" fill="white"/>
<path d="M32.9923 44.2926C32.9923 45.5481 31.953 46.5659 30.6709 46.5659C29.3888 46.5659 28.3496 45.5481 28.3496 44.2926C28.3496 43.0371 29.3888 42.0193 30.6709 42.0193C31.953 42.0193 32.9923 43.0371 32.9923 44.2926Z" fill="white"/>
<path d="M34.9867 29.9887C34.9867 32.3093 33.0657 34.1905 30.6961 34.1905C28.3265 34.1905 26.4055 32.3093 26.4055 29.9887C26.4055 27.6681 28.3265 25.7869 30.6961 25.7869C33.0657 25.7869 34.9867 27.6681 34.9867 29.9887Z" fill="#FFB801"/>
<path d="M78.1015 35.9548C78.3861 36.0066 78.7354 36.0583 79.1493 36.1101C79.5633 36.136 79.9514 36.1489 80.3136 36.1489C81.1933 36.1489 81.9953 36.0195 82.7198 35.7608C83.4701 35.5021 84.1039 35.101 84.6214 34.5577C85.1647 34.0144 85.5787 33.3158 85.8633 32.462C86.1738 31.5824 86.329 30.5345 86.329 29.3185C86.329 26.99 85.7857 25.2436 84.699 24.0793C83.6124 22.8892 82.1635 22.2941 80.3524 22.2941C79.9902 22.2941 79.6151 22.307 79.227 22.3329C78.8647 22.3588 78.4896 22.3976 78.1015 22.4493V35.9548ZM80.2748 41.6209C79.835 41.6209 79.3305 41.608 78.7613 41.5821C78.1921 41.5563 77.597 41.5045 76.976 41.4269C76.381 41.3493 75.773 41.2458 75.152 41.1164C74.557 41.0129 74.0007 40.8577 73.4832 40.6507C72.0603 40.1074 71.3488 39.163 71.3488 37.8177V19.6939C71.3488 19.1506 71.4911 18.7366 71.7757 18.452C72.0861 18.1416 72.5001 17.8958 73.0175 17.7147C74.1301 17.3524 75.3073 17.1196 76.5491 17.0161C77.791 16.8867 78.9036 16.8221 79.8867 16.8221C81.9048 16.8221 83.7288 17.0678 85.3588 17.5594C87.0146 18.051 88.4247 18.8142 89.5889 19.8492C90.7791 20.8582 91.6976 22.1389 92.3444 23.6912C92.9912 25.2436 93.3146 27.0805 93.3146 29.2021C93.3146 31.2719 93.0041 33.083 92.3832 34.6353C91.7622 36.1618 90.8696 37.4555 89.7054 38.5162C88.567 39.5511 87.1957 40.3273 85.5916 40.8448C83.9875 41.3622 82.2152 41.6209 80.2748 41.6209ZM103.289 40.9612C103.03 41.0388 102.616 41.1164 102.047 41.194C101.504 41.2717 100.935 41.3105 100.34 41.3105C99.7704 41.3105 99.253 41.2717 98.7873 41.194C98.3474 41.1164 97.9723 40.9612 97.6618 40.7283C97.3513 40.4955 97.1055 40.185 96.9244 39.7969C96.7692 39.383 96.6916 38.8526 96.6916 38.2058V26.5631C96.6916 25.968 96.7951 25.4635 97.002 25.0495C97.2349 24.6097 97.5583 24.2216 97.9723 23.8853C98.3862 23.5489 98.8907 23.2514 99.4858 22.9927C100.107 22.7081 100.767 22.4623 101.465 22.2553C102.164 22.0483 102.888 21.8931 103.638 21.7896C104.389 21.6602 105.139 21.5956 105.889 21.5956C107.131 21.5956 108.114 21.8413 108.839 22.3329C109.563 22.7986 109.925 23.5748 109.925 24.6615C109.925 25.0237 109.874 25.3859 109.77 25.7481C109.667 26.0844 109.537 26.3949 109.382 26.6795C108.839 26.6795 108.282 26.7054 107.713 26.7571C107.144 26.8089 106.588 26.8865 106.045 26.99C105.501 27.0935 104.984 27.2099 104.492 27.3393C104.026 27.4428 103.625 27.5721 103.289 27.7274V40.9612ZM131.448 31.5694C131.448 33.1735 131.202 34.6095 130.711 35.8772C130.219 37.1191 129.52 38.167 128.615 39.0207C127.735 39.8745 126.674 40.5214 125.433 40.9612C124.191 41.401 122.807 41.6209 121.28 41.6209C119.754 41.6209 118.369 41.3881 117.127 40.9224C115.886 40.4567 114.812 39.7969 113.906 38.9431C113.027 38.0635 112.341 37.0027 111.849 35.7608C111.358 34.5189 111.112 33.1218 111.112 31.5694C111.112 30.043 111.358 28.6588 111.849 27.4169C112.341 26.175 113.027 25.1272 113.906 24.2734C114.812 23.3937 115.886 22.721 117.127 22.2553C118.369 21.7896 119.754 21.5567 121.28 21.5567C122.807 21.5567 124.191 21.8025 125.433 22.2941C126.674 22.7598 127.735 23.4325 128.615 24.3122C129.52 25.166 130.219 26.2138 130.711 27.4557C131.202 28.6976 131.448 30.0688 131.448 31.5694ZM117.865 31.5694C117.865 33.1477 118.162 34.3637 118.757 35.2175C119.378 36.0454 120.232 36.4594 121.319 36.4594C122.405 36.4594 123.233 36.0325 123.803 35.1787C124.398 34.3249 124.695 33.1218 124.695 31.5694C124.695 30.0171 124.398 28.8269 123.803 27.999C123.208 27.1452 122.367 26.7183 121.28 26.7183C120.193 26.7183 119.353 27.1452 118.757 27.999C118.162 28.8269 117.865 30.0171 117.865 31.5694ZM146.62 29.0469C146.62 28.2448 146.387 27.6627 145.921 27.3005C145.481 26.9124 144.873 26.7183 144.097 26.7183C143.58 26.7183 143.062 26.783 142.545 26.9124C142.053 27.0417 141.626 27.2358 141.264 27.4945V40.9612C141.005 41.0388 140.591 41.1164 140.022 41.194C139.479 41.2717 138.91 41.3105 138.315 41.3105C137.746 41.3105 137.228 41.2717 136.762 41.194C136.323 41.1164 135.947 40.9612 135.637 40.7283C135.326 40.4955 135.081 40.185 134.9 39.7969C134.744 39.383 134.667 38.8526 134.667 38.2058V26.5631C134.667 25.8645 134.809 25.2953 135.094 24.8555C135.404 24.4157 135.818 24.0146 136.335 23.6524C137.215 23.0315 138.315 22.527 139.634 22.1389C140.98 21.7508 142.467 21.5567 144.097 21.5567C147.021 21.5567 149.272 22.2036 150.85 23.4972C152.428 24.7649 153.217 26.5372 153.217 28.814V40.9612C152.959 41.0388 152.545 41.1164 151.975 41.194C151.432 41.2717 150.863 41.3105 150.268 41.3105C149.699 41.3105 149.181 41.2717 148.715 41.194C148.276 41.1164 147.901 40.9612 147.59 40.7283C147.28 40.4955 147.034 40.185 146.853 39.7969C146.697 39.383 146.62 38.8526 146.62 38.2058V29.0469ZM167.266 41.6209C165.74 41.6209 164.317 41.414 162.997 41C161.704 40.5602 160.565 39.9134 159.582 39.0596C158.625 38.2058 157.862 37.132 157.293 35.8384C156.749 34.5448 156.478 33.0312 156.478 31.2978C156.478 29.5902 156.749 28.1284 157.293 26.9124C157.862 25.6705 158.599 24.6615 159.505 23.8853C160.41 23.0832 161.445 22.5011 162.609 22.1389C163.774 21.7508 164.964 21.5567 166.18 21.5567C167.551 21.5567 168.793 21.7637 169.905 22.1777C171.044 22.5916 172.014 23.1608 172.816 23.8853C173.644 24.6097 174.278 25.4764 174.718 26.4855C175.183 27.4945 175.416 28.5941 175.416 29.7842C175.416 30.6639 175.171 31.3366 174.679 31.8023C174.187 32.268 173.502 32.5655 172.622 32.6949L163.036 34.1308C163.321 34.9846 163.903 35.6314 164.783 36.0713C165.662 36.4852 166.671 36.6922 167.81 36.6922C168.871 36.6922 169.867 36.5628 170.798 36.3041C171.755 36.0195 172.532 35.6961 173.127 35.3339C173.541 35.5926 173.89 35.9548 174.174 36.4206C174.459 36.8863 174.601 37.3778 174.601 37.8953C174.601 39.0596 174.058 39.9263 172.971 40.4955C172.143 40.9353 171.212 41.2329 170.177 41.3881C169.142 41.5433 168.172 41.6209 167.266 41.6209ZM166.18 26.369C165.559 26.369 165.016 26.4725 164.55 26.6795C164.11 26.8865 163.748 27.1582 163.463 27.4945C163.179 27.805 162.959 28.1672 162.803 28.5812C162.674 28.9692 162.596 29.3703 162.571 29.7842L169.207 28.6976C169.129 28.1801 168.845 27.6627 168.353 27.1452C167.862 26.6278 167.137 26.369 166.18 26.369Z" fill="white"/>
<path d="M201.332 40.2239C200.97 40.5343 200.401 40.806 199.624 41.0388C198.874 41.2717 198.046 41.3881 197.141 41.3881C196.054 41.3881 195.123 41.2329 194.346 40.9224C193.57 40.5861 193.04 40.1333 192.755 39.5641C192.471 38.969 192.121 38.2058 191.707 37.2744C191.293 36.3171 190.854 35.2563 190.388 34.092C189.948 32.9278 189.482 31.6988 188.991 30.4052C188.525 29.0857 188.072 27.7533 187.632 26.4079C187.193 25.0625 186.779 23.743 186.391 22.4494C186.002 21.1558 185.666 19.9397 185.382 18.8013C185.744 18.4391 186.261 18.1157 186.934 17.8311C187.632 17.5207 188.37 17.3654 189.146 17.3654C190.103 17.3654 190.879 17.5724 191.475 17.9864C192.095 18.3744 192.548 19.1118 192.833 20.1985C193.531 22.734 194.23 25.166 194.928 27.4945C195.653 29.7972 196.403 32.2033 197.179 34.713H197.412C198.111 32.281 198.822 29.629 199.547 26.7572C200.297 23.8853 201.009 21.0264 201.681 18.1804C202.147 17.9475 202.639 17.7535 203.156 17.5983C203.699 17.443 204.307 17.3654 204.98 17.3654C205.937 17.3654 206.752 17.5853 207.425 18.0252C208.098 18.4391 208.434 19.1377 208.434 20.1208C208.434 20.69 208.292 21.518 208.007 22.6046C207.748 23.6913 207.399 24.9202 206.959 26.2915C206.545 27.6368 206.067 29.0469 205.523 30.5216C205.006 31.9964 204.475 33.3935 203.932 34.713C203.415 36.0066 202.923 37.158 202.457 38.167C201.992 39.1501 201.617 39.8358 201.332 40.2239ZM220.022 41.621C218.495 41.621 217.072 41.414 215.753 41C214.459 40.5602 213.321 39.9134 212.338 39.0596C211.38 38.2058 210.617 37.1321 210.048 35.8384C209.505 34.5448 209.233 33.0313 209.233 31.2978C209.233 29.5902 209.505 28.1284 210.048 26.9124C210.617 25.6705 211.354 24.6615 212.26 23.8853C213.166 23.0833 214.2 22.5011 215.365 22.1389C216.529 21.7508 217.719 21.5568 218.935 21.5568C220.306 21.5568 221.548 21.7638 222.661 22.1777C223.799 22.5917 224.769 23.1609 225.571 23.8853C226.399 24.6097 227.033 25.4765 227.473 26.4855C227.939 27.4945 228.172 28.5941 228.172 29.7843C228.172 30.6639 227.926 31.3366 227.434 31.8023C226.943 32.268 226.257 32.5656 225.377 32.6949L215.792 34.1309C216.076 34.9847 216.658 35.6315 217.538 36.0713C218.418 36.4853 219.427 36.6922 220.565 36.6922C221.626 36.6922 222.622 36.5629 223.553 36.3042C224.511 36.0196 225.287 35.6961 225.882 35.3339C226.296 35.5927 226.645 35.9549 226.93 36.4206C227.214 36.8863 227.357 37.3779 227.357 37.8953C227.357 39.0596 226.813 39.9263 225.727 40.4955C224.899 40.9353 223.967 41.2329 222.932 41.3881C221.898 41.5434 220.927 41.621 220.022 41.621ZM218.935 26.3691C218.314 26.3691 217.771 26.4726 217.305 26.6795C216.865 26.8865 216.503 27.1582 216.219 27.4945C215.934 27.805 215.714 28.1672 215.559 28.5812C215.429 28.9693 215.352 29.3703 215.326 29.7843L221.962 28.6976C221.885 28.1802 221.6 27.6627 221.108 27.1453C220.617 26.6278 219.892 26.3691 218.935 26.3691ZM237.945 40.9612C237.686 41.0388 237.272 41.1165 236.703 41.1941C236.16 41.2717 235.59 41.3105 234.995 41.3105C234.426 41.3105 233.909 41.2717 233.443 41.1941C233.003 41.1165 232.628 40.9612 232.318 40.7284C232.007 40.4955 231.761 40.185 231.58 39.797C231.425 39.383 231.347 38.8526 231.347 38.2058V26.5631C231.347 25.9681 231.451 25.4635 231.658 25.0496C231.891 24.6097 232.214 24.2217 232.628 23.8853C233.042 23.549 233.546 23.2514 234.142 22.9927C234.762 22.7081 235.422 22.4623 236.121 22.2553C236.819 22.0484 237.544 21.8931 238.294 21.7896C239.044 21.6603 239.795 21.5956 240.545 21.5956C241.787 21.5956 242.77 21.8414 243.494 22.333C244.219 22.7987 244.581 23.5748 244.581 24.6615C244.581 25.0237 244.529 25.3859 244.426 25.7481C244.322 26.0845 244.193 26.395 244.038 26.6795C243.494 26.6795 242.938 26.7054 242.369 26.7572C241.8 26.8089 241.244 26.8865 240.7 26.99C240.157 27.0935 239.639 27.2099 239.148 27.3393C238.682 27.4428 238.281 27.5722 237.945 27.7274V40.9612ZM263.215 35.3727C263.215 37.3391 262.477 38.8785 261.002 39.991C259.528 41.1035 257.354 41.6598 254.483 41.6598C253.396 41.6598 252.387 41.5822 251.455 41.4269C250.524 41.2717 249.722 41.0388 249.049 40.7284C248.402 40.392 247.885 39.9781 247.497 39.4865C247.135 38.9949 246.954 38.4128 246.954 37.7401C246.954 37.1191 247.083 36.6017 247.342 36.1877C247.6 35.7479 247.911 35.3857 248.273 35.1011C249.023 35.515 249.877 35.8902 250.835 36.2265C251.818 36.537 252.943 36.6922 254.211 36.6922C255.013 36.6922 255.621 36.5758 256.035 36.343C256.475 36.1101 256.695 35.7996 256.695 35.4115C256.695 35.0493 256.539 34.7647 256.229 34.5578C255.918 34.3508 255.401 34.1826 254.677 34.0532L253.512 33.8204C251.261 33.3806 249.58 32.6949 248.467 31.7635C247.381 30.8062 246.837 29.4479 246.837 27.6886C246.837 26.7313 247.044 25.8646 247.458 25.0884C247.872 24.3122 248.454 23.6654 249.205 23.1479C249.955 22.6305 250.847 22.2295 251.882 21.9449C252.943 21.6603 254.107 21.518 255.375 21.518C256.332 21.518 257.225 21.5956 258.053 21.7508C258.907 21.8802 259.644 22.0872 260.265 22.3718C260.886 22.6564 261.378 23.0315 261.74 23.4972C262.102 23.9371 262.283 24.4674 262.283 25.0884C262.283 25.6835 262.167 26.2009 261.934 26.6407C261.727 27.0547 261.455 27.404 261.119 27.6886C260.912 27.5592 260.601 27.4299 260.187 27.3005C259.774 27.1453 259.321 27.0159 258.829 26.9124C258.338 26.783 257.833 26.6795 257.316 26.6019C256.824 26.5243 256.371 26.4855 255.957 26.4855C255.104 26.4855 254.444 26.589 253.978 26.796C253.512 26.9771 253.279 27.2746 253.279 27.6886C253.279 27.9732 253.409 28.206 253.668 28.3871C253.926 28.5682 254.418 28.7364 255.142 28.8917L256.345 29.1633C258.829 29.7325 260.588 30.5216 261.623 31.5307C262.684 32.5138 263.215 33.7945 263.215 35.3727ZM276.568 41.621C275.041 41.621 273.618 41.414 272.299 41C271.005 40.5602 269.867 39.9134 268.883 39.0596C267.926 38.2058 267.163 37.1321 266.594 35.8384C266.05 34.5448 265.779 33.0313 265.779 31.2978C265.779 29.5902 266.05 28.1284 266.594 26.9124C267.163 25.6705 267.9 24.6615 268.806 23.8853C269.711 23.0833 270.746 22.5011 271.91 22.1389C273.075 21.7508 274.265 21.5568 275.481 21.5568C276.852 21.5568 278.094 21.7638 279.207 22.1777C280.345 22.5917 281.315 23.1609 282.117 23.8853C282.945 24.6097 283.579 25.4765 284.019 26.4855C284.485 27.4945 284.717 28.5941 284.717 29.7843C284.717 30.6639 284.472 31.3366 283.98 31.8023C283.488 32.268 282.803 32.5656 281.923 32.6949L272.337 34.1309C272.622 34.9847 273.204 35.6315 274.084 36.0713C274.963 36.4853 275.972 36.6922 277.111 36.6922C278.172 36.6922 279.168 36.5629 280.099 36.3042C281.056 36.0196 281.833 35.6961 282.428 35.3339C282.842 35.5927 283.191 35.9549 283.476 36.4206C283.76 36.8863 283.902 37.3779 283.902 37.8953C283.902 39.0596 283.359 39.9263 282.272 40.4955C281.445 40.9353 280.513 41.2329 279.478 41.3881C278.443 41.5434 277.473 41.621 276.568 41.621ZM275.481 26.3691C274.86 26.3691 274.317 26.4726 273.851 26.6795C273.411 26.8865 273.049 27.1582 272.764 27.4945C272.48 27.805 272.26 28.1672 272.105 28.5812C271.975 28.9693 271.898 29.3703 271.872 29.7843L278.508 28.6976C278.43 28.1802 278.146 27.6627 277.654 27.1453C277.163 26.6278 276.438 26.3691 275.481 26.3691Z" fill="#FFB801"/>
<path d="M197.529 55.6472H194.893L194.407 56.9915H193.574L195.76 50.9815H196.67L198.847 56.9915H198.015L197.529 55.6472ZM197.303 55.0055L196.211 51.9528L195.118 55.0055H197.303ZM206.209 53.8781C206.428 53.9128 206.628 54.0024 206.807 54.1469C206.992 54.2915 207.136 54.4707 207.241 54.6846C207.35 54.8985 207.405 55.1269 207.405 55.3697C207.405 55.6761 207.327 55.9537 207.171 56.2023C207.015 56.4451 206.787 56.6388 206.486 56.7833C206.191 56.9221 205.841 56.9915 205.437 56.9915H203.182V50.9468H205.35C205.76 50.9468 206.11 51.0162 206.399 51.1549C206.688 51.2879 206.905 51.47 207.05 51.7013C207.194 51.9326 207.267 52.1927 207.267 52.4818C207.267 52.8403 207.168 53.138 206.972 53.3751C206.781 53.6063 206.526 53.774 206.209 53.8781ZM203.971 53.5572H205.298C205.668 53.5572 205.954 53.4705 206.156 53.297C206.359 53.1236 206.46 52.8836 206.46 52.5772C206.46 52.2708 206.359 52.0309 206.156 51.8574C205.954 51.684 205.662 51.5972 205.281 51.5972H203.971V53.5572ZM205.367 56.341C205.76 56.341 206.067 56.2485 206.287 56.0635C206.506 55.8785 206.616 55.6212 206.616 55.2917C206.616 54.9563 206.5 54.6933 206.269 54.5025C206.038 54.3059 205.729 54.2076 205.341 54.2076H203.971V56.341H205.367ZM214.623 57.0522C214.062 57.0522 213.551 56.9221 213.088 56.6619C212.626 56.396 212.258 56.0288 211.987 55.5605C211.721 55.0864 211.588 54.5545 211.588 53.9648C211.588 53.3751 211.721 52.8461 211.987 52.3777C212.258 51.9037 212.626 51.5365 213.088 51.2764C213.551 51.0104 214.062 50.8774 214.623 50.8774C215.19 50.8774 215.704 51.0104 216.167 51.2764C216.629 51.5365 216.994 51.9008 217.26 52.3691C217.526 52.8374 217.658 53.3693 217.658 53.9648C217.658 54.5603 217.526 55.0922 217.26 55.5605C216.994 56.0288 216.629 56.396 216.167 56.6619C215.704 56.9221 215.19 57.0522 214.623 57.0522ZM214.623 56.367C215.045 56.367 215.424 56.2688 215.759 56.0722C216.1 55.8756 216.366 55.5952 216.557 55.231C216.754 54.8667 216.852 54.4447 216.852 53.9648C216.852 53.4791 216.754 53.0571 216.557 52.6986C216.366 52.3344 216.103 52.054 215.768 51.8574C215.433 51.6608 215.051 51.5625 214.623 51.5625C214.195 51.5625 213.814 51.6608 213.478 51.8574C213.143 52.054 212.877 52.3344 212.681 52.6986C212.49 53.0571 212.394 53.4791 212.394 53.9648C212.394 54.4447 212.49 54.8667 212.681 55.231C212.877 55.5952 213.143 55.8756 213.478 56.0722C213.82 56.2688 214.201 56.367 214.623 56.367ZM227.078 50.9468L224.797 56.9915H223.886L221.606 50.9468H222.447L224.346 56.1589L226.245 50.9468H227.078ZM232.115 51.5886V53.6092H234.317V54.2597H232.115V56.341H234.578V56.9915H231.325V50.9381H234.578V51.5886H232.115ZM249.488 56.9915L248.699 56.1936C248.404 56.5 248.089 56.7284 247.753 56.8787C247.418 57.0233 247.039 57.0955 246.617 57.0955C246.201 57.0955 245.831 57.0204 245.507 56.87C245.189 56.7197 244.941 56.5058 244.761 56.2283C244.588 55.9508 244.501 55.627 244.501 55.257C244.501 54.8349 244.62 54.4649 244.857 54.1469C245.1 53.8231 245.455 53.5688 245.924 53.3837C245.739 53.164 245.606 52.9617 245.525 52.7767C245.444 52.5917 245.403 52.3893 245.403 52.1696C245.403 51.9152 245.467 51.6868 245.594 51.4845C245.727 51.2764 245.915 51.1145 246.158 50.9988C246.401 50.8832 246.681 50.8254 246.999 50.8254C247.311 50.8254 247.583 50.8861 247.814 51.0075C248.045 51.1289 248.219 51.2995 248.335 51.5192C248.45 51.7331 248.502 51.973 248.491 52.239H247.701C247.707 52.0019 247.641 51.8169 247.502 51.684C247.363 51.5452 247.184 51.4758 246.964 51.4758C246.733 51.4758 246.545 51.5423 246.401 51.6753C246.262 51.8025 246.192 51.9673 246.192 52.1696C246.192 52.3431 246.239 52.5107 246.331 52.6726C246.429 52.8345 246.591 53.034 246.817 53.271L248.621 55.0835L248.777 54.8407L249.367 53.8521H250.216L249.505 55.0835C249.407 55.257 249.291 55.4391 249.158 55.6299L250.52 56.9915H249.488ZM246.617 56.4191C246.93 56.4191 247.21 56.3584 247.459 56.237C247.713 56.1155 247.953 55.9276 248.178 55.6733L246.401 53.8867C245.661 54.17 245.291 54.6181 245.291 55.231C245.291 55.5721 245.412 55.8554 245.655 56.0809C245.903 56.3063 246.224 56.4191 246.617 56.4191ZM263.363 53.8781C263.582 53.9128 263.782 54.0024 263.961 54.1469C264.146 54.2915 264.29 54.4707 264.395 54.6846C264.504 54.8985 264.559 55.1269 264.559 55.3697C264.559 55.6761 264.481 55.9537 264.325 56.2023C264.169 56.4451 263.941 56.6388 263.64 56.7833C263.345 56.9221 262.995 56.9915 262.591 56.9915H260.336V50.9468H262.504C262.914 50.9468 263.264 51.0162 263.553 51.1549C263.842 51.2879 264.059 51.47 264.204 51.7013C264.348 51.9326 264.421 52.1927 264.421 52.4818C264.421 52.8403 264.322 53.138 264.126 53.3751C263.935 53.6063 263.681 53.774 263.363 53.8781ZM261.125 53.5572H262.452C262.822 53.5572 263.108 53.4705 263.31 53.297C263.513 53.1236 263.614 52.8836 263.614 52.5772C263.614 52.2708 263.513 52.0309 263.31 51.8574C263.108 51.684 262.816 51.5972 262.435 51.5972H261.125V53.5572ZM262.521 56.341C262.914 56.341 263.221 56.2485 263.441 56.0635C263.66 55.8785 263.77 55.6212 263.77 55.2917C263.77 54.9563 263.654 54.6933 263.423 54.5025C263.192 54.3059 262.883 54.2076 262.495 54.2076H261.125V56.341H262.521ZM269.826 51.5886V53.6092H272.029V54.2597H269.826V56.341H272.289V56.9915H269.037V50.9381H272.289V51.5886H269.826ZM281.097 50.9468L279.129 54.7106V56.9915H278.34V54.7106L276.362 50.9468H277.238L278.73 54.0082L280.221 50.9468H281.097ZM288.052 57.0522C287.492 57.0522 286.98 56.9221 286.517 56.6619C286.055 56.396 285.688 56.0288 285.416 55.5605C285.15 55.0864 285.017 54.5545 285.017 53.9648C285.017 53.3751 285.15 52.8461 285.416 52.3777C285.688 51.9037 286.055 51.5365 286.517 51.2764C286.98 51.0104 287.492 50.8774 288.052 50.8774C288.619 50.8774 289.134 51.0104 289.596 51.2764C290.059 51.5365 290.423 51.9008 290.689 52.3691C290.955 52.8374 291.088 53.3693 291.088 53.9648C291.088 54.5603 290.955 55.0922 290.689 55.5605C290.423 56.0288 290.059 56.396 289.596 56.6619C289.134 56.9221 288.619 57.0522 288.052 57.0522ZM288.052 56.367C288.475 56.367 288.853 56.2688 289.189 56.0722C289.53 55.8756 289.796 55.5952 289.986 55.231C290.183 54.8667 290.281 54.4447 290.281 53.9648C290.281 53.4791 290.183 53.0571 289.986 52.6986C289.796 52.3344 289.533 52.054 289.197 51.8574C288.862 51.6608 288.48 51.5625 288.052 51.5625C287.625 51.5625 287.243 51.6608 286.908 51.8574C286.572 52.054 286.306 52.3344 286.11 52.6986C285.919 53.0571 285.824 53.4791 285.824 53.9648C285.824 54.4447 285.919 54.8667 286.11 55.231C286.306 55.5952 286.572 55.8756 286.908 56.0722C287.249 56.2688 287.63 56.367 288.052 56.367ZM300.264 56.9915H299.475L296.301 52.1783V56.9915H295.512V50.9381H296.301L299.475 55.7426V50.9381H300.264V56.9915ZM306.874 50.9468C307.533 50.9468 308.102 51.0711 308.582 51.3197C309.068 51.5625 309.438 51.9123 309.692 52.3691C309.952 52.8258 310.083 53.3635 310.083 53.9821C310.083 54.6008 309.952 55.1385 309.692 55.5952C309.438 56.0462 309.068 56.3931 308.582 56.6359C308.102 56.8729 307.533 56.9915 306.874 56.9915H304.992V50.9468H306.874ZM306.874 56.341C307.654 56.341 308.25 56.1358 308.66 55.7253C309.071 55.309 309.276 54.728 309.276 53.9821C309.276 53.2305 309.068 52.6437 308.652 52.2216C308.241 51.7996 307.648 51.5886 306.874 51.5886H305.781V56.341H306.874Z" fill="white"/>
</svg>
