<svg width="101" height="126" viewBox="0 0 101 126" fill="none" xmlns="http://www.w3.org/2000/svg">
<g filter="url(#filter0_d_2720_1627)">
<path d="M50.2124 0.00523493C66.6274 -0.304765 82.1074 12.0152 85.5324 28.0652C88.2824 39.3602 84.9124 51.6902 77.2524 60.3502C70.8024 67.9152 64.0374 75.2552 57.5774 82.8202L55.4974 85.2302L50.3124 91.0202C48.0374 88.4452 43.9274 83.6102 41.6624 81.0302C41.9624 82.7802 42.3224 82.2152 41.6374 81.0302C34.6674 73.0802 27.4074 65.3552 20.7024 57.2052C10.9924 44.1602 11.9524 24.6352 22.8024 12.5452C29.5624 4.63523 39.8474 -0.0197651 50.2124 0.00523493Z" fill="black"/>
<circle cx="49.9998" cy="35.9995" r="30" fill="#FFB801"/>
<path d="M34.0909 20.8257C34.1167 20.8824 34.1507 20.9348 34.1919 20.9814L38.2351 25.547L41.5868 29.2714C41.6604 29.3512 41.7546 29.4114 41.8606 29.4486C42.0442 29.513 42.3489 29.574 42.6277 29.4874C43.0685 29.3505 43.2356 29.0462 43.2356 29.0462C43.2356 29.0462 43.4636 28.7571 43.5092 28.4985C43.5259 28.4041 43.5304 28.3198 43.5294 28.2508C43.5277 28.1355 43.4939 28.0235 43.4313 27.9267C43.3996 27.8777 43.361 27.823 43.3214 27.778C43.2345 27.6795 42.7778 27.222 42.6451 27.1149C42.5872 27.0682 42.2511 26.7615 42.2355 26.7475L39.7269 24.3958L35.0904 20.2903C35.0792 20.2804 35.0683 20.2714 35.0564 20.2623C35.0045 20.2226 34.8519 20.1068 34.7924 20.0731C34.7379 20.0423 34.6009 20.0107 34.4989 19.9997C34.4673 19.9963 34.4039 20.0082 34.3749 20.0145C34.3266 20.025 34.2759 20.0497 34.2266 20.07C34.1503 20.1013 34.0663 20.2336 34.0663 20.2336C34.0663 20.2336 34.0034 20.3783 34.0003 20.4349C33.9971 20.4915 34.0034 20.6363 34.0286 20.6897C34.0416 20.7174 34.0682 20.7758 34.0909 20.8257Z" fill="black"/>
<path d="M65.8043 20.8257C65.7786 20.8824 65.7446 20.9348 65.7033 20.9814L61.6602 25.547L58.3084 29.2714C58.2348 29.3512 58.1406 29.4114 58.0347 29.4486C57.851 29.513 57.5464 29.574 57.2675 29.4874C56.8268 29.3505 56.6596 29.0462 56.6596 29.0462C56.6596 29.0462 56.4316 28.7571 56.386 28.4985C56.3693 28.4041 56.3649 28.3198 56.3659 28.2508C56.3675 28.1355 56.4013 28.0235 56.4639 27.9267C56.4957 27.8777 56.5342 27.823 56.5738 27.778C56.6607 27.6795 57.1174 27.222 57.2501 27.1149C57.3081 27.0682 57.6442 26.7615 57.6598 26.7475L60.1683 24.3958L64.8049 20.2903C64.816 20.2804 64.827 20.2714 64.8388 20.2623C64.8907 20.2226 65.0434 20.1068 65.1029 20.0731C65.1573 20.0423 65.2943 20.0107 65.3964 19.9997C65.428 19.9963 65.4913 20.0082 65.5204 20.0145C65.5687 20.025 65.6193 20.0497 65.6687 20.07C65.745 20.1013 65.829 20.2336 65.829 20.2336C65.829 20.2336 65.8918 20.3783 65.895 20.4349C65.8981 20.4915 65.8918 20.6363 65.8667 20.6897C65.8537 20.7174 65.827 20.7758 65.8043 20.8257Z" fill="black"/>
<path d="M65.9079 51.1724C65.8821 51.1158 65.8481 51.0634 65.8068 51.0168L61.7637 46.4511L58.412 42.7267C58.3383 42.647 58.2441 42.5867 58.1382 42.5496C57.9546 42.4852 57.6499 42.4241 57.3711 42.5107C56.9303 42.6476 56.7631 42.9519 56.7631 42.9519C56.7631 42.9519 56.5351 43.241 56.4895 43.4996C56.4729 43.5941 56.4684 43.6784 56.4694 43.7474C56.4711 43.8627 56.5048 43.9746 56.5674 44.0714C56.5992 44.1204 56.6377 44.1752 56.6774 44.2201C56.7642 44.3187 57.2209 44.7761 57.3536 44.8832C57.4116 44.9299 57.7477 45.2366 57.7633 45.2506L60.2718 47.6024L64.9084 51.7079C64.9195 51.7177 64.9305 51.7268 64.9423 51.7358C64.9942 51.7756 65.1469 51.8913 65.2064 51.925C65.2608 51.9558 65.3978 51.9874 65.4999 51.9984C65.5315 52.0018 65.5948 51.9899 65.6239 51.9836C65.6722 51.9731 65.7228 51.9485 65.7722 51.9282C65.8485 51.8968 65.9325 51.7646 65.9325 51.7646C65.9325 51.7646 65.9954 51.6198 65.9985 51.5632C66.0016 51.5066 65.9954 51.3619 65.9702 51.3084C65.9572 51.2807 65.9305 51.2223 65.9079 51.1724Z" fill="black"/>
<path d="M34.0909 51.1724C34.1167 51.1158 34.1507 51.0634 34.1919 51.0168L38.2351 46.4511L41.5868 42.7267C41.6604 42.647 41.7546 42.5867 41.8606 42.5496C42.0442 42.4852 42.3489 42.4241 42.6277 42.5107C43.0685 42.6476 43.2356 42.9519 43.2356 42.9519C43.2356 42.9519 43.4636 43.241 43.5092 43.4996C43.5259 43.5941 43.5304 43.6784 43.5294 43.7474C43.5277 43.8627 43.4939 43.9746 43.4313 44.0714C43.3996 44.1204 43.361 44.1752 43.3214 44.2201C43.2345 44.3187 42.7778 44.7761 42.6451 44.8832C42.5872 44.9299 42.2511 45.2366 42.2355 45.2506L39.7269 47.6024L35.0904 51.7079C35.0792 51.7177 35.0683 51.7268 35.0564 51.7358C35.0045 51.7756 34.8519 51.8913 34.7924 51.925C34.7379 51.9558 34.6009 51.9874 34.4989 51.9984C34.4673 52.0018 34.4039 51.9899 34.3749 51.9836C34.3266 51.9731 34.2759 51.9485 34.2266 51.9282C34.1503 51.8968 34.0663 51.7646 34.0663 51.7646C34.0663 51.7646 34.0034 51.6198 34.0003 51.5632C33.9971 51.5066 34.0034 51.3619 34.0286 51.3084C34.0416 51.2807 34.0682 51.2223 34.0909 51.1724Z" fill="black"/>
<path d="M51.2746 28.4018C51.2746 29.0714 50.7323 29.6143 50.0633 29.6143C49.3943 29.6143 48.8521 29.0714 48.8521 28.4018C48.8521 27.7322 49.3943 27.1894 50.0633 27.1894C50.7323 27.1894 51.2746 27.7322 51.2746 28.4018Z" fill="black"/>
<path d="M58.8518 35.9936C58.8518 36.6632 58.3095 37.2061 57.6405 37.2061C56.9715 37.2061 56.4292 36.6632 56.4292 35.9936C56.4292 35.324 56.9715 34.7812 57.6405 34.7812C58.3095 34.7812 58.8518 35.324 58.8518 35.9936Z" fill="black"/>
<path d="M43.6047 35.9936C43.6047 36.6632 43.0624 37.2061 42.3934 37.2061C41.7244 37.2061 41.1821 36.6632 41.1821 35.9936C41.1821 35.324 41.7244 34.7812 42.3934 34.7812C43.0624 34.7812 43.6047 35.324 43.6047 35.9936Z" fill="black"/>
<path d="M51.215 43.6225C51.215 44.2921 50.6728 44.835 50.0037 44.835C49.3348 44.835 48.7925 44.2921 48.7925 43.6225C48.7925 42.9529 49.3348 42.4101 50.0037 42.4101C50.6728 42.4101 51.215 42.9529 51.215 43.6225Z" fill="black"/>
<path d="M52.2555 35.9925C52.2555 37.2301 51.2531 38.2334 50.0167 38.2334C48.7802 38.2334 47.7778 37.2301 47.7778 35.9925C47.7778 34.7548 48.7802 33.7515 50.0167 33.7515C51.2531 33.7515 52.2555 34.7548 52.2555 35.9925Z" fill="white"/>
</g>
<path d="M29.1348 113.277C29.5401 113.341 29.9081 113.506 30.2388 113.773C30.5801 114.039 30.8468 114.37 31.0388 114.765C31.2414 115.159 31.3428 115.581 31.3428 116.029C31.3428 116.594 31.1988 117.106 30.9108 117.565C30.6228 118.013 30.2014 118.37 29.6468 118.637C29.1028 118.893 28.4574 119.021 27.7108 119.021H23.5508V107.869H27.5508C28.3081 107.869 28.9534 107.997 29.4868 108.253C30.0201 108.498 30.4201 108.834 30.6868 109.261C30.9534 109.687 31.0868 110.167 31.0868 110.701C31.0868 111.362 30.9054 111.911 30.5428 112.349C30.1908 112.775 29.7214 113.085 29.1348 113.277ZM25.0068 112.685H27.4548C28.1374 112.685 28.6654 112.525 29.0388 112.205C29.4121 111.885 29.5988 111.442 29.5988 110.877C29.5988 110.311 29.4121 109.869 29.0388 109.549C28.6654 109.229 28.1268 109.069 27.4228 109.069H25.0068V112.685ZM27.5828 117.821C28.3081 117.821 28.8734 117.65 29.2788 117.309C29.6841 116.967 29.8868 116.493 29.8868 115.885C29.8868 115.266 29.6734 114.781 29.2468 114.429C28.8201 114.066 28.2494 113.885 27.5348 113.885H25.0068V117.821H27.5828ZM37.7153 110.093C38.3766 110.093 38.9739 110.237 39.5073 110.525C40.0406 110.802 40.4566 111.223 40.7553 111.789C41.0646 112.354 41.2193 113.042 41.2193 113.853V119.021H39.7793V114.061C39.7793 113.186 39.5606 112.519 39.1233 112.061C38.6859 111.591 38.0886 111.357 37.3313 111.357C36.5633 111.357 35.9499 111.597 35.4913 112.077C35.0433 112.557 34.8193 113.255 34.8193 114.173V119.021H33.3633V107.181H34.8193V111.501C35.1073 111.053 35.5019 110.706 36.0033 110.461C36.5153 110.215 37.0859 110.093 37.7153 110.093ZM47.4217 119.165C46.6003 119.165 45.8537 118.978 45.1817 118.605C44.5203 118.231 43.9977 117.703 43.6137 117.021C43.2403 116.327 43.0537 115.527 43.0537 114.621C43.0537 113.725 43.2457 112.935 43.6297 112.253C44.0243 111.559 44.5577 111.031 45.2297 110.669C45.9017 110.295 46.6537 110.109 47.4857 110.109C48.3177 110.109 49.0697 110.295 49.7417 110.669C50.4137 111.031 50.9417 111.554 51.3257 112.237C51.7203 112.919 51.9177 113.714 51.9177 114.621C51.9177 115.527 51.715 116.327 51.3097 117.021C50.915 117.703 50.3763 118.231 49.6937 118.605C49.011 118.978 48.2537 119.165 47.4217 119.165ZM47.4217 117.885C47.9443 117.885 48.435 117.762 48.8937 117.517C49.3523 117.271 49.7203 116.903 49.9977 116.413C50.2857 115.922 50.4297 115.325 50.4297 114.621C50.4297 113.917 50.291 113.319 50.0137 112.829C49.7363 112.338 49.3737 111.975 48.9257 111.741C48.4777 111.495 47.9923 111.373 47.4697 111.373C46.9363 111.373 46.4457 111.495 45.9977 111.741C45.5603 111.975 45.2083 112.338 44.9417 112.829C44.675 113.319 44.5417 113.917 44.5417 114.621C44.5417 115.335 44.6697 115.938 44.9257 116.429C45.1923 116.919 45.5443 117.287 45.9817 117.533C46.419 117.767 46.899 117.885 47.4217 117.885ZM55.288 111.869C55.576 111.367 56.0027 110.951 56.568 110.621C57.144 110.279 57.8107 110.109 58.568 110.109C59.3467 110.109 60.0507 110.295 60.68 110.669C61.32 111.042 61.8214 111.57 62.184 112.253C62.5467 112.925 62.728 113.709 62.728 114.605C62.728 115.49 62.5467 116.279 62.184 116.973C61.8214 117.666 61.32 118.205 60.68 118.589C60.0507 118.973 59.3467 119.165 58.568 119.165C57.8214 119.165 57.16 118.999 56.584 118.669C56.0187 118.327 55.5867 117.906 55.288 117.405V123.181H53.832V110.253H55.288V111.869ZM61.24 114.605C61.24 113.943 61.1067 113.367 60.84 112.877C60.5734 112.386 60.2107 112.013 59.752 111.757C59.304 111.501 58.808 111.373 58.264 111.373C57.7307 111.373 57.2347 111.506 56.776 111.773C56.328 112.029 55.9654 112.407 55.688 112.909C55.4214 113.399 55.288 113.97 55.288 114.621C55.288 115.282 55.4214 115.863 55.688 116.365C55.9654 116.855 56.328 117.234 56.776 117.501C57.2347 117.757 57.7307 117.885 58.264 117.885C58.808 117.885 59.304 117.757 59.752 117.501C60.2107 117.234 60.5734 116.855 60.84 116.365C61.1067 115.863 61.24 115.277 61.24 114.605ZM64.1005 114.605C64.1005 113.709 64.2819 112.925 64.6445 112.253C65.0072 111.57 65.5032 111.042 66.1325 110.669C66.7725 110.295 67.4819 110.109 68.2605 110.109C69.0285 110.109 69.6952 110.274 70.2605 110.605C70.8259 110.935 71.2472 111.351 71.5245 111.853V110.253H72.9965V119.021H71.5245V117.389C71.2365 117.901 70.8045 118.327 70.2285 118.669C69.6632 118.999 69.0019 119.165 68.2445 119.165C67.4659 119.165 66.7619 118.973 66.1325 118.589C65.5032 118.205 65.0072 117.666 64.6445 116.973C64.2819 116.279 64.1005 115.49 64.1005 114.605ZM71.5245 114.621C71.5245 113.959 71.3912 113.383 71.1245 112.893C70.8579 112.402 70.4952 112.029 70.0365 111.773C69.5885 111.506 69.0925 111.373 68.5485 111.373C68.0045 111.373 67.5085 111.501 67.0605 111.757C66.6125 112.013 66.2552 112.386 65.9885 112.877C65.7219 113.367 65.5885 113.943 65.5885 114.605C65.5885 115.277 65.7219 115.863 65.9885 116.365C66.2552 116.855 66.6125 117.234 67.0605 117.501C67.5085 117.757 68.0045 117.885 68.5485 117.885C69.0925 117.885 69.5885 117.757 70.0365 117.501C70.4952 117.234 70.8579 116.855 71.1245 116.365C71.3912 115.863 71.5245 115.282 71.5245 114.621ZM76.913 107.181V119.021H75.457V107.181H76.913Z" fill="black"/>
<defs>
<filter id="filter0_d_2720_1627" x="-0.000244141" y="-0.000488281" width="100.481" height="119.021" filterUnits="userSpaceOnUse" color-interpolation-filters="sRGB">
<feFlood flood-opacity="0" result="BackgroundImageFix"/>
<feColorMatrix in="SourceAlpha" type="matrix" values="0 0 0 0 0 0 0 0 0 0 0 0 0 0 0 0 0 0 127 0" result="hardAlpha"/>
<feOffset dy="14"/>
<feGaussianBlur stdDeviation="7"/>
<feComposite in2="hardAlpha" operator="out"/>
<feColorMatrix type="matrix" values="0 0 0 0 0 0 0 0 0 0 0 0 0 0 0 0 0 0 0.15 0"/>
<feBlend mode="normal" in2="BackgroundImageFix" result="effect1_dropShadow_2720_1627"/>
<feBlend mode="normal" in="SourceGraphic" in2="effect1_dropShadow_2720_1627" result="shape"/>
</filter>
</defs>
</svg>
