<!-- <svg width="1210" height="1007" viewBox="0 0 1210 1007" fill="none" xmlns="http://www.w3.org/2000/svg">
<path d="M231.651 49.0421C231.651 49.0421 242.537 44.188 252.376 41.0391C262.215 37.8903 259.851 26.8736 262.607 17.0345C265.364 7.19545 274.017 13.4931 281.889 7.59229C289.761 1.69145 296.844 0.902047 305.501 2.08396C314.158 3.26587 309.042 15.4645 320.059 17.8239C331.075 20.1834 333.042 15.4644 339.733 18.6089C346.423 21.7534 346.423 22.1503 353.506 20.1834C360.588 18.2165 361.77 20.1833 368.064 31.2C374.361 42.2166 384.061 44.0615 384.061 44.0615" stroke="#5F5F5F" stroke-width="2.47971" stroke-miterlimit="10" stroke-linecap="round" stroke-linejoin="round" stroke-dasharray="3.88 3.88"/>
<path d="M411.982 87.7433C411.982 87.7433 408.99 92.9811 408.99 99.2789C408.99 105.577 416.548 108.721 411.982 112.267C407.416 115.808 405.056 114.234 398.366 112.267C391.676 110.3 386.953 108.333 379.085 109.907C371.213 111.482 368.068 107.038 360.985 114.373C353.903 121.709 345.246 123.284 344.853 135.09C344.461 146.896 349.969 151.614 341.704 152.404C333.439 153.189 333.047 143.354 323.605 139.813C314.163 136.271 316.915 130.763 305.108 126.432C293.302 122.102 303.141 120.135 296.059 111.085C288.976 102.035 275.596 109.51 271.269 96.9194C266.943 84.3283 274.418 79.9976 264.579 71.7329C254.74 63.4682 252.38 41.0381 252.38 41.0381" stroke="#5F5F5F" stroke-width="2.47971" stroke-miterlimit="10" stroke-linecap="round" stroke-linejoin="round" stroke-dasharray="3.88 3.88"/>
<path d="M155.571 163.027C155.571 163.027 158.72 175.225 168.162 176.01C177.605 176.8 202.399 174.043 209.481 176.01C216.564 177.977 213.023 187.816 218.924 190.965C224.824 194.114 227.973 191.75 235.056 190.965C242.139 190.18 244.498 200.442 248.829 192.557C253.16 184.672 251.978 184.275 263.387 185.065C274.801 185.85 269.288 177.589 274.011 172.077C278.735 166.568 280.309 168.535 287.392 170.502C294.474 172.469 295.264 176.01 299.59 163.027C303.917 150.039 309.429 156.729 309.822 146.894C310.214 137.055 307.851 127.587 307.851 127.587" stroke="#5F5F5F" stroke-width="2.47971" stroke-miterlimit="10" stroke-linecap="round" stroke-linejoin="round" stroke-dasharray="3.88 3.88"/>
<path d="M343.314 152.153C343.314 152.153 347.213 159.881 351.147 171.295C355.081 182.708 358.622 181.134 368.461 185.853C378.3 190.572 385.383 192.669 394.433 195.557C403.483 198.444 407.813 199.233 428.669 199.233C449.525 199.233 456.215 202.382 464.087 199.233C471.959 196.084 479.5 195.557 479.5 195.557" stroke="#5F5F5F" stroke-width="2.47971" stroke-miterlimit="10" stroke-linecap="round" stroke-linejoin="round" stroke-dasharray="3.88 3.88"/>
<path d="M189.808 176.393C189.808 176.393 189.808 212.217 194.135 212.217C198.461 212.217 199.25 207.101 206.333 209.068C213.416 211.035 222.073 207.101 224.04 214.576C226.007 222.052 221.332 222.841 232.719 227.957C244.106 233.073 240.962 233.465 238.598 244.486C236.239 255.503 244.896 255.11 252.371 259.049C259.846 262.982 255.127 278.722 259.061 285.413C262.995 292.103 267.718 285.02 277.95 282.656C288.182 280.297 285.822 272.425 288.182 280.297C290.541 288.169 287 300.76 294.479 300.76C301.955 300.76 305.893 298.004 305.496 305.876C305.103 313.744 317.695 318.074 323.6 304.301C329.501 290.528 330.417 307.058 332.911 288.169C335.406 269.28 333.042 267.313 326.749 260.623C320.451 253.933 309.129 270.065 309.87 254.325C310.612 238.585 311.401 225.994 314.943 217.73C318.484 209.465 300.777 203.294 313.761 195.561C326.744 187.828 323.6 177.592 328.319 171.692C333.042 165.791 347.207 160.884 347.207 160.884" stroke="#5F5F5F" stroke-width="2.47971" stroke-miterlimit="10" stroke-linecap="round" stroke-linejoin="round" stroke-dasharray="3.88 3.88"/>
<path d="M1.42627 464.101C1.42627 464.101 9.71273 459.417 18.1082 464.101C26.5037 468.781 25.9761 468.781 39.6182 468.781C53.2604 468.781 55.6198 467.206 63.8845 475.471C72.1491 483.736 70.9673 482.161 80.8064 482.161C90.6455 482.161 95.7613 484.521 100.088 479.012C104.414 473.504 108.352 472.715 106.385 484.913C104.418 497.112 103.236 500.261 110.716 505.376C118.191 510.492 117.406 508.525 121.733 519.934C126.064 531.348 132.357 531.74 140.622 537.249C148.886 542.757 150.853 536.464 157.151 550.237C163.449 564.01 173.676 565.584 175.647 561.253C177.614 556.923 176.04 556.53 181.945 547.48C187.846 538.431 186.668 535.282 189.817 528.592C192.966 521.901 197.689 522.294 194.933 506.951C192.177 491.603 188.635 496.327 191.784 481.372C194.933 466.417 188.33 472.322 195.761 464.843C203.193 457.367 203.983 447.136 209.883 449.103C215.784 451.07 219.723 451.07 218.148 459.334C216.574 467.599 215.305 471.925 218.497 472.322C221.689 472.715 221.69 469.963 230.347 468.781C239.004 467.599 242.938 465.632 244.12 472.322C245.302 479.012 247.269 480.979 244.12 484.521C240.971 488.062 240.186 483.339 240.578 494.752C240.971 506.166 231.529 508.918 231.136 512.067C230.744 515.216 226.02 516.79 231.921 519.149C237.822 521.509 242.406 508.054 245.821 506.127C249.236 504.199 254.351 505.377 258.682 498.686C263.008 491.996 264.98 488.978 269.175 492.389C273.371 495.799 270.488 498.948 278.356 499.471C286.228 499.995 283.603 499.471 289.9 503.144C296.198 506.816 301.968 508.39 300.394 497.373C298.819 486.357 296.983 483.208 300.655 482.419C304.327 481.634 303.804 486.88 307.215 482.157C310.625 477.434 307.738 475.336 305.64 472.976C303.542 470.617 292.521 464.843 300.394 457.498C308.266 450.154 320.857 453.826 322.954 450.677C325.052 447.528 324.791 434.937 317.446 435.722C310.102 436.507 308.527 438.801 302.491 435.687C296.46 432.573 291.998 439.394 287.536 427.854C283.079 416.31 277.305 412.899 289.634 403.719C301.964 394.538 309.046 392.964 318.755 383.779C328.463 374.598 329.771 373.286 341.054 372.496C352.337 371.711 368.077 362.919 367.68 357.018C367.287 351.117 357.056 354.262 350.758 353.477C344.46 352.692 340.134 352.295 341.316 344.034C342.498 335.77 345.25 327.505 336.989 324.753C328.725 321.997 326.365 325.538 327.15 318.455C327.939 311.373 325.087 301.268 325.087 301.268" stroke="#5F5F5F" stroke-width="2.47971" stroke-miterlimit="10" stroke-linecap="round" stroke-linejoin="round" stroke-dasharray="3.88 3.88"/>
<path d="M72.7854 717.482C72.7854 717.482 80.8015 711.708 87.6226 708.559C94.4437 705.41 96.2798 709.872 104.152 704.364C112.024 698.855 109.66 695.445 114.122 688.885C118.583 682.326 118.845 686.26 122.517 688.885C126.19 691.511 133.796 689.409 136.683 684.162C139.57 678.915 139.832 667.371 136.683 665.797C133.534 664.222 132.221 654.514 137.468 651.108C142.714 647.697 146.91 652.682 144.812 644.025C142.715 635.368 133.268 633.532 135.104 626.449C136.94 619.366 142.71 619.628 147.957 617.53C153.203 615.432 157.399 608.611 158.712 598.641C160.025 588.671 158.712 590.769 165.009 585.522C171.307 580.276 169.951 563.162 169.951 563.162" stroke="#5F5F5F" stroke-width="2.47971" stroke-miterlimit="10" stroke-linecap="round" stroke-linejoin="round" stroke-dasharray="3.88 3.88"/>
<path d="M646.746 325.48C646.746 325.48 651.391 342.86 657.689 346.532C663.986 350.205 672.378 350.205 670.28 358.077C668.182 365.949 661.243 353.881 658.679 367.519C656.114 381.161 649.699 385.885 658.679 392.706C667.659 399.527 680.25 399.003 683.399 404.773C686.548 410.543 681.824 413.692 676.054 414.215C670.284 414.739 669.757 412.118 661.365 418.411C652.97 424.709 648.246 433.1 643.528 436.777C638.804 440.449 631.983 435.202 627.788 444.121C623.592 453.04 634.085 464.061 637.234 467.733C640.383 471.405 637.234 478.226 630.937 479.801C624.639 481.375 635.28 502.885 626.811 508.132C618.346 513.378 626.213 518.625 614.145 517.051C602.078 515.476 588.963 521.246 590.01 513.378C591.057 505.511 594.206 502.885 596.308 497.638C598.41 492.392 598.406 481.375 592.112 480.324C585.815 479.273 585.815 488.196 572.7 472.452C559.586 456.708 558.535 450.414 552.237 450.414C545.939 450.414 543.841 452.512 530.727 454.087C517.608 455.661 519.684 460.908 506.317 455.661C492.949 450.414 497.145 445.691 485.605 447.789C474.065 449.887 473.537 450.938 468.29 442.542C463.044 434.147 459.895 449.887 442.581 448.84C425.266 447.793 432.611 437.296 416.871 439.398C401.131 441.5 412.431 432.577 401.794 429.428C391.157 426.279 383.816 439.398 385.914 450.938C388.012 462.482 390.11 468.252 395.884 477.171C401.654 486.09 411.38 500.255 401.794 501.83C392.208 503.404 392.208 485.566 380.14 485.566C368.072 485.566 369.398 482.941 367.688 469.303C365.974 455.661 357.335 440.972 367.688 435.198C378.042 429.428 376.995 425.228 389.586 418.934C402.178 412.637 412.671 396.897 411.624 391.65C410.577 386.403 416.103 376.961 401.794 369.612C387.489 362.268 389.447 353.035 378.042 353.873C366.642 354.71 366.642 354.71 366.642 354.71" stroke="#5F5F5F" stroke-width="2.47971" stroke-miterlimit="10" stroke-linecap="round" stroke-linejoin="round" stroke-dasharray="3.88 3.88"/>
<path d="M858.859 330.02C858.859 330.02 867.56 328.567 876.479 325.484C885.397 322.4 886.448 321.877 890.121 321.877C893.793 321.877 897.064 321.877 897.064 321.877" stroke="#5F5F5F" stroke-width="2.47971" stroke-miterlimit="10" stroke-linecap="round" stroke-linejoin="round" stroke-dasharray="3.88 3.88"/>
<path d="M854.519 367.165C854.519 367.165 868.083 362.084 867.032 367.165C865.981 372.246 861.942 380.642 854.519 386.412C847.097 392.182 849.351 408.973 854.519 415.271C859.688 421.568 848.671 427.862 845.522 429.959C842.373 432.057 860.795 450.946 856.308 458.818C851.82 466.686 855.492 465.639 850.245 478.758C844.999 491.877 833.454 479.281 830.833 495.549C828.212 511.817 831.884 510.879 812.996 517.643C794.107 524.408 794.107 517.063 783.613 524.408C773.12 531.752 771.022 522.833 762.627 528.08C754.231 533.327 754.231 538.573 762.627 547.492C771.022 556.411 778.89 564.619 788.86 563.402C798.83 562.185 794.107 584.219 800.404 591.563C806.702 598.908 798.83 607.303 791.486 604.682C784.141 602.056 780.992 585.793 775.222 585.793C769.452 585.793 767.35 589.923 765.252 605.175C763.154 620.426 756.857 624.622 750.036 616.75C743.215 608.877 735.87 610.98 724.326 609.929C712.781 608.877 725.9 597.337 717.505 592.614C709.109 587.891 706.488 594.119 692.318 595.467C678.153 596.814 668.706 600.94 667.132 595.467C665.557 589.993 665.034 587.895 671.327 579.5C677.625 571.104 681.297 577.214 674.476 563.402C667.655 549.59 660.834 549.067 660.311 537.522C659.787 525.978 658.139 533.327 642.473 520.731C626.803 508.14 626.803 508.14 626.803 508.14" stroke="#5F5F5F" stroke-width="2.47971" stroke-miterlimit="10" stroke-linecap="round" stroke-linejoin="round" stroke-dasharray="3.88 3.88"/>
<path d="M842.899 634.869C842.899 634.869 848.146 626.09 833.98 620.629C819.815 615.169 807.224 612.548 805.649 609.399C804.075 606.25 800.115 602.87 800.115 602.87" stroke="#5F5F5F" stroke-width="2.47971" stroke-miterlimit="10" stroke-linecap="round" stroke-linejoin="round" stroke-dasharray="3.88 3.88"/>
<path d="M147.962 617.532C147.962 617.532 156.62 623.467 166.59 620.628C176.559 617.793 171.313 625.138 180.232 631.959C189.151 638.78 195.972 640.878 205.942 642.452C215.912 644.027 218.533 642.975 226.405 649.273C234.277 655.571 244.243 646.124 250.54 655.571C256.838 665.013 261.034 669.213 271.527 667.115C282.02 665.017 279.922 662.392 291.99 652.95C304.058 643.508 314.028 638.728 321.372 640.328C328.717 641.933 315.074 660.294 335.014 659.771C354.954 659.248 356.001 638.004 370.694 642.592C385.383 647.18 385.911 658.724 399.025 652.95C412.144 647.18 416.863 640.101 427.884 642.592C438.901 645.082 448.87 655.052 463.036 653.478C477.201 651.903 488.746 653.477 489.792 658.201C490.839 662.924 481.92 661.873 485.069 673.417C488.218 684.962 496.26 691.783 489.88 706.472C483.499 721.16 482.971 729.033 487.695 736.905C492.418 744.777 503.958 754.743 495.567 758.942C487.171 763.138 480.878 767.338 475.627 781.503C470.38 795.669 487.695 803.541 476.678 808.788C465.661 814.034 487.695 815.086 489.797 820.856C491.899 826.626 502.366 829.251 506.313 843.417C510.26 857.582 521.804 856.535 528.098 856.008C534.396 855.484 530.196 857.059 539.114 840.791C548.033 824.528 555.905 814.558 560.101 807.737C564.297 800.916 579.513 809.311 577.415 787.797C575.318 766.287 570.594 786.222 571.645 759.989C572.696 733.756 559.054 727.458 569.02 726.412C578.99 725.36 588.432 743.726 596.304 743.726C604.176 743.726 601.551 732.709 596.304 729.037C591.058 725.365 587.307 709.625 585.51 700.706C583.713 691.787 582.139 691.264 590.011 683.392C597.879 675.519 588.436 669.226 603.653 665.554C618.87 661.882 625.163 677.098 630.41 655.061C635.656 633.023 629.886 632.399 645.098 620.646C660.315 608.892 667.136 595.477 667.136 595.477" stroke="#5F5F5F" stroke-width="2.47971" stroke-miterlimit="10" stroke-linecap="round" stroke-linejoin="round" stroke-dasharray="3.88 3.88"/>
<path d="M111.868 966.978C111.868 966.978 124.617 958.836 130.387 963.035C136.157 967.231 145.075 968.282 151.373 958.312C157.671 948.342 164.492 943.689 158.194 934.7C151.896 925.716 149.559 926.305 160.698 912.662C171.836 899.02 166.066 894.297 180.232 895.871C194.397 897.446 195.448 899.02 208.563 884.855C221.682 870.689 212.758 865.966 230.073 869.638C247.387 873.31 259.455 872.787 267.85 859.668C276.246 846.549 273.097 840.779 287.263 837.631C301.428 834.482 302.479 837.107 317.168 822.942C331.857 808.776 331.857 821.367 336.057 796.185C340.252 770.999 341.827 769.952 351.797 767.326C361.767 764.701 359.141 770.475 368.06 757.884C376.979 745.293 380.128 741.093 389.57 743.195C399.012 745.293 400.063 760.51 415.28 761.033C430.496 761.556 437.841 742.668 447.288 757.884C456.73 773.101 446.764 791.99 453.057 802.483C459.355 812.976 473.63 811.711 473.63 811.711" stroke="#5F5F5F" stroke-width="2.47971" stroke-miterlimit="10" stroke-linecap="round" stroke-linejoin="round" stroke-dasharray="3.88 3.88"/>
<path d="M140.29 1010.27C140.29 1010.27 145.079 1015.5 147.7 1005C150.325 994.511 143.993 965.063 143.993 965.063" stroke="#5F5F5F" stroke-width="2.47971" stroke-miterlimit="10" stroke-linecap="round" stroke-linejoin="round" stroke-dasharray="3.88 3.88"/>
<path d="M528.092 855.997C528.092 855.997 539.109 855.474 548.555 850.227C557.997 844.981 561.674 847.078 577.414 831.862C593.154 816.645 587.384 807.726 599.451 810.875C611.519 814.024 616.766 817.173 620.966 806.152C625.161 795.135 617.293 791.986 631.459 788.314C645.624 784.642 649.297 775.723 655.071 784.642C660.841 793.561 677.632 800.382 683.93 796.186C690.228 791.991 700.983 783.595 700.983 783.595" stroke="#5F5F5F" stroke-width="2.47971" stroke-miterlimit="10" stroke-linecap="round" stroke-linejoin="round" stroke-dasharray="3.88 3.88"/>
<path d="M317.172 822.942C317.172 822.942 329.24 841.831 325.568 849.176C321.895 856.52 313.147 861.767 321.717 869.639C330.287 877.511 318.219 888.004 317.172 901.119C316.121 914.233 329.41 919.877 321.717 925.712C314.023 931.548 317.695 940.994 323.993 945.713C330.291 950.436 330.169 959.355 317.111 962.504C304.053 965.653 300.904 964.078 297.232 971.951C293.56 979.818 304.053 991.886 301.428 999.758C298.802 1007.63 288.309 1003.97 287.262 1011.57C286.211 1019.17 277.82 1045.93 287.262 1046.45C296.705 1046.98 316.644 1037.54 316.121 1051.18C315.598 1064.82 303.53 1057.48 302.479 1067.44C301.428 1077.41 313.495 1078.99 324.517 1078.46C335.538 1077.93 342.354 1073.73 348.129 1082.65C353.899 1091.57 344.404 1089.46 356.76 1099.44C369.115 1109.41 371.213 1107.84 367.541 1117.81C363.869 1127.78 358.099 1133.32 358.099 1133.32" stroke="#5F5F5F" stroke-width="2.47971" stroke-miterlimit="10" stroke-linecap="round" stroke-linejoin="round" stroke-dasharray="3.88 3.88"/>
<path d="M944.688 375.916C944.688 375.916 946.916 365.292 949.672 363.325C952.429 361.358 953.92 344.148 953.92 344.148" stroke="#5F5F5F" stroke-width="2.47971" stroke-miterlimit="10" stroke-linecap="round" stroke-linejoin="round" stroke-dasharray="3.88 3.88"/>
<path d="M951.488 394.087C951.488 394.087 963.049 388.513 977.215 388.906C991.38 389.298 1002 391.706 1008.69 391.488C1015.39 391.27 1016.57 399.268 1026.4 394.087C1036.24 388.906 1042.14 374.74 1054.34 375.922C1066.54 377.104 1074.01 372.773 1072.44 383.794C1070.87 394.811 1073.23 397.567 1081.49 398.352C1089.75 399.137 1096.84 408.584 1096.05 414.092C1095.26 419.601 1087.74 429.047 1087.74 429.047" stroke="#5F5F5F" stroke-width="2.47971" stroke-miterlimit="10" stroke-linecap="round" stroke-linejoin="round" stroke-dasharray="3.88 3.88"/>
<path d="M1059.71 332.049C1059.71 332.049 1054.35 333.824 1072.84 325.947C1091.33 318.071 1111.01 321.612 1125.57 318.071C1140.12 314.529 1144.06 322.794 1144.85 305.48C1145.63 288.165 1149.57 289.74 1158.62 285.409C1167.67 281.078 1163.74 276.752 1172.39 275.57C1181.05 274.388 1185.38 284.62 1197.18 272.029C1208.99 259.438 1220.4 256.681 1229.45 254.714C1238.5 252.747 1242.83 245.665 1240.86 256.681C1238.9 267.698 1229.06 266.123 1236.54 274.388C1244.01 282.653 1247.56 285.802 1239.69 293.669C1231.82 301.542 1228.79 298.619 1230.11 307.752" stroke="#5F5F5F" stroke-width="2.47971" stroke-miterlimit="10" stroke-linecap="round" stroke-linejoin="round" stroke-dasharray="3.88 3.88"/>
<path d="M1192.62 393.27C1192.62 393.27 1194.04 383.789 1188.92 383.396C1183.81 383.004 1184.2 394.81 1176.33 396.777C1168.46 398.744 1167.28 393.951 1155.87 402.446C1144.45 410.942 1153.51 410.942 1137.37 415.269C1121.24 419.595 1126.36 431.798 1123.21 441.24C1120.06 450.682 1116.91 457.373 1118.48 465.637C1120.06 473.902 1133.57 485.577 1133.57 485.577" stroke="#5F5F5F" stroke-width="2.47971" stroke-miterlimit="10" stroke-linecap="round" stroke-linejoin="round" stroke-dasharray="3.88 3.88"/>
<path d="M1073.76 477.705C1073.76 477.705 1083.86 485.664 1082.68 492.768C1081.49 499.873 1081.17 526.848 1081.17 526.848" stroke="#5F5F5F" stroke-width="2.47971" stroke-miterlimit="10" stroke-linecap="round" stroke-linejoin="round" stroke-dasharray="3.88 3.88"/>
<path d="M1116.12 466.031C1116.12 466.031 1116.12 463.275 1105.89 464.064C1095.66 464.849 1105.22 478.229 1096.11 480.986C1087 483.742 1080.8 485.578 1080.8 485.578" stroke="#5F5F5F" stroke-width="2.47971" stroke-miterlimit="10" stroke-linecap="round" stroke-linejoin="round" stroke-dasharray="3.88 3.88"/>
<path d="M1137.37 415.267C1137.37 415.267 1142.1 406.218 1135.8 395.197C1129.5 384.18 1140.92 377.097 1144.85 377.882C1148.78 378.667 1150.67 379.339 1155.43 377.821C1160.2 376.308 1162.16 358.204 1169.25 350.729C1176.33 343.254 1175.54 347.187 1184.2 333.807C1192.86 320.426 1196.01 318.067 1208.6 314.918C1221.19 311.769 1232.25 304.939 1232.25 304.939" stroke="#5F5F5F" stroke-width="2.47971" stroke-miterlimit="10" stroke-linecap="round" stroke-linejoin="round" stroke-dasharray="3.88 3.88"/>
</svg> -->

<svg width="1355" height="1163" viewBox="0 0 1355 1163" fill="none" xmlns="http://www.w3.org/2000/svg">
<path d="M376.652 205.041C376.652 205.041 357.763 201.369 354.614 194.548C351.465 187.726 359.337 176.71 340.972 174.084C322.606 171.459 321.032 178.808 314.215 160.442C307.394 142.077 294.803 146.8 296.378 129.486C297.952 112.171 303.199 110.073 299.003 86.9847C294.807 63.9003 299.003 72.8192 311.071 63.9003C323.138 54.9814 326.811 50.7815 321.564 44.4882C316.317 38.1904 307.922 43.9648 308.973 27.6972C310.024 11.4295 292.182 25.0717 287.986 14.055C283.791 3.03837 285.361 6.18285 273.297 0.940563C261.23 -4.30608 259.655 0.940558 260.179 -13.225C260.702 -27.3905 252.307 -24.2416 266.476 -27.9138C266.476 -27.9138 269.494 -26.0777 274.213 -31.586C278.937 -37.0944 285.627 -46.9334 291.135 -46.9334C296.643 -46.9334 299.007 -50.0823 303.726 -46.9334C308.45 -43.7846 308.053 -42.9995 314.743 -42.9995C321.433 -42.9995 318.912 -46.9335 317.416 -53.6237C315.92 -60.3139 328.119 -57.9501 337.958 -57.9501C347.797 -57.9501 349.764 -63.4584 355.665 -63.0659C361.566 -62.6734 380.852 -59.5245 387.934 -58.7351C395.017 -57.9457 400.525 -37.09 403.674 -35.5199C406.823 -33.9499 425.315 -32.371 433.977 -24.1064C442.634 -15.8417 442.634 -9.94088 453.65 -4.03568C464.667 1.86516 458.374 11.7043 463.882 13.2787C469.39 14.8531 485.92 19.5764 487.494 22.7209C489.069 25.8654 487.102 32.9525 493.395 34.1344C499.688 35.3163 518.581 25.8698 523.693 24.6922C528.809 23.5103 529.594 14.0681 537.858 13.2787C546.123 12.4937 566.979 14.0637 572.487 11.3117C577.996 8.55539 575.636 5.41091 581.537 8.55541C587.438 11.7043 583.504 14.8531 593.343 15.2456C603.182 15.6381 609.868 12.8862 614.984 24.6879C620.099 36.4939 622.459 33.345 618.918 45.9361C615.376 58.5272 618.128 64.0399 610.653 67.9738C603.178 71.9077 608.686 77.8129 596.88 86.4701C585.074 95.1272 581.925 95.1273 579.958 100.636C577.991 106.144 580.351 106.144 566.97 111.26C553.59 116.376 552.015 121.491 554.379 127.392C556.738 133.293 560.28 136.442 554.772 141.165C549.263 145.888 552.412 151.397 559.102 152.971C565.793 154.546 575.235 149.037 574.842 158.48C574.45 167.922 577.599 173.827 581.14 180.12C584.681 186.418 581.925 196.253 577.206 197.435C572.487 198.617 563.826 199.794 559.892 202.943C555.958 206.092 554.776 209.105 549.268 205.041C543.759 200.976 549.268 193.104 543.367 191.922C537.466 190.74 531.168 191.529 529.594 197.43C528.019 203.331 529.201 206.087 534.317 213.17C539.433 220.253 542.582 214.745 541.792 225.761C541.007 236.778 535.495 234.811 553.206 241.894C570.913 248.977 564.619 264.324 571.702 265.898C578.785 267.473 572.884 265.506 582.326 274.163C591.768 282.82 595.707 276.523 605.938 284.395C616.17 292.267 617.191 289.903 620.614 296.986C624.038 304.068 623.253 304.461 636.629 308.399C650.009 312.333 655.91 319.416 653.551 323.747C651.191 328.073 646.86 322.565 642.927 329.255C638.993 335.945 640.567 343.028 632.302 344.602C624.038 346.177 623.645 355.227 622.071 359.95C620.496 364.673 626.005 367.033 616.955 370.966C607.905 374.9 616.955 387.491 613.414 392.607C609.872 397.723 607.905 403.624 614.596 408.347C621.286 413.07 630.728 410.707 635.059 413.071C639.385 415.43 635.451 416.612 644.898 418.186C654.34 419.761 650.014 418.579 656.704 425.269C663.394 431.959 670.869 442.976 684.642 445.732C698.415 448.489 693.3 454.782 704.316 456.749C715.333 458.716 720.056 458.716 728.713 465.014C737.371 471.311 744.453 465.799 746.813 472.489C749.172 479.179 751.536 480.754 759.404 480.754C767.276 480.754 769.636 475.245 782.227 476.82C794.818 478.394 790.094 486.266 796.785 480.754C803.475 475.245 818.033 474.063 826.69 489.803C835.347 505.543 843.219 505.151 851.087 507.118C858.959 509.085 858.562 510.659 868.794 510.266C879.026 509.874 880.207 506.058 884.534 510.328C888.86 514.597 892.406 516.564 898.307 516.564C904.208 516.564 908.539 513.415 918.378 516.564C928.217 519.713 938.448 523.647 952.217 524.039C965.99 524.432 957.333 524.432 969.139 527.973C980.945 531.515 1001.01 524.039 1003.77 520.101C1006.52 516.163 1008.09 498.46 1007.31 493.345C1006.52 488.229 998.652 480.754 999.834 473.671C1001.02 466.588 1002.98 466.196 1005.34 456.356C1007.7 446.517 1009.67 443.368 1015.57 439.435C1021.47 435.501 1025.41 431.562 1029.74 432.352C1034.07 433.137 1043.12 442.583 1041.15 449.666C1039.19 456.749 1038.95 467.373 1041.43 475.245C1043.9 483.117 1041.15 493.742 1054.14 498.068C1067.12 502.399 1082.86 497.283 1086.8 503.576C1090.73 509.874 1095.46 499.376 1105.95 497.279C1116.44 495.181 1115.92 496.227 1137.95 494.653C1159.99 493.079 1172.06 495.704 1185.17 492.555C1198.29 489.406 1205.11 490.457 1206.16 485.734C1207.21 481.011 1210.35 455.829 1196.72 455.829C1183.07 455.829 1176.25 454.254 1176.78 448.484C1177.3 442.714 1178.87 431.17 1186.75 430.647C1194.62 430.123 1200.91 433.272 1210.36 426.451C1219.8 419.63 1208.78 415.958 1225.57 412.285C1242.37 408.613 1241.31 409.137 1246.56 396.546C1251.81 383.954 1252.33 373.985 1273.32 372.41C1294.3 370.836 1292.73 358.768 1307.42 349.326C1322.11 339.884 1327.36 334.109 1337.86 337.781C1348.35 341.454 1351.5 344.079 1363.04 336.73C1374.59 329.386 1390.85 319.416 1394.52 327.811C1398.2 336.207 1397.15 335.156 1394.52 341.977C1391.9 348.798 1390.85 348.275 1404.49 348.798C1418.14 349.321 1408.69 362.964 1406.59 369.785C1404.49 376.606 1401.87 388.673 1407.64 388.15C1413.41 387.627 1417.61 377.657 1429.68 381.852C1441.75 386.048 1445.94 382.376 1450.67 397.069C1455.39 411.762 1461.68 413.332 1459.58 419.107C1457.49 424.877 1456.44 415.958 1454.86 430.651C1453.29 445.34 1434.4 447.442 1428.63 446.391C1422.86 445.34 1423.9 440.621 1412.36 445.34C1400.82 450.063 1391.38 457.408 1380.36 459.505C1369.34 461.603 1375.63 483.117 1367.24 497.806C1358.84 512.495 1349.92 539.779 1347.3 545.026C1344.67 550.273 1333.13 546.6 1335.75 553.945C1338.38 561.289 1348.35 568.11 1347.82 581.229C1347.3 594.348 1345.72 599.595 1349.4 602.216C1353.07 604.837 1351.49 615.335 1345.2 614.807C1338.91 614.279 1337.86 608.548 1329.98 614.824C1322.11 621.1 1323.69 644.712 1317.92 645.236C1312.15 645.759 1315.82 644.185 1302.7 645.236C1289.58 646.287 1283.29 641.564 1278.56 641.564C1273.84 641.564 1289.58 660.452 1288.01 670.422C1286.43 680.392 1279.61 698.753 1275.42 709.774C1271.22 720.791 1271.22 723.416 1274.89 729.71C1278.56 736.008 1275.42 748.075 1269.65 749.122C1263.88 750.173 1257.05 745.973 1251.28 741.778C1245.51 737.582 1240.79 733.91 1241.31 720.791C1241.83 707.672 1240.79 685.639 1235.54 682.49C1230.29 679.341 1215.6 687.213 1210.88 688.788C1206.16 690.362 1197.24 693.511 1188.84 692.983C1180.45 692.46 1176.25 688.26 1175.73 678.818C1175.2 669.376 1175.2 650.487 1181.5 645.24C1187.79 639.993 1186.74 638.419 1197.23 637.368C1207.73 636.317 1211.92 636.845 1218.74 633.696C1225.57 630.547 1222.94 617.432 1223.47 610.611C1223.99 603.79 1220.32 601.169 1231.86 600.641C1243.41 600.118 1239.21 585.425 1229.24 583.85C1219.27 582.276 1218.74 580.178 1203.53 582.276C1188.31 584.374 1184.12 573.88 1170.47 580.702C1156.83 587.523 1165.23 589.097 1143.19 587.523C1121.15 585.948 1112.23 587.523 1099.64 578.08C1087.05 568.638 1097.54 551.324 1097.02 546.601C1096.49 541.877 1097.54 532.958 1089.67 531.912C1081.8 530.861 1085.48 539.256 1069.73 535.06C1053.99 530.865 1058.19 522.993 1048.22 522.469C1038.25 521.946 1046.12 534.537 1036.15 529.29C1026.18 524.044 1031.43 515.648 1022.51 519.321C1013.59 522.993 1016.74 540.307 1013.07 546.605C1009.39 552.903 1013.59 560.247 1022.64 564.573C1031.69 568.9 1031.69 574.805 1041.14 575.987C1050.58 577.169 1056.88 583.07 1049.8 587.793C1042.71 592.516 1040.35 592.119 1032.87 593.694C1025.4 595.268 1034.06 605.892 1024.22 609.041C1014.38 612.19 1012.02 613.765 1011.23 619.273C1010.44 624.781 1028.94 637.372 1039.17 639.344C1049.4 641.311 1051.37 644.852 1043.89 653.902C1036.42 662.951 1036.81 675.547 1042.32 680.658C1047.83 685.774 1046.64 688.53 1048.61 692.464C1050.58 696.398 1063.17 699.94 1059.63 713.713C1056.09 727.486 1059.24 724.729 1060.81 736.928C1062.39 749.126 1071.44 756.998 1059.24 761.717C1047.04 766.441 1047.43 761.717 1037.99 768.015C1028.55 774.313 1029.33 763.689 1026.58 759.75C1023.82 755.817 1015.16 759.75 1008.08 773.916C1001 788.081 1004.54 787.737 993.523 790.86C982.506 793.982 986.833 794.375 973.06 799.491C959.287 804.606 960.076 812.871 960.469 823.888C960.861 834.904 964.795 841.202 956.927 846.71C949.055 852.219 954.96 862.843 948.27 868.748C941.58 874.649 945.78 875.438 939.155 881.736C932.53 888.034 938.435 888.426 923.48 889.608C908.526 890.79 909.707 895.509 903.41 899.05C897.112 902.592 893.571 906.922 891.211 903.774C888.852 900.625 888.062 895.509 885.31 895.116C882.554 894.724 876.653 893.935 873.504 902.989C870.355 912.038 875.864 910.464 869.178 918.336C862.488 926.208 849.896 930.142 845.963 939.584C842.029 949.026 843.206 949.423 832.19 964.374C821.173 979.329 808.578 984.048 802.284 990.345C795.986 996.643 789.301 997.428 782.218 1010.02C775.135 1022.61 772.379 1028.91 755.064 1035.21C737.75 1041.5 736.568 1043.86 729.485 1051.74C722.403 1059.61 727.126 1061.97 728.7 1066.69C730.275 1071.41 729.093 1082.04 712.568 1085.97C696.038 1089.91 695.253 1087.15 681.088 1089.51C666.922 1091.87 666.53 1107.22 659.447 1117.45C652.364 1127.68 644.492 1125.72 638.984 1121.39C633.476 1117.06 631.509 1117.06 624.029 1121.78C616.549 1126.5 607.897 1139.48 607.897 1152.47C607.897 1165.46 609.079 1213.07 611.83 1223.7C614.587 1234.32 624.029 1239.44 617.731 1244.16C611.434 1248.88 610.256 1255.97 613.4 1260.69C616.545 1265.4 627.566 1266.19 621.665 1276.82C615.76 1287.44 612.223 1310.66 604.351 1321.29C596.479 1331.91 594.909 1330.73 594.119 1342.53C593.33 1354.34 597.661 1378.74 594.119 1389.36C590.578 1399.99 591.76 1394.87 589.003 1413.76C586.247 1432.65 590.185 1433.83 582.706 1433.83C575.23 1433.83 579.949 1430.29 568.148 1440.13C556.342 1449.97 561.457 1462.56 552.015 1465.31C542.573 1468.07 535.883 1488.13 538.635 1488.53C541.391 1488.92 549.651 1492.07 541.391 1495.22C533.131 1498.37 529.978 1492.07 522.502 1500.73C515.027 1509.38 512.271 1501.91 504.795 1517.65C497.32 1533.39 506.762 1538.5 483.15 1550.31C459.538 1562.12 472.526 1568.81 459.935 1564.87C447.344 1560.93 455.212 1563.69 443.406 1558.18C431.6 1552.67 431.207 1559.36 425.306 1545.59C419.405 1531.81 415.467 1530.24 403.269 1518.83C391.07 1507.42 399.727 1507.81 394.611 1491.28C389.496 1474.76 385.562 1484.2 390.285 1470.43C395.008 1456.66 396.583 1456.66 394.611 1445.64C392.645 1434.62 389.103 1449.97 384.772 1445.64C380.442 1441.31 385.954 1429.9 377.297 1412.98C368.64 1396.06 368.247 1396.45 368.247 1387.01C368.247 1377.56 354.867 1371.27 348.177 1359.07C341.486 1346.87 344.635 1340.97 332.829 1326.01C321.023 1311.06 319.846 1323.65 315.515 1297.29C311.188 1270.92 310.399 1278.4 307.25 1249.67C304.101 1220.95 305.676 1209.14 294.659 1191.82C283.642 1174.51 287.184 1157.2 276.163 1147.36C265.146 1137.52 244.683 1106.04 240.352 1092.26C236.026 1078.49 234.844 1080.46 234.451 1054.09C234.059 1027.73 223.827 999.792 222.645 986.804C221.463 973.816 223.038 953.75 222.645 945.485C222.253 937.221 213.203 924.237 215.955 900.232C218.711 876.228 216.74 867.178 219.889 857.339C223.038 847.5 218.707 819.561 217.53 808.152C216.348 796.739 212.021 799.15 217.53 790.864C223.038 782.578 214.381 777.462 212.021 771.949C209.662 766.441 218.319 757.783 212.021 753.453C205.723 749.122 192.74 753.845 194.314 768.011C195.889 782.176 202.972 789.259 191.165 796.739C179.359 804.214 186.442 821.528 166.768 822.318C147.094 823.103 134.107 825.859 118.367 823.892C102.627 821.925 106.168 806.97 91.2132 798.706C76.2583 790.441 60.1258 774.701 48.7166 768.011C37.3031 761.32 36.9106 749.514 32.5841 740.072C28.2534 730.63 29.4353 723.15 37.3075 727.481C45.1796 731.807 42.0307 739.68 49.506 741.647C56.9813 743.614 64.4609 746.37 72.3287 741.254C80.2009 736.138 89.6431 731.807 97.5152 728.663C105.387 725.514 112.863 716.465 106.565 712.923C100.267 709.382 98.6928 710.956 77.8371 710.564C56.9813 710.171 60.5227 718.436 45.5678 710.564C30.6129 702.691 33.7617 694.431 27.0715 688.923C20.3813 683.414 7.39763 677.117 11.3315 670.034C15.2654 662.951 24.712 665.311 19.5962 661.769C14.4804 658.228 16.8399 662.951 8.57955 659.803C0.314885 656.654 -0.867046 649.571 3.46373 647.996C7.79014 646.422 14.0878 648.781 21.1706 645.24C28.2534 641.699 26.2864 641.699 35.3361 632.252C44.3858 622.81 45.1752 621.628 53.043 625.954C60.9151 630.281 64.0597 635.004 71.9318 635.004C79.7996 635.004 78.2296 642.876 86.0973 641.302C93.9695 639.727 93.1801 631.07 106.168 629.888C119.152 628.706 116.4 621.624 126.239 629.496C136.078 637.368 146.702 629.103 146.309 623.987C145.917 618.872 150.243 596.834 139.227 590.144C128.21 583.453 126.636 580.305 130.177 572.044C133.718 563.78 136.475 560.238 126.243 559.846C116.012 559.453 100.272 562.995 104.205 545.68C108.139 528.366 125.851 517.349 111.681 512.626C97.5109 507.903 103.416 511.444 94.3664 505.543C85.3167 499.642 70.7543 484.687 79.0189 477.997C87.2836 471.307 86.1017 476.03 98.3003 460.683C110.499 445.335 116.4 433.926 125.846 435.104C135.288 436.286 144.735 435.496 144.735 445.335C144.735 455.175 156.541 442.187 168.347 439.827C180.153 437.468 190.777 443.761 198.649 436.286C206.522 428.81 222.654 422.12 231.311 399.69C239.968 377.26 251.382 378.442 260.039 374.504C268.696 370.57 271.845 353.648 277.353 337.515C282.862 321.383 295.453 319.808 300.569 319.019C305.685 318.234 307.259 295.804 322.209 288.717C337.164 281.634 348.574 271.795 346.999 269.435C345.425 267.076 341.491 247.795 343.458 238.348C345.425 228.906 349.756 213.558 358.413 213.162C367.07 212.765 380.45 209.228 380.45 209.228L376.652 205.041Z" stroke="black" stroke-width="2" stroke-miterlimit="10"/>
<path d="M376.651 205.042C376.651 205.042 387.537 200.188 397.376 197.039C407.215 193.89 404.851 182.874 407.607 173.035C410.364 163.195 419.017 169.493 426.889 163.592C434.761 157.691 441.844 156.902 450.501 158.084C459.158 159.266 454.042 171.464 465.059 173.824C476.075 176.183 478.042 171.464 484.733 174.609C491.423 177.753 491.423 178.15 498.506 176.183C505.588 174.216 506.77 176.183 513.064 187.2C519.361 198.217 529.061 200.061 529.061 200.061" stroke="#5F5F5F" stroke-width="2.47971" stroke-miterlimit="10" stroke-linecap="round" stroke-linejoin="round" stroke-dasharray="3.88 3.88"/>
<path d="M556.982 243.743C556.982 243.743 553.99 248.981 553.99 255.279C553.99 261.577 561.548 264.721 556.982 268.267C552.416 271.808 550.056 270.234 543.366 268.267C536.676 266.3 531.953 264.333 524.085 265.907C516.213 267.482 513.068 263.038 505.985 270.373C498.903 277.709 490.246 279.284 489.853 291.09C489.461 302.896 494.969 307.614 486.704 308.404C478.439 309.189 478.047 299.354 468.605 295.813C459.163 292.271 461.915 286.763 450.108 282.432C438.302 278.102 448.141 276.135 441.059 267.085C433.976 258.035 420.596 265.51 416.269 252.919C411.943 240.328 419.418 235.998 409.579 227.733C399.74 219.468 397.38 197.038 397.38 197.038" stroke="#5F5F5F" stroke-width="2.47971" stroke-miterlimit="10" stroke-linecap="round" stroke-linejoin="round" stroke-dasharray="3.88 3.88"/>
<path d="M300.571 319.027C300.571 319.027 303.72 331.225 313.162 332.01C322.605 332.8 347.399 330.043 354.481 332.01C361.564 333.977 358.023 343.816 363.924 346.965C369.824 350.114 372.973 347.75 380.056 346.965C387.139 346.18 389.498 356.442 393.829 348.557C398.16 340.672 396.978 340.275 408.387 341.065C419.801 341.85 414.288 333.589 419.011 328.077C423.735 322.568 425.309 324.535 432.392 326.502C439.474 328.469 440.264 332.01 444.59 319.027C448.917 306.039 454.429 312.729 454.822 302.894C455.214 293.055 452.851 283.587 452.851 283.587" stroke="#5F5F5F" stroke-width="2.47971" stroke-miterlimit="10" stroke-linecap="round" stroke-linejoin="round" stroke-dasharray="3.88 3.88"/>
<path d="M488.314 308.153C488.314 308.153 492.213 315.881 496.147 327.295C500.081 338.708 503.622 337.134 513.461 341.853C523.3 346.572 530.383 348.669 539.433 351.557C548.483 354.444 552.813 355.233 573.669 355.233C594.525 355.233 601.215 358.382 609.087 355.233C616.959 352.084 624.5 351.557 624.5 351.557" stroke="#5F5F5F" stroke-width="2.47971" stroke-miterlimit="10" stroke-linecap="round" stroke-linejoin="round" stroke-dasharray="3.88 3.88"/>
<path d="M334.808 332.393C334.808 332.393 334.808 368.217 339.135 368.217C343.461 368.217 344.25 363.101 351.333 365.068C358.416 367.035 367.073 363.101 369.04 370.576C371.007 378.052 366.332 378.841 377.719 383.957C389.106 389.073 385.962 389.465 383.598 400.486C381.239 411.503 389.896 411.11 397.371 415.049C404.846 418.982 400.127 434.722 404.061 441.413C407.995 448.103 412.718 441.02 422.95 438.656C433.182 436.297 430.822 428.425 433.182 436.297C435.541 444.169 432 456.76 439.479 456.76C446.955 456.76 450.893 454.004 450.496 461.876C450.103 469.744 462.695 474.074 468.6 460.301C474.501 446.528 475.417 463.058 477.911 444.169C480.406 425.28 478.042 423.313 471.749 416.623C465.451 409.933 454.129 426.065 454.87 410.325C455.612 394.585 456.401 381.994 459.943 373.73C463.484 365.465 445.777 359.294 458.761 351.561C471.744 343.828 468.6 333.592 473.319 327.692C478.042 321.791 492.207 316.884 492.207 316.884" stroke="#5F5F5F" stroke-width="2.47971" stroke-miterlimit="10" stroke-linecap="round" stroke-linejoin="round" stroke-dasharray="3.88 3.88"/>
<path d="M146.426 620.101C146.426 620.101 154.713 615.417 163.108 620.101C171.504 624.781 170.976 624.781 184.618 624.781C198.26 624.781 200.62 623.206 208.884 631.471C217.149 639.736 215.967 638.161 225.806 638.161C235.646 638.161 240.761 640.521 245.088 635.012C249.414 629.504 253.352 628.715 251.385 640.913C249.418 653.112 248.236 656.261 255.716 661.376C263.191 666.492 262.406 664.525 266.733 675.934C271.064 687.348 277.357 687.74 285.622 693.249C293.886 698.757 295.853 692.464 302.151 706.237C308.449 720.01 318.676 721.584 320.647 717.253C322.614 712.923 321.04 712.53 326.945 703.48C332.846 694.431 331.668 691.282 334.817 684.592C337.966 677.901 342.689 678.294 339.933 662.951C337.177 647.603 333.635 652.327 336.784 637.372C339.933 622.417 333.33 628.322 340.761 620.843C348.193 613.367 348.983 603.136 354.883 605.103C360.784 607.07 364.723 607.07 363.148 615.334C361.574 623.599 360.305 627.925 363.497 628.322C366.689 628.715 366.69 625.963 375.347 624.781C384.004 623.599 387.938 621.632 389.12 628.322C390.302 635.012 392.269 636.979 389.12 640.521C385.971 644.062 385.186 639.339 385.578 650.752C385.971 662.166 376.529 664.918 376.136 668.067C375.744 671.216 371.02 672.79 376.921 675.149C382.822 677.509 387.406 664.054 390.821 662.127C394.236 660.199 399.351 661.377 403.682 654.686C408.008 647.996 409.98 644.978 414.175 648.389C418.371 651.799 415.488 654.948 423.356 655.471C431.228 655.995 428.603 655.471 434.9 659.144C441.198 662.816 446.968 664.39 445.394 653.373C443.819 642.357 441.983 639.208 445.655 638.419C449.327 637.634 448.804 642.88 452.215 638.157C455.625 633.434 452.738 631.336 450.64 628.976C448.542 626.617 437.521 620.843 445.394 613.498C453.266 606.154 465.857 609.826 467.954 606.677C470.052 603.528 469.791 590.937 462.446 591.722C455.102 592.507 453.527 594.801 447.491 591.687C441.46 588.573 436.998 595.394 432.536 583.854C428.079 572.31 422.305 568.899 434.634 559.719C446.964 550.538 454.046 548.964 463.755 539.779C473.463 530.598 474.771 529.286 486.054 528.496C497.337 527.711 513.077 518.919 512.68 513.018C512.287 507.117 502.056 510.262 495.758 509.477C489.46 508.692 485.134 508.295 486.316 500.034C487.498 491.77 490.25 483.505 481.989 480.753C473.725 477.997 471.365 481.538 472.15 474.455C472.939 467.373 470.087 457.268 470.087 457.268" stroke="#5F5F5F" stroke-width="2.47971" stroke-miterlimit="10" stroke-linecap="round" stroke-linejoin="round" stroke-dasharray="3.88 3.88"/>
<path d="M217.785 873.482C217.785 873.482 225.802 867.708 232.623 864.559C239.444 861.41 241.28 865.872 249.152 860.364C257.024 854.855 254.66 851.445 259.122 844.885C263.583 838.326 263.845 842.26 267.517 844.885C271.19 847.511 278.796 845.409 281.683 840.162C284.57 834.915 284.832 823.371 281.683 821.797C278.534 820.222 277.221 810.514 282.468 807.108C287.714 803.697 291.91 808.682 289.812 800.025C287.715 791.368 278.268 789.532 280.104 782.449C281.94 775.366 287.71 775.628 292.957 773.53C298.203 771.432 302.399 764.611 303.712 754.641C305.025 744.671 303.712 746.769 310.009 741.522C316.307 736.276 314.951 719.162 314.951 719.162" stroke="#5F5F5F" stroke-width="2.47971" stroke-miterlimit="10" stroke-linecap="round" stroke-linejoin="round" stroke-dasharray="3.88 3.88"/>
<path d="M791.746 481.48C791.746 481.48 796.391 498.86 802.689 502.532C808.986 506.205 817.378 506.205 815.28 514.077C813.182 521.949 806.243 509.881 803.679 523.519C801.114 537.161 794.699 541.885 803.679 548.706C812.659 555.527 825.25 555.003 828.399 560.773C831.548 566.543 826.824 569.692 821.054 570.215C815.284 570.739 814.757 568.118 806.365 574.411C797.97 580.709 793.246 589.1 788.528 592.777C783.804 596.449 776.983 591.202 772.788 600.121C768.592 609.04 779.085 620.061 782.234 623.733C785.383 627.405 782.234 634.226 775.937 635.801C769.639 637.375 780.28 658.885 771.811 664.132C763.346 669.378 771.213 674.625 759.145 673.051C747.078 671.476 733.963 677.246 735.01 669.378C736.057 661.511 739.206 658.885 741.308 653.638C743.41 648.392 743.406 637.375 737.112 636.324C730.815 635.273 730.815 644.196 717.7 628.452C704.586 612.708 703.535 606.414 697.237 606.414C690.939 606.414 688.841 608.512 675.727 610.087C662.608 611.661 664.684 616.908 651.317 611.661C637.949 606.414 642.145 601.691 630.605 603.789C619.065 605.887 618.537 606.938 613.29 598.542C608.044 590.147 604.895 605.887 587.581 604.84C570.266 603.793 577.611 593.296 561.871 595.398C546.131 597.5 557.431 588.577 546.794 585.428C536.157 582.279 528.816 595.398 530.914 606.938C533.012 618.482 535.11 624.252 540.884 633.171C546.654 642.09 556.38 656.255 546.794 657.83C537.208 659.404 537.208 641.566 525.14 641.566C513.072 641.566 514.398 638.941 512.688 625.303C510.974 611.661 502.335 596.972 512.688 591.198C523.042 585.428 521.995 581.228 534.586 574.934C547.178 568.637 557.671 552.897 556.624 547.65C555.577 542.403 561.103 532.961 546.794 525.612C532.489 518.268 534.447 509.035 523.042 509.873C511.642 510.71 511.642 510.71 511.642 510.71" stroke="#5F5F5F" stroke-width="2.47971" stroke-miterlimit="10" stroke-linecap="round" stroke-linejoin="round" stroke-dasharray="3.88 3.88"/>
<path d="M1003.86 486.02C1003.86 486.02 1012.56 484.567 1021.48 481.484C1030.4 478.4 1031.45 477.877 1035.12 477.877C1038.79 477.877 1042.06 477.877 1042.06 477.877" stroke="#5F5F5F" stroke-width="2.47971" stroke-miterlimit="10" stroke-linecap="round" stroke-linejoin="round" stroke-dasharray="3.88 3.88"/>
<path d="M999.519 523.165C999.519 523.165 1013.08 518.084 1012.03 523.165C1010.98 528.246 1006.94 536.642 999.519 542.412C992.097 548.182 994.351 564.973 999.519 571.271C1004.69 577.568 993.671 583.862 990.522 585.959C987.373 588.057 1005.8 606.946 1001.31 614.818C996.82 622.686 1000.49 621.639 995.245 634.758C989.999 647.877 978.454 635.281 975.833 651.549C973.212 667.817 976.884 666.879 957.996 673.643C939.107 680.408 939.107 673.063 928.613 680.408C918.12 687.752 916.022 678.833 907.627 684.08C899.231 689.327 899.231 694.573 907.627 703.492C916.022 712.411 923.89 720.619 933.86 719.402C943.83 718.185 939.107 740.219 945.404 747.563C951.702 754.908 943.83 763.303 936.486 760.682C929.141 758.056 925.992 741.793 920.222 741.793C914.452 741.793 912.35 745.923 910.252 761.175C908.154 776.426 901.857 780.622 895.036 772.75C888.215 764.877 880.87 766.98 869.326 765.929C857.781 764.877 870.9 753.337 862.505 748.614C854.109 743.891 851.488 750.119 837.318 751.467C823.153 752.814 813.706 756.94 812.132 751.467C810.557 745.993 810.034 743.895 816.327 735.5C822.625 727.104 826.297 733.214 819.476 719.402C812.655 705.59 805.834 705.067 805.311 693.522C804.787 681.978 803.139 689.327 787.473 676.731C771.803 664.14 771.803 664.14 771.803 664.14" stroke="#5F5F5F" stroke-width="2.47971" stroke-miterlimit="10" stroke-linecap="round" stroke-linejoin="round" stroke-dasharray="3.88 3.88"/>
<path d="M987.899 790.869C987.899 790.869 993.146 782.09 978.98 776.629C964.815 771.169 952.224 768.548 950.649 765.399C949.075 762.25 945.115 758.87 945.115 758.87" stroke="#5F5F5F" stroke-width="2.47971" stroke-miterlimit="10" stroke-linecap="round" stroke-linejoin="round" stroke-dasharray="3.88 3.88"/>
<path d="M292.962 773.532C292.962 773.532 301.62 779.467 311.59 776.628C321.559 773.793 316.313 781.138 325.232 787.959C334.151 794.78 340.972 796.878 350.942 798.452C360.912 800.027 363.533 798.975 371.405 805.273C379.277 811.571 389.243 802.124 395.54 811.571C401.838 821.013 406.034 825.213 416.527 823.115C427.02 821.017 424.922 818.392 436.99 808.95C449.058 799.508 459.028 794.728 466.372 796.328C473.717 797.933 460.074 816.294 480.014 815.771C499.954 815.248 501.001 794.004 515.694 798.592C530.383 803.18 530.911 814.724 544.025 808.95C557.144 803.18 561.863 796.101 572.884 798.592C583.901 801.082 593.87 811.052 608.036 809.478C622.201 807.903 633.746 809.477 634.792 814.201C635.839 818.924 626.92 817.873 630.069 829.417C633.218 840.962 641.26 847.783 634.88 862.472C628.499 877.16 627.971 885.033 632.695 892.905C637.418 900.777 648.958 910.743 640.567 914.942C632.171 919.138 625.878 923.338 620.627 937.503C615.38 951.669 632.695 959.541 621.678 964.788C610.661 970.034 632.695 971.086 634.797 976.856C636.899 982.626 647.366 985.251 651.313 999.417C655.26 1013.58 666.804 1012.54 673.098 1012.01C679.396 1011.48 675.196 1013.06 684.114 996.791C693.033 980.528 700.905 970.558 705.101 963.737C709.297 956.916 724.513 965.311 722.415 943.797C720.318 922.287 715.594 942.222 716.645 915.989C717.696 889.756 704.054 883.458 714.02 882.412C723.99 881.36 733.432 899.726 741.304 899.726C749.176 899.726 746.551 888.709 741.304 885.037C736.058 881.365 732.307 865.625 730.51 856.706C728.713 847.787 727.139 847.264 735.011 839.392C742.879 831.519 733.436 825.226 748.653 821.554C763.87 817.882 770.163 833.098 775.41 811.061C780.656 789.023 774.886 788.399 790.098 776.646C805.315 764.892 812.136 751.477 812.136 751.477" stroke="#5F5F5F" stroke-width="2.47971" stroke-miterlimit="10" stroke-linecap="round" stroke-linejoin="round" stroke-dasharray="3.88 3.88"/>
<path d="M256.868 1122.98C256.868 1122.98 269.617 1114.84 275.387 1119.04C281.157 1123.23 290.075 1124.28 296.373 1114.31C302.671 1104.34 309.492 1099.69 303.194 1090.7C296.896 1081.72 294.559 1082.3 305.698 1068.66C316.836 1055.02 311.066 1050.3 325.232 1051.87C339.397 1053.45 340.448 1055.02 353.563 1040.85C366.682 1026.69 357.758 1021.97 375.073 1025.64C392.387 1029.31 404.455 1028.79 412.85 1015.67C421.246 1002.55 418.097 996.779 432.263 993.631C446.428 990.482 447.479 993.107 462.168 978.942C476.857 964.776 476.857 977.367 481.057 952.185C485.252 926.999 486.827 925.952 496.797 923.326C506.767 920.701 504.141 926.475 513.06 913.884C521.979 901.293 525.128 897.093 534.57 899.195C544.012 901.293 545.063 916.51 560.28 917.033C575.496 917.556 582.841 898.668 592.288 913.884C601.73 929.101 591.764 947.99 598.057 958.483C604.355 968.976 618.63 967.711 618.63 967.711" stroke="#5F5F5F" stroke-width="2.47971" stroke-miterlimit="10" stroke-linecap="round" stroke-linejoin="round" stroke-dasharray="3.88 3.88"/>
<path d="M285.29 1166.27C285.29 1166.27 290.079 1171.5 292.7 1161C295.325 1150.51 288.993 1121.06 288.993 1121.06" stroke="#5F5F5F" stroke-width="2.47971" stroke-miterlimit="10" stroke-linecap="round" stroke-linejoin="round" stroke-dasharray="3.88 3.88"/>
<path d="M673.092 1012C673.092 1012 684.109 1011.47 693.555 1006.23C702.997 1000.98 706.674 1003.08 722.414 987.862C738.154 972.645 732.384 963.726 744.451 966.875C756.519 970.024 761.766 973.173 765.966 962.152C770.161 951.135 762.293 947.986 776.459 944.314C790.624 940.642 794.297 931.723 800.071 940.642C805.841 949.561 822.632 956.382 828.93 952.186C835.228 947.991 845.983 939.595 845.983 939.595" stroke="#5F5F5F" stroke-width="2.47971" stroke-miterlimit="10" stroke-linecap="round" stroke-linejoin="round" stroke-dasharray="3.88 3.88"/>
<path d="M462.172 978.942C462.172 978.942 474.24 997.831 470.568 1005.18C466.895 1012.52 458.147 1017.77 466.717 1025.64C475.287 1033.51 463.219 1044 462.172 1057.12C461.121 1070.23 474.41 1075.88 466.717 1081.71C459.023 1087.55 462.695 1096.99 468.993 1101.71C475.291 1106.44 475.169 1115.36 462.111 1118.5C449.053 1121.65 445.904 1120.08 442.232 1127.95C438.56 1135.82 449.053 1147.89 446.428 1155.76C443.802 1163.63 433.309 1159.97 432.262 1167.57C431.211 1175.17 422.82 1201.93 432.262 1202.45C441.705 1202.98 461.644 1193.54 461.121 1207.18C460.598 1220.82 448.53 1213.48 447.479 1223.44C446.428 1233.41 458.495 1234.99 469.517 1234.46C480.538 1233.93 487.354 1229.73 493.129 1238.65C498.899 1247.57 489.404 1245.46 501.76 1255.44C514.115 1265.41 516.213 1263.84 512.541 1273.81C508.869 1283.78 503.099 1289.32 503.099 1289.32" stroke="#5F5F5F" stroke-width="2.47971" stroke-miterlimit="10" stroke-linecap="round" stroke-linejoin="round" stroke-dasharray="3.88 3.88"/>
<path d="M1089.69 531.916C1089.69 531.916 1091.92 521.292 1094.67 519.325C1097.43 517.358 1098.92 500.148 1098.92 500.148" stroke="#5F5F5F" stroke-width="2.47971" stroke-miterlimit="10" stroke-linecap="round" stroke-linejoin="round" stroke-dasharray="3.88 3.88"/>
<path d="M1096.49 550.087C1096.49 550.087 1108.05 544.513 1122.21 544.906C1136.38 545.298 1147 547.706 1153.69 547.488C1160.39 547.27 1161.57 555.268 1171.4 550.087C1181.24 544.906 1187.14 530.74 1199.34 531.922C1211.54 533.104 1219.01 528.773 1217.44 539.794C1215.87 550.811 1218.23 553.567 1226.49 554.352C1234.75 555.137 1241.84 564.584 1241.05 570.092C1240.26 575.601 1232.74 585.047 1232.74 585.047" stroke="#5F5F5F" stroke-width="2.47971" stroke-miterlimit="10" stroke-linecap="round" stroke-linejoin="round" stroke-dasharray="3.88 3.88"/>
<path d="M1204.71 488.049C1204.71 488.049 1199.35 489.824 1217.84 481.947C1236.33 474.071 1256.01 477.612 1270.57 474.071C1285.12 470.529 1289.06 478.794 1289.85 461.48C1290.63 444.165 1294.57 445.74 1303.62 441.409C1312.67 437.078 1308.74 432.752 1317.39 431.57C1326.05 430.388 1330.38 440.62 1342.18 428.029C1353.99 415.438 1365.4 412.681 1374.45 410.714C1383.5 408.747 1387.83 401.665 1385.86 412.681C1383.9 423.698 1374.06 422.123 1381.54 430.388C1389.01 438.653 1392.56 441.802 1384.69 449.669C1376.82 457.542 1373.79 454.619 1375.11 463.752" stroke="#5F5F5F" stroke-width="2.47971" stroke-miterlimit="10" stroke-linecap="round" stroke-linejoin="round" stroke-dasharray="3.88 3.88"/>
<path d="M1337.62 549.27C1337.62 549.27 1339.04 539.789 1333.92 539.396C1328.81 539.004 1329.2 550.81 1321.33 552.777C1313.46 554.744 1312.28 549.951 1300.87 558.446C1289.45 566.942 1298.51 566.942 1282.37 571.269C1266.24 575.595 1271.36 587.798 1268.21 597.24C1265.06 606.682 1261.91 613.373 1263.48 621.637C1265.06 629.902 1278.57 641.577 1278.57 641.577" stroke="#5F5F5F" stroke-width="2.47971" stroke-miterlimit="10" stroke-linecap="round" stroke-linejoin="round" stroke-dasharray="3.88 3.88"/>
<path d="M1218.76 633.705C1218.76 633.705 1228.86 641.664 1227.68 648.768C1226.49 655.873 1226.17 682.848 1226.17 682.848" stroke="#5F5F5F" stroke-width="2.47971" stroke-miterlimit="10" stroke-linecap="round" stroke-linejoin="round" stroke-dasharray="3.88 3.88"/>
<path d="M1261.12 622.031C1261.12 622.031 1261.12 619.275 1250.89 620.064C1240.66 620.849 1250.22 634.229 1241.11 636.986C1232 639.742 1225.8 641.578 1225.8 641.578" stroke="#5F5F5F" stroke-width="2.47971" stroke-miterlimit="10" stroke-linecap="round" stroke-linejoin="round" stroke-dasharray="3.88 3.88"/>
<path d="M1282.37 571.267C1282.37 571.267 1287.1 562.218 1280.8 551.197C1274.5 540.18 1285.92 533.097 1289.85 533.882C1293.78 534.667 1295.67 535.339 1300.43 533.821C1305.2 532.308 1307.16 514.204 1314.25 506.729C1321.33 499.254 1320.54 503.187 1329.2 489.807C1337.86 476.426 1341.01 474.067 1353.6 470.918C1366.19 467.769 1377.25 460.939 1377.25 460.939" stroke="#5F5F5F" stroke-width="2.47971" stroke-miterlimit="10" stroke-linecap="round" stroke-linejoin="round" stroke-dasharray="3.88 3.88"/>
</svg>
