<svg width="1355" height="1163" viewBox="0 0 1355 1163" fill="none" xmlns="http://www.w3.org/2000/svg">
<path d="M376.652 205.041C376.652 205.041 357.763 201.369 354.614 194.548C351.465 187.726 359.337 176.71 340.972 174.084C322.606 171.459 321.032 178.808 314.215 160.442C307.394 142.077 294.803 146.8 296.378 129.486C297.952 112.171 303.199 110.073 299.003 86.9847C294.807 63.9003 299.003 72.8192 311.071 63.9003C323.138 54.9814 326.811 50.7815 321.564 44.4882C316.317 38.1904 307.922 43.9648 308.973 27.6972C310.024 11.4295 292.182 25.0717 287.986 14.055C283.791 3.03837 285.361 6.18285 273.297 0.940563C261.23 -4.30608 259.655 0.940558 260.179 -13.225C260.702 -27.3905 252.307 -24.2416 266.476 -27.9138C266.476 -27.9138 269.494 -26.0777 274.213 -31.586C278.937 -37.0944 285.627 -46.9334 291.135 -46.9334C296.643 -46.9334 299.007 -50.0823 303.726 -46.9334C308.45 -43.7846 308.053 -42.9995 314.743 -42.9995C321.433 -42.9995 318.912 -46.9335 317.416 -53.6237C315.92 -60.3139 328.119 -57.9501 337.958 -57.9501C347.797 -57.9501 349.764 -63.4584 355.665 -63.0659C361.566 -62.6734 380.852 -59.5245 387.934 -58.7351C395.017 -57.9457 400.525 -37.09 403.674 -35.5199C406.823 -33.9499 425.315 -32.371 433.977 -24.1064C442.634 -15.8417 442.634 -9.94088 453.65 -4.03568C464.667 1.86516 458.374 11.7043 463.882 13.2787C469.39 14.8531 485.92 19.5764 487.494 22.7209C489.069 25.8654 487.102 32.9525 493.395 34.1344C499.688 35.3163 518.581 25.8698 523.693 24.6922C528.809 23.5103 529.594 14.0681 537.858 13.2787C546.123 12.4937 566.979 14.0637 572.487 11.3117C577.996 8.55539 575.636 5.41091 581.537 8.55541C587.438 11.7043 583.504 14.8531 593.343 15.2456C603.182 15.6381 609.868 12.8862 614.984 24.6879C620.099 36.4939 622.459 33.345 618.918 45.9361C615.376 58.5272 618.128 64.0399 610.653 67.9738C603.178 71.9077 608.686 77.8129 596.88 86.4701C585.074 95.1272 581.925 95.1273 579.958 100.636C577.991 106.144 580.351 106.144 566.97 111.26C553.59 116.376 552.015 121.491 554.379 127.392C556.738 133.293 560.28 136.442 554.772 141.165C549.263 145.888 552.412 151.397 559.102 152.971C565.793 154.546 575.235 149.037 574.842 158.48C574.45 167.922 577.599 173.827 581.14 180.12C584.681 186.418 581.925 196.253 577.206 197.435C572.487 198.617 563.826 199.794 559.892 202.943C555.958 206.092 554.776 209.105 549.268 205.041C543.759 200.976 549.268 193.104 543.367 191.922C537.466 190.74 531.168 191.529 529.594 197.43C528.019 203.331 529.201 206.087 534.317 213.17C539.433 220.253 542.582 214.745 541.792 225.761C541.007 236.778 535.495 234.811 553.206 241.894C570.913 248.977 564.619 264.324 571.702 265.898C578.785 267.473 572.884 265.506 582.326 274.163C591.768 282.82 595.707 276.523 605.938 284.395C616.17 292.267 617.191 289.903 620.614 296.986C624.038 304.068 623.253 304.461 636.629 308.399C650.009 312.333 655.91 319.416 653.551 323.747C651.191 328.073 646.86 322.565 642.927 329.255C638.993 335.945 640.567 343.028 632.302 344.602C624.038 346.177 623.645 355.227 622.071 359.95C620.496 364.673 626.005 367.033 616.955 370.966C607.905 374.9 616.955 387.491 613.414 392.607C609.872 397.723 607.905 403.624 614.596 408.347C621.286 413.07 630.728 410.707 635.059 413.071C639.385 415.43 635.451 416.612 644.898 418.186C654.34 419.761 650.014 418.579 656.704 425.269C663.394 431.959 670.869 442.976 684.642 445.732C698.415 448.489 693.3 454.782 704.316 456.749C715.333 458.716 720.056 458.716 728.713 465.014C737.371 471.311 744.453 465.799 746.813 472.489C749.172 479.179 751.536 480.754 759.404 480.754C767.276 480.754 769.636 475.245 782.227 476.82C794.818 478.394 790.094 486.266 796.785 480.754C803.475 475.245 818.033 474.063 826.69 489.803C835.347 505.543 843.219 505.151 851.087 507.118C858.959 509.085 858.562 510.659 868.794 510.266C879.026 509.874 880.207 506.058 884.534 510.328C888.86 514.597 892.406 516.564 898.307 516.564C904.208 516.564 908.539 513.415 918.378 516.564C928.217 519.713 938.448 523.647 952.217 524.039C965.99 524.432 957.333 524.432 969.139 527.973C980.945 531.515 1001.01 524.039 1003.77 520.101C1006.52 516.163 1008.09 498.46 1007.31 493.345C1006.52 488.229 998.652 480.754 999.834 473.671C1001.02 466.588 1002.98 466.196 1005.34 456.356C1007.7 446.517 1009.67 443.368 1015.57 439.435C1021.47 435.501 1025.41 431.562 1029.74 432.352C1034.07 433.137 1043.12 442.583 1041.15 449.666C1039.19 456.749 1038.95 467.373 1041.43 475.245C1043.9 483.117 1041.15 493.742 1054.14 498.068C1067.12 502.399 1082.86 497.283 1086.8 503.576C1090.73 509.874 1095.46 499.376 1105.95 497.279C1116.44 495.181 1115.92 496.227 1137.95 494.653C1159.99 493.079 1172.06 495.704 1185.17 492.555C1198.29 489.406 1205.11 490.457 1206.16 485.734C1207.21 481.011 1210.35 455.829 1196.72 455.829C1183.07 455.829 1176.25 454.254 1176.78 448.484C1177.3 442.714 1178.87 431.17 1186.75 430.647C1194.62 430.123 1200.91 433.272 1210.36 426.451C1219.8 419.63 1208.78 415.958 1225.57 412.285C1242.37 408.613 1241.31 409.137 1246.56 396.546C1251.81 383.954 1252.33 373.985 1273.32 372.41C1294.3 370.836 1292.73 358.768 1307.42 349.326C1322.11 339.884 1327.36 334.109 1337.86 337.781C1348.35 341.454 1351.5 344.079 1363.04 336.73C1374.59 329.386 1390.85 319.416 1394.52 327.811C1398.2 336.207 1397.15 335.156 1394.52 341.977C1391.9 348.798 1390.85 348.275 1404.49 348.798C1418.14 349.321 1408.69 362.964 1406.59 369.785C1404.49 376.606 1401.87 388.673 1407.64 388.15C1413.41 387.627 1417.61 377.657 1429.68 381.852C1441.75 386.048 1445.94 382.376 1450.67 397.069C1455.39 411.762 1461.68 413.332 1459.58 419.107C1457.49 424.877 1456.44 415.958 1454.86 430.651C1453.29 445.34 1434.4 447.442 1428.63 446.391C1422.86 445.34 1423.9 440.621 1412.36 445.34C1400.82 450.063 1391.38 457.408 1380.36 459.505C1369.34 461.603 1375.63 483.117 1367.24 497.806C1358.84 512.495 1349.92 539.779 1347.3 545.026C1344.67 550.273 1333.13 546.6 1335.75 553.945C1338.38 561.289 1348.35 568.11 1347.82 581.229C1347.3 594.348 1345.72 599.595 1349.4 602.216C1353.07 604.837 1351.49 615.335 1345.2 614.807C1338.91 614.279 1337.86 608.548 1329.98 614.824C1322.11 621.1 1323.69 644.712 1317.92 645.236C1312.15 645.759 1315.82 644.185 1302.7 645.236C1289.58 646.287 1283.29 641.564 1278.56 641.564C1273.84 641.564 1289.58 660.452 1288.01 670.422C1286.43 680.392 1279.61 698.753 1275.42 709.774C1271.22 720.791 1271.22 723.416 1274.89 729.71C1278.56 736.008 1275.42 748.075 1269.65 749.122C1263.88 750.173 1257.05 745.973 1251.28 741.778C1245.51 737.582 1240.79 733.91 1241.31 720.791C1241.83 707.672 1240.79 685.639 1235.54 682.49C1230.29 679.341 1215.6 687.213 1210.88 688.788C1206.16 690.362 1197.24 693.511 1188.84 692.983C1180.45 692.46 1176.25 688.26 1175.73 678.818C1175.2 669.376 1175.2 650.487 1181.5 645.24C1187.79 639.993 1186.74 638.419 1197.23 637.368C1207.73 636.317 1211.92 636.845 1218.74 633.696C1225.57 630.547 1222.94 617.432 1223.47 610.611C1223.99 603.79 1220.32 601.169 1231.86 600.641C1243.41 600.118 1239.21 585.425 1229.24 583.85C1219.27 582.276 1218.74 580.178 1203.53 582.276C1188.31 584.374 1184.12 573.88 1170.47 580.702C1156.83 587.523 1165.23 589.097 1143.19 587.523C1121.15 585.948 1112.23 587.523 1099.64 578.08C1087.05 568.638 1097.54 551.324 1097.02 546.601C1096.49 541.877 1097.54 532.958 1089.67 531.912C1081.8 530.861 1085.48 539.256 1069.73 535.06C1053.99 530.865 1058.19 522.993 1048.22 522.469C1038.25 521.946 1046.12 534.537 1036.15 529.29C1026.18 524.044 1031.43 515.648 1022.51 519.321C1013.59 522.993 1016.74 540.307 1013.07 546.605C1009.39 552.903 1013.59 560.247 1022.64 564.573C1031.69 568.9 1031.69 574.805 1041.14 575.987C1050.58 577.169 1056.88 583.07 1049.8 587.793C1042.71 592.516 1040.35 592.119 1032.87 593.694C1025.4 595.268 1034.06 605.892 1024.22 609.041C1014.38 612.19 1012.02 613.765 1011.23 619.273C1010.44 624.781 1028.94 637.372 1039.17 639.344C1049.4 641.311 1051.37 644.852 1043.89 653.902C1036.42 662.951 1036.81 675.547 1042.32 680.658C1047.83 685.774 1046.64 688.53 1048.61 692.464C1050.58 696.398 1063.17 699.94 1059.63 713.713C1056.09 727.486 1059.24 724.729 1060.81 736.928C1062.39 749.126 1071.44 756.998 1059.24 761.717C1047.04 766.441 1047.43 761.717 1037.99 768.015C1028.55 774.313 1029.33 763.689 1026.58 759.75C1023.82 755.817 1015.16 759.75 1008.08 773.916C1001 788.081 1004.54 787.737 993.523 790.86C982.506 793.982 986.833 794.375 973.06 799.491C959.287 804.606 960.076 812.871 960.469 823.888C960.861 834.904 964.795 841.202 956.927 846.71C949.055 852.219 954.96 862.843 948.27 868.748C941.58 874.649 945.78 875.438 939.155 881.736C932.53 888.034 938.435 888.426 923.48 889.608C908.526 890.79 909.707 895.509 903.41 899.05C897.112 902.592 893.571 906.922 891.211 903.774C888.852 900.625 888.062 895.509 885.31 895.116C882.554 894.724 876.653 893.935 873.504 902.989C870.355 912.038 875.864 910.464 869.178 918.336C862.488 926.208 849.896 930.142 845.963 939.584C842.029 949.026 843.206 949.423 832.19 964.374C821.173 979.329 808.578 984.048 802.284 990.345C795.986 996.643 789.301 997.428 782.218 1010.02C775.135 1022.61 772.379 1028.91 755.064 1035.21C737.75 1041.5 736.568 1043.86 729.485 1051.74C722.403 1059.61 727.126 1061.97 728.7 1066.69C730.275 1071.41 729.093 1082.04 712.568 1085.97C696.038 1089.91 695.253 1087.15 681.088 1089.51C666.922 1091.87 666.53 1107.22 659.447 1117.45C652.364 1127.68 644.492 1125.72 638.984 1121.39C633.476 1117.06 631.509 1117.06 624.029 1121.78C616.549 1126.5 607.897 1139.48 607.897 1152.47C607.897 1165.46 609.079 1213.07 611.83 1223.7C614.587 1234.32 624.029 1239.44 617.731 1244.16C611.434 1248.88 610.256 1255.97 613.4 1260.69C616.545 1265.4 627.566 1266.19 621.665 1276.82C615.76 1287.44 612.223 1310.66 604.351 1321.29C596.479 1331.91 594.909 1330.73 594.119 1342.53C593.33 1354.34 597.661 1378.74 594.119 1389.36C590.578 1399.99 591.76 1394.87 589.003 1413.76C586.247 1432.65 590.185 1433.83 582.706 1433.83C575.23 1433.83 579.949 1430.29 568.148 1440.13C556.342 1449.97 561.457 1462.56 552.015 1465.31C542.573 1468.07 535.883 1488.13 538.635 1488.53C541.391 1488.92 549.651 1492.07 541.391 1495.22C533.131 1498.37 529.978 1492.07 522.502 1500.73C515.027 1509.38 512.271 1501.91 504.795 1517.65C497.32 1533.39 506.762 1538.5 483.15 1550.31C459.538 1562.12 472.526 1568.81 459.935 1564.87C447.344 1560.93 455.212 1563.69 443.406 1558.18C431.6 1552.67 431.207 1559.36 425.306 1545.59C419.405 1531.81 415.467 1530.24 403.269 1518.83C391.07 1507.42 399.727 1507.81 394.611 1491.28C389.496 1474.76 385.562 1484.2 390.285 1470.43C395.008 1456.66 396.583 1456.66 394.611 1445.64C392.645 1434.62 389.103 1449.97 384.772 1445.64C380.442 1441.31 385.954 1429.9 377.297 1412.98C368.64 1396.06 368.247 1396.45 368.247 1387.01C368.247 1377.56 354.867 1371.27 348.177 1359.07C341.486 1346.87 344.635 1340.97 332.829 1326.01C321.023 1311.06 319.846 1323.65 315.515 1297.29C311.188 1270.92 310.399 1278.4 307.25 1249.67C304.101 1220.95 305.676 1209.14 294.659 1191.82C283.642 1174.51 287.184 1157.2 276.163 1147.36C265.146 1137.52 244.683 1106.04 240.352 1092.26C236.026 1078.49 234.844 1080.46 234.451 1054.09C234.059 1027.73 223.827 999.792 222.645 986.804C221.463 973.816 223.038 953.75 222.645 945.485C222.253 937.221 213.203 924.237 215.955 900.232C218.711 876.228 216.74 867.178 219.889 857.339C223.038 847.5 218.707 819.561 217.53 808.152C216.348 796.739 212.021 799.15 217.53 790.864C223.038 782.578 214.381 777.462 212.021 771.949C209.662 766.441 218.319 757.783 212.021 753.453C205.723 749.122 192.74 753.845 194.314 768.011C195.889 782.176 202.972 789.259 191.165 796.739C179.359 804.214 186.442 821.528 166.768 822.318C147.094 823.103 134.107 825.859 118.367 823.892C102.627 821.925 106.168 806.97 91.2132 798.706C76.2583 790.441 60.1258 774.701 48.7166 768.011C37.3031 761.32 36.9106 749.514 32.5841 740.072C28.2534 730.63 29.4353 723.15 37.3075 727.481C45.1796 731.807 42.0307 739.68 49.506 741.647C56.9813 743.614 64.4609 746.37 72.3287 741.254C80.2009 736.138 89.6431 731.807 97.5152 728.663C105.387 725.514 112.863 716.465 106.565 712.923C100.267 709.382 98.6928 710.956 77.8371 710.564C56.9813 710.171 60.5227 718.436 45.5678 710.564C30.6129 702.691 33.7617 694.431 27.0715 688.923C20.3813 683.414 7.39763 677.117 11.3315 670.034C15.2654 662.951 24.712 665.311 19.5962 661.769C14.4804 658.228 16.8399 662.951 8.57955 659.803C0.314885 656.654 -0.867046 649.571 3.46373 647.996C7.79014 646.422 14.0878 648.781 21.1706 645.24C28.2534 641.699 26.2864 641.699 35.3361 632.252C44.3858 622.81 45.1752 621.628 53.043 625.954C60.9151 630.281 64.0597 635.004 71.9318 635.004C79.7996 635.004 78.2296 642.876 86.0973 641.302C93.9695 639.727 93.1801 631.07 106.168 629.888C119.152 628.706 116.4 621.624 126.239 629.496C136.078 637.368 146.702 629.103 146.309 623.987C145.917 618.872 150.243 596.834 139.227 590.144C128.21 583.453 126.636 580.305 130.177 572.044C133.718 563.78 136.475 560.238 126.243 559.846C116.012 559.453 100.272 562.995 104.205 545.68C108.139 528.366 125.851 517.349 111.681 512.626C97.5109 507.903 103.416 511.444 94.3664 505.543C85.3167 499.642 70.7543 484.687 79.0189 477.997C87.2836 471.307 86.1017 476.03 98.3003 460.683C110.499 445.335 116.4 433.926 125.846 435.104C135.288 436.286 144.735 435.496 144.735 445.335C144.735 455.175 156.541 442.187 168.347 439.827C180.153 437.468 190.777 443.761 198.649 436.286C206.522 428.81 222.654 422.12 231.311 399.69C239.968 377.26 251.382 378.442 260.039 374.504C268.696 370.57 271.845 353.648 277.353 337.515C282.862 321.383 295.453 319.808 300.569 319.019C305.685 318.234 307.259 295.804 322.209 288.717C337.164 281.634 348.574 271.795 346.999 269.435C345.425 267.076 341.491 247.795 343.458 238.348C345.425 228.906 349.756 213.558 358.413 213.162C367.07 212.765 380.45 209.228 380.45 209.228L376.652 205.041Z" stroke="black" stroke-width="2" stroke-miterlimit="10"/>
</svg>
