<svg width="34" height="38" viewBox="0 0 34 38" fill="none" xmlns="http://www.w3.org/2000/svg">
<path d="M33.9997 6.6161C34 6.4635 33.9696 6.31241 33.9103 6.17194C33.851 6.03148 33.764 5.90452 33.6547 5.79873L28.0571 0.331599C27.9192 0.194796 27.7491 0.0954252 27.5627 0.0427976C27.3762 -0.00982991 27.1795 -0.0139915 26.991 0.0307028C26.8025 0.075397 26.6283 0.167484 26.4849 0.298335C26.3414 0.429187 26.2334 0.594518 26.1708 0.778839C26.1631 0.809683 25.1433 3.78615 22.2448 3.59337C21.3558 3.53114 20.4994 3.23187 19.7635 2.72636C19.0277 2.22084 18.4391 1.52733 18.0582 0.717151C17.9731 0.507254 17.8277 0.327644 17.6405 0.201276C17.4534 0.0749076 17.2331 0.00752294 17.0077 0.00773459H17C16.7749 0.0084883 16.5548 0.0752777 16.3669 0.199917C16.1789 0.324557 16.0312 0.501632 15.9418 0.70944C15.563 1.52185 14.9751 2.21762 14.239 2.72469C13.5029 3.23176 12.6453 3.53168 11.7552 3.59337C8.90271 3.78615 7.86754 0.894505 7.8292 0.778839C7.76664 0.594518 7.65857 0.429187 7.51512 0.298335C7.37167 0.167484 7.19753 0.075397 7.00903 0.0307028C6.82052 -0.0139915 6.62382 -0.00982991 6.43735 0.0427976C6.25088 0.0954252 6.08075 0.194796 5.9429 0.331599L0.345338 5.79873C0.235973 5.90452 0.149024 6.03148 0.089724 6.17194C0.0304243 6.31241 3.29726e-07 6.4635 0.000283444 6.6161C-0.00317329 6.7696 0.0250197 6.92216 0.0830863 7.06416C0.141153 7.20616 0.227835 7.33453 0.337671 7.44118C2.76839 9.8933 2.46168 13.3093 0.966438 19.1543C-0.521133 24.9761 0.997109 32.957 16.6549 37.9461C16.8794 38.018 17.1206 38.018 17.3451 37.9461C33.0029 32.957 34.5211 24.9761 33.0336 19.1543C31.5383 13.3093 31.2316 9.8933 33.6623 7.44118C33.7722 7.33453 33.8588 7.20616 33.9169 7.06416C33.975 6.92216 34.0032 6.7696 33.9997 6.6161ZM18.1502 20.0333V24.7602C18.1502 25.067 18.029 25.3612 17.8133 25.5781C17.5976 25.795 17.305 25.9169 17 25.9169C16.695 25.9169 16.4024 25.795 16.1867 25.5781C15.971 25.3612 15.8498 25.067 15.8498 24.7602V20.0333C15.1296 19.7623 14.5268 19.2455 14.1468 18.5731C13.7668 17.9008 13.6337 17.1156 13.7706 16.3546C13.9076 15.5936 14.3059 14.9051 14.8961 14.4094C15.4864 13.9136 16.231 13.642 17 13.642C17.769 13.642 18.5136 13.9136 19.1039 14.4094C19.6941 14.9051 20.0925 15.5936 20.2294 16.3546C20.3664 17.1156 20.2332 17.9008 19.8532 18.5731C19.4732 19.2455 18.8704 19.7623 18.1502 20.0333ZM17.9815 16.9489C17.98 17.1438 17.9211 17.3338 17.8124 17.4951C17.7036 17.6564 17.5498 17.7817 17.3703 17.8553C17.1908 17.9288 16.9937 17.9472 16.8039 17.9083C16.614 17.8693 16.4398 17.7747 16.3033 17.6364C16.1668 17.4981 16.0741 17.3222 16.0368 17.1309C15.9996 16.9397 16.0195 16.7416 16.094 16.5617C16.1685 16.3818 16.2943 16.2281 16.4555 16.12C16.6168 16.0119 16.8062 15.9542 17 15.9542C17.1295 15.9544 17.2576 15.9803 17.3771 16.0305C17.4966 16.0806 17.6051 16.154 17.6963 16.2464C17.7875 16.3389 17.8596 16.4485 17.9086 16.5691C17.9575 16.6896 17.9823 16.8187 17.9815 16.9489Z" fill="#FFF1CC"/>
</svg>
